<?xml version="1.0" encoding="UTF-8"?>
<!DOCTYPE svg PUBLIC "-//W3C//DTD SVG 1.1//EN" "http://www.w3.org/Graphics/SVG/1.1/DTD/svg11.dtd">
<!-- Creator: CorelDRAW -->
<svg xmlns="http://www.w3.org/2000/svg" xml:space="preserve" width="15mm" height="15mm" version="1.1" style="shape-rendering:geometricPrecision; text-rendering:geometricPrecision; image-rendering:optimizeQuality; fill-rule:evenodd; clip-rule:evenodd"
viewBox="0 0 24.69 24.69"
 xmlns:xlink="http://www.w3.org/1999/xlink"
 xmlns:xodm="http://www.corel.com/coreldraw/odm/2003">
 <defs>
  <style type="text/css">
   <![CDATA[
    .fil0 {fill:none}
    .fil1 {fill:white;fill-rule:nonzero}
   ]]>
  </style>
 </defs>
 <g id="Layer_x0020_1">
  <metadata id="CorelCorpID_0Corel-Layer"/>
  <g id="_2515579692000">
   <circle class="fil0" cx="12.35" cy="12.35" r="12.35"/>
   <path class="fil1" d="M15.03 13.05l0.97 0.97 0 -5.85c-0.39,-0.14 -0.7,-0.44 -0.83,-0.83l-5.17 0c-0.14,0.39 -0.44,0.7 -0.83,0.83l0 3.24c0.12,-0.01 0.24,0.01 0.35,0.06l0.35 -0.35c-0.18,-0.18 -0.18,-0.47 0,-0.64l1.29 -1.29c0.18,-0.18 0.47,-0.18 0.64,0l0.35 -0.35c-0.13,-0.26 -0.07,-0.57 0.13,-0.78l0.32 -0.32c0.09,-0.09 0.23,-0.09 0.32,0l2.25 2.25c0.09,0.09 0.09,0.23 0,0.32l-0.32 0.32c-0.2,0.21 -0.52,0.26 -0.78,0.13l-0.35 0.35c0.18,0.18 0.18,0.47 0,0.64l-0.16 0.16 0.32 0.32 0.16 -0.16c0.09,-0.09 0.23,-0.09 0.32,0l0.64 0.64c0.09,0.09 0.09,0.23 0,0.32l0 -0zm-0.48 -2.74l0.16 -0.16 -1.93 -1.93 -0.16 0.16c-0.09,0.09 -0.09,0.23 0,0.32l1.61 1.61c0.04,0.04 0.1,0.07 0.16,0.07 0.06,0 0.12,-0.02 0.16,-0.07zm-4.67 1.45l0.32 -0.32 1.29 1.29 -0.32 0.32 -1.29 -1.29zm3.06 0.8l0.32 -0.32 0.32 0.32 -0.32 0.32 -0.32 -0.32zm0.32 0.97l0.97 -0.97 0.32 0.32 -0.97 0.97 -0.32 -0.32zm-4.19 -1.61l-0.16 0.16 1.93 1.93 0.16 -0.16c0.09,-0.09 0.09,-0.23 0,-0.32l-1.61 -1.61c-0.09,-0.09 -0.23,-0.09 -0.32,0zm0.93 3.61l4.94 0 -1.2 -1.2c-0.09,0.09 -0.23,0.09 -0.32,0l-0.64 -0.64c-0.09,-0.09 -0.09,-0.23 0,-0.32l0.16 -0.16 -0.32 -0.32 -0.16 0.16c-0.18,0.18 -0.47,0.18 -0.64,0l-0.35 0.35c0.12,0.26 0.07,0.57 -0.13,0.78l-0.32 0.32c-0.09,0.09 -0.23,0.09 -0.32,0l-1.51 -1.51 0 1.72c0.39,0.14 0.7,0.44 0.83,0.83l0 -0zm0.2 -4.74l1.29 -1.29 1.93 1.93 -1.29 1.29 -1.93 -1.93zm-3.53 7.93l10.7 0 0 -0.76 -0.6 -0.6 -10.1 0c-0.38,0 -0.68,0.31 -0.68,0.68 0,0.38 0.31,0.68 0.68,0.68zm-0.68 -1.59c0.2,-0.15 0.44,-0.23 0.68,-0.23l0.68 0 0 -10.93 -0.23 0c-0.63,0 -1.14,0.51 -1.14,1.14l0 10.02zm12.27 -0.22l-0.32 0.32 -0.32 -0.32 0.32 -0.32 -3.22 -3.22 -0.64 0.64 2.58 2.58 0.32 -0.32 0.32 0.32 -0.32 0.32 0.97 0.97c0.18,0.17 0.46,0.17 0.64,0 0.18,-0.18 0.18,-0.47 0,-0.64l-0.32 -0.32zm-2.86 -0.93c-0.02,0 -0.03,0.01 -0.05,0.01l-5.51 0c-0.11,0 -0.2,-0.08 -0.22,-0.18 -0.07,-0.36 -0.35,-0.64 -0.71,-0.71 -0.11,-0.02 -0.18,-0.11 -0.18,-0.22l0 -2.35 -0.29 -0.29c-0.09,-0.09 -0.09,-0.23 0,-0.32l0.29 -0.29 0 -3.64c0,-0.11 0.08,-0.2 0.18,-0.22 0.36,-0.07 0.64,-0.35 0.71,-0.71 0.02,-0.11 0.11,-0.18 0.22,-0.18l5.51 0c0.11,0 0.2,0.08 0.22,0.18 0.07,0.36 0.35,0.64 0.71,0.71 0.11,0.02 0.18,0.12 0.18,0.22l0 6.48 0.91 0.91 0 -9.19c0,-0.13 -0.1,-0.23 -0.23,-0.23l-9.34 0 0 10.93 8.5 0 -0.92 -0.92zm-3.26 -6.48l0.32 -0.32 1.29 1.29 -0.32 0.32 -1.29 -1.29z"/>
  </g>
 </g>
</svg>
