<?xml version="1.0" encoding="UTF-8"?>
<!DOCTYPE svg PUBLIC "-//W3C//DTD SVG 1.1//EN" "http://www.w3.org/Graphics/SVG/1.1/DTD/svg11.dtd">
<!-- Creator: CorelDRAW -->
<svg xmlns="http://www.w3.org/2000/svg" xml:space="preserve" width="15mm" height="15mm" version="1.1" style="shape-rendering:geometricPrecision; text-rendering:geometricPrecision; image-rendering:optimizeQuality; fill-rule:evenodd; clip-rule:evenodd"
viewBox="0 0 245.72 245.72"
 xmlns:xlink="http://www.w3.org/1999/xlink"
 xmlns:xodm="http://www.corel.com/coreldraw/odm/2003">
 <defs>
  <style type="text/css">
   <![CDATA[
    .fil0 {fill:none}
    .fil1 {fill:white;fill-rule:nonzero}
   ]]>
  </style>
 </defs>
 <g id="Layer_x0020_1">
  <metadata id="CorelCorpID_0Corel-Layer"/>
  <circle class="fil0" cx="122.86" cy="122.86" r="122.86"/>
  <path id="XMLID_1267_" class="fil1" d="M139.4 76.16l0 -19.08 -10.04 0 0 11.54 10.04 7.55zm-94.55 99.03l156.03 0 0 14.27 -156.03 0 0 -14.27zm42.79 -39.75l22.03 0 0 30.27 -22.03 0 0 -30.27zm-20.55 -54.67l63.13 0 -31.56 -23.72 -31.56 23.72zm121.22 -24.52l0 10.08 -14.69 0 0 -10.08 -9.21 0 0 24.95c0,7.53 5.06,13.9 11.95,15.9l0 26.38c0,8.38 -6.82,15.2 -15.2,15.2l-21.76 0 0 -48.7 -81.5 0 0 76 20.53 0 0 -39.75 40.44 0 0 39.75 20.53 0 0 -18.1 21.75 0c13.46,0 24.41,-10.95 24.41,-24.4l0 -26.38c6.89,-2 11.95,-8.37 11.95,-15.9l0 -24.95 -9.2 0zm-100.67 57.17l-9.21 0 0 -10.3 9.21 0 0 10.3zm31.24 0l-9.21 0 0 -10.3 9.21 0 0 10.3z"/>
 </g>
</svg>
