<?xml version="1.0" encoding="UTF-8"?>
<!DOCTYPE svg PUBLIC "-//W3C//DTD SVG 1.1//EN" "http://www.w3.org/Graphics/SVG/1.1/DTD/svg11.dtd">
<!-- Creator: CorelDRAW -->
<svg xmlns="http://www.w3.org/2000/svg" xml:space="preserve" width="15mm" height="15mm" version="1.1" style="shape-rendering:geometricPrecision; text-rendering:geometricPrecision; image-rendering:optimizeQuality; fill-rule:evenodd; clip-rule:evenodd"
viewBox="0 0 1006.5 1006.5"
 xmlns:xlink="http://www.w3.org/1999/xlink"
 xmlns:xodm="http://www.corel.com/coreldraw/odm/2003">
 <defs>
  <style type="text/css">
   <![CDATA[
    .fil0 {fill:none}
    .fil1 {fill:white;fill-rule:nonzero}
   ]]>
  </style>
 </defs>
 <g id="Layer_x0020_1">
  <metadata id="CorelCorpID_0Corel-Layer"/>
  <circle class="fil0" cx="503.25" cy="503.25" r="503.25"/>
  <path class="fil1" d="M626.74 576.89c-26.89,18.86 -76.15,28.81 -123.49,28.81 -47.34,0 -96.6,-9.96 -123.49,-28.81l0 80.27c0,17.18 46.98,41.17 123.49,41.17 76.51,0 123.49,-23.98 123.49,-41.17l0 -80.27zm164.66 -267.57c-26.89,18.86 -76.15,28.82 -123.49,28.82 -47.34,0 -96.6,-9.96 -123.49,-28.82l0 62.26c54.54,6.7 102.07,26.75 102.82,58.47 6.88,0.4 13.78,0.71 20.67,0.71 76.51,0 123.49,-23.98 123.49,-41.17l0 -80.27zm-112.9 90.41c-3.5,0.15 -7.02,0.15 -10.59,0.15 -3.57,0 -7.09,0 -10.59,-0.15 -5.57,-0.16 -10,-4.72 -10,-10.29 0,-0.1 0,-0.21 0.01,-0.3 0.37,-5.59 4.99,-9.94 10.58,-9.99 6.6,0.2 13.38,0.2 19.99,0l0.3 -0.01c0.04,0.01 0.09,0 0.14,0 5.68,0 10.29,4.61 10.29,10.29 0,5.63 -4.52,10.21 -10.15,10.29l0.01 0zm74.7 -11.17c-10.55,3.08 -21.37,5.52 -32.22,7.19 -0.52,0.1 -1.07,0.14 -1.6,0.14 -0.01,0 -0.01,0 -0.02,0 -5.67,-0.02 -10.25,-4.62 -10.25,-10.29 0,-5.05 3.66,-9.35 8.64,-10.16 9.92,-1.54 19.86,-3.81 29.52,-6.64 0.97,-0.3 1.97,-0.45 2.97,-0.45 5.68,0 10.29,4.61 10.29,10.29 0,4.54 -2.98,8.55 -7.33,9.86l0 0.05zm38.2 -112.17c0,-22.73 -55.29,-41.17 -123.49,-41.17 -68.2,0 -123.49,18.43 -123.49,41.17 0,22.73 55.29,41.16 123.49,41.16 68.2,0 123.49,-18.43 123.49,-41.16zm-329.31 0c0,-22.73 -55.29,-41.17 -123.49,-41.17 -68.2,0 -123.49,18.43 -123.49,41.17 0,22.73 55.29,41.16 123.49,41.16 68.2,0 123.49,-18.43 123.49,-41.16zm-246.98 113.2c0,17.18 46.98,41.17 123.49,41.17 6.88,0 13.79,-0.31 20.67,-0.75 0.76,-31.76 48.29,-51.73 102.82,-58.47l0 -62.22c-26.89,18.86 -76.15,28.82 -123.49,28.82 -47.34,0 -96.6,-9.96 -123.49,-28.82l0 80.27zm113.2 -10.45l0.31 0c6.6,0.21 13.38,0.21 19.99,0 5.6,0.03 10.23,4.4 10.58,10 0,0.09 0,0.2 0,0.3 0,5.57 -4.43,10.13 -10,10.29 -3.5,0.15 -7.02,0.15 -10.59,0.15 -3.57,0 -7.09,0 -10.59,-0.15 -5.62,-0.08 -10.15,-4.66 -10.15,-10.29 0,-5.68 4.61,-10.29 10.29,-10.29 0.05,0 0.09,0.01 0.14,0.01l0.01 -0.01zm-81.88 -3.42c1.31,-4.35 5.31,-7.33 9.86,-7.33 1.01,0 2.01,0.15 2.97,0.44 9.67,2.85 19.61,5.12 29.55,6.66 4.97,0.81 8.62,5.11 8.62,10.15 0,5.68 -4.6,10.28 -10.27,10.29 -0.01,0 -0.01,0 -0.02,0 -0.54,0 -1.08,-0.05 -1.62,-0.13 -10.84,-1.68 -21.66,-4.13 -32.21,-7.21 -4.35,-1.3 -7.34,-5.31 -7.34,-9.86 0,-1.02 0.15,-2.04 0.46,-3.02l0.01 0zm-31.32 240.27c0,17.18 46.98,41.17 123.49,41.17 6.96,0 13.81,-0.29 20.59,-0.7l0 -92.63c-6.86,0.42 -13.73,0.7 -20.59,0.7 -47.34,0 -96.6,-9.96 -123.49,-28.82l0 80.27zm31.3 -13.86c1.31,-4.35 5.31,-7.33 9.86,-7.33 1,0 2,0.15 2.97,0.44 9.67,2.85 19.61,5.12 29.54,6.66 4.97,0.81 8.62,5.11 8.62,10.15 0,5.67 -4.59,10.27 -10.26,10.29 -0.01,0 -0.01,0 -0.02,0 -0.54,0 -1.08,-0.04 -1.62,-0.13 -10.84,-1.68 -21.66,-4.12 -32.21,-7.2 -4.35,-1.31 -7.34,-5.31 -7.34,-9.86 0,-1.03 0.15,-2.04 0.46,-3.02l-0.01 0zm380.34 -171.37c0,-22.73 -55.29,-41.17 -123.49,-41.17 -68.2,0 -123.49,18.43 -123.49,41.17 0,22.73 55.29,41.17 123.49,41.17 68.2,0 123.49,-18.43 123.49,-41.17zm-411.64 72.04c0,17.18 46.98,41.16 123.49,41.16 6.86,0 13.73,-0.3 20.59,-0.74l0 -92.62c-6.86,0.41 -13.73,0.7 -20.59,0.7 -47.34,0 -96.6,-9.96 -123.49,-28.81l0 80.31zm31.3 -13.86c1.31,-4.35 5.31,-7.33 9.86,-7.33 1,0 2,0.15 2.97,0.44 9.67,2.85 19.61,5.13 29.54,6.67 4.97,0.8 8.62,5.11 8.62,10.15 0,5.68 -4.59,10.28 -10.26,10.29 -0.01,0 -0.01,0 -0.02,0 -0.54,0 -1.08,-0.05 -1.62,-0.13 -10.84,-1.68 -21.66,-4.12 -32.21,-7.2 -4.35,-1.31 -7.34,-5.31 -7.34,-9.86 0,-1.02 0.15,-2.04 0.46,-3.01l-0.01 0zm380.34 -25.24c-26.89,18.85 -76.15,28.81 -123.49,28.81 -47.34,0 -96.6,-9.96 -123.49,-28.81l0 80.27c0,17.19 46.98,41.17 123.49,41.17 76.51,0 123.49,-23.97 123.49,-41.17l0 -80.27zm-174.94 86.62c-0.01,-0.01 -0.01,-0.01 -0.02,-0.01 -0.54,0 -1.09,-0.04 -1.62,-0.13 -10.84,-1.68 -21.66,-4.13 -32.21,-7.21 -4.35,-1.31 -7.33,-5.31 -7.33,-9.86 0,-5.68 4.61,-10.29 10.29,-10.29 1.01,0 2.01,0.15 2.97,0.44 9.67,2.85 19.61,5.12 29.54,6.66 4.84,0.91 8.36,5.16 8.36,10.1 0,5.57 -4.43,10.13 -9.98,10.29l0 0.01zm62.03 3.78c-3.5,0.1 -7.02,0.15 -10.6,0.15 -3.57,0 -7.09,-0.05 -10.59,-0.15 -5.62,-0.08 -10.15,-4.66 -10.15,-10.29 0,-5.68 4.61,-10.29 10.29,-10.29 0.05,0 0.1,0.01 0.14,0.01l0.31 0c6.6,0.2 13.38,0.2 19.99,0 5.6,0.03 10.24,4.4 10.6,9.99 0.01,0.09 0.01,0.2 0.01,0.3 0,5.57 -4.43,10.13 -10,10.29l-0.01 0zm74.71 -11.17c-10.55,3.08 -21.37,5.52 -32.22,7.19 -0.52,0.1 -1.07,0.14 -1.6,0.14 -0.01,0 -0.01,0 -0.02,0 -5.67,-0.02 -10.25,-4.62 -10.25,-10.29 0,-5.05 3.66,-9.35 8.64,-10.16 9.92,-1.54 19.87,-3.81 29.52,-6.64 0.97,-0.3 1.97,-0.45 2.97,-0.45 5.69,0 10.3,4.61 10.3,10.29 0,4.54 -2.99,8.55 -7.33,9.86l0 0.05zm-208.78 147.16l0 80.27c0,17.19 46.98,41.17 123.49,41.17 76.51,0 123.49,-23.97 123.49,-41.17l0 -80.27c-26.89,18.85 -76.15,28.81 -123.49,28.81 -47.34,0 -96.6,-9.96 -123.49,-28.81zm72.04 86.66c-0.01,0 -0.01,0 -0.02,0 -0.54,0 -1.09,-0.05 -1.62,-0.13 -10.84,-1.68 -21.66,-4.13 -32.21,-7.21 -4.35,-1.31 -7.33,-5.31 -7.33,-9.86 0,-5.68 4.61,-10.29 10.29,-10.29 1.01,0 2.01,0.15 2.97,0.44 9.67,2.85 19.61,5.12 29.54,6.66 4.76,0.98 8.19,5.19 8.19,10.07 0,5.5 -4.32,10.02 -9.81,10.28l0 0.05zm101.27 -20.45c9.92,-1.54 19.86,-3.81 29.52,-6.64 0.97,-0.3 1.97,-0.45 2.98,-0.45 5.68,0 10.29,4.61 10.29,10.29 0,4.54 -2.98,8.56 -7.33,9.86 -10.55,3.09 -21.38,5.52 -32.23,7.2 -0.52,0.09 -1.06,0.14 -1.6,0.14 -0.01,0 -0.01,0 -0.02,0 -5.67,-0.02 -10.25,-4.62 -10.25,-10.29 0,-5.05 3.66,-9.35 8.64,-10.16l0 0.05zm-29.24 13.61c0.01,0.09 0.01,0.2 0.01,0.3 0,5.57 -4.43,10.13 -10,10.29 -3.5,0.15 -7.02,0.15 -10.59,0.15 -3.57,0 -7.09,-0.05 -10.59,-0.15 -5.63,-0.08 -10.15,-4.66 -10.15,-10.29 0,-5.68 4.61,-10.29 10.29,-10.29 0.05,0 0.1,0.01 0.15,0.01l0.31 0c6.6,0.2 13.38,0.2 19.98,0 5.6,0.05 10.21,4.41 10.59,9.99l0 0zm267.57 -347.38c-26.89,18.86 -76.15,28.81 -123.49,28.81 -6.86,0 -13.73,-0.29 -20.59,-0.7l0 92.62c6.86,0.44 13.73,0.74 20.59,0.74 76.51,0 123.49,-23.98 123.49,-41.17l0 -80.31zm-38.2 79.24c-10.55,3.09 -21.37,5.52 -32.22,7.2 -0.52,0.09 -1.07,0.14 -1.6,0.14 -0.01,0 -0.01,0 -0.02,0 -5.67,-0.02 -10.25,-4.62 -10.25,-10.29 0,-5.05 3.66,-9.35 8.64,-10.16 9.92,-1.53 19.86,-3.8 29.52,-6.64 0.97,-0.3 1.97,-0.45 2.97,-0.45 5.68,0 10.29,4.61 10.29,10.29 0,4.55 -2.98,8.56 -7.33,9.86l0 0.05zm38.2 33.96c-26.89,18.86 -76.15,28.82 -123.49,28.82 -6.86,0 -13.73,-0.29 -20.59,-0.7l0 92.63c6.78,0.41 13.63,0.7 20.59,0.7 76.51,0 123.49,-23.98 123.49,-41.17l0 -80.27zm-38.2 79.25c-10.55,3.08 -21.37,5.52 -32.22,7.19 -0.52,0.1 -1.07,0.14 -1.6,0.14 -0.01,0 -0.01,0 -0.02,0 -5.67,-0.02 -10.25,-4.62 -10.25,-10.29 0,-5.04 3.66,-9.35 8.64,-10.15 9.92,-1.54 19.86,-3.81 29.52,-6.65 0.97,-0.3 1.97,-0.45 2.97,-0.45 5.68,0 10.29,4.61 10.29,10.3 0,4.54 -2.98,8.55 -7.33,9.86l0 0.05zm-301.4 48.54c-0.01,0 -0.01,0 -0.02,0 -0.54,0 -1.09,-0.05 -1.62,-0.13 -10.84,-1.68 -21.66,-4.12 -32.21,-7.2 -4.35,-1.31 -7.33,-5.32 -7.33,-9.86 0,-5.68 4.61,-10.29 10.29,-10.29 1.01,0 2.01,0.15 2.97,0.44 9.67,2.85 19.61,5.12 29.54,6.66 4.84,0.91 8.36,5.16 8.36,10.11 0,5.56 -4.43,10.13 -9.98,10.29l0 0zm62.03 3.78c-3.49,0.15 -7.01,0.15 -10.58,0.15 -3.57,0 -7.09,-0.05 -10.59,-0.15 -5.63,-0.07 -10.15,-4.66 -10.15,-10.29 0,-5.68 4.61,-10.29 10.29,-10.29 0.05,0 0.1,0 0.15,0l0.31 0c6.6,0.21 13.38,0.21 19.98,0 5.6,0.04 10.23,4.4 10.59,9.99 0.01,0.1 0.01,0.2 0.01,0.3 0,5.57 -4.43,10.13 -10,10.29l-0.01 0zm74.71 -11.17c-10.55,3.09 -21.37,5.52 -32.22,7.2 -0.52,0.09 -1.07,0.14 -1.6,0.14 -0.01,0 -0.01,0 -0.02,0 -5.67,-0.02 -10.25,-4.62 -10.25,-10.29 0,-5.05 3.66,-9.35 8.64,-10.16 9.92,-1.54 19.87,-3.8 29.52,-6.64 0.97,-0.3 1.97,-0.45 2.97,-0.45 5.69,0 10.3,4.61 10.3,10.29 0,4.54 -2.99,8.56 -7.33,9.86l0 0.05z"/>
 </g>
</svg>
