<?xml version="1.0" encoding="UTF-8"?>
<!DOCTYPE svg PUBLIC "-//W3C//DTD SVG 1.1//EN" "http://www.w3.org/Graphics/SVG/1.1/DTD/svg11.dtd">
<!-- Creator: CorelDRAW -->
<svg xmlns="http://www.w3.org/2000/svg" xml:space="preserve" width="15mm" height="15mm" version="1.1" style="shape-rendering:geometricPrecision; text-rendering:geometricPrecision; image-rendering:optimizeQuality; fill-rule:evenodd; clip-rule:evenodd"
viewBox="0 0 1440.55 1440.55"
 xmlns:xlink="http://www.w3.org/1999/xlink"
 xmlns:xodm="http://www.corel.com/coreldraw/odm/2003">
 <defs>
  <style type="text/css">
   <![CDATA[
    .fil0 {fill:none}
    .fil1 {fill:white;fill-rule:nonzero}
   ]]>
  </style>
 </defs>
 <g id="Layer_x0020_1">
  <metadata id="CorelCorpID_0Corel-Layer"/>
  <circle class="fil0" cx="720.28" cy="720.28" r="720.28"/>
  <g id="Articulated_Robot" data-name="Articulated Robot">
   <path class="fil1" d="M733.41 889.59c0,0 0,-0.01 0,-0.01 0,-29.02 -23.53,-52.55 -52.54,-52.55 0,0 -0.02,0 -0.02,0l-262.82 0c0,0 -0.01,0 -0.01,0 -29.02,0 -52.55,23.53 -52.55,52.55 0,0 0,0.01 0,0.01l0 0.79c4.31,-0.51 8.69,-0.79 13.05,-0.79 0.03,0 0.07,0 0.1,0l354.8 0z"/>
   <path class="fil1" d="M772.84 390.23c7.26,0 13.15,-5.89 13.15,-13.14 0,-7.26 -5.89,-13.15 -13.15,-13.15 -4.13,0 -8.03,1.95 -10.51,5.26 0,0.12 -0.13,0.12 -0.13,0.26l-0.26 0.26c-1.46,2.13 -2.24,4.66 -2.24,7.23 0,0.05 0,0.09 0,0.13 0.02,7.24 5.9,13.12 13.14,13.14l0 0z"/>
   <path class="fil1" d="M663.77 422.69l-146.78 204.08 98.16 0c39.14,0.01 72.35,28.8 77.93,67.54l93.43 -199.75c-4.51,0.52 -9.09,0.8 -13.64,0.8 -47.69,0 -90.73,-28.67 -109.1,-72.67l-0.01 0zm9.2 150.86l-15.63 26.54c-2.34,3.99 -6.63,6.43 -11.26,6.43 -0.01,0 -0.03,0 -0.05,0 -0.02,0 -0.05,0 -0.07,0 -2.31,0 -4.6,-0.59 -6.64,-1.71 -3.98,-2.39 -6.41,-6.69 -6.41,-11.33 0,-2.34 0.62,-4.65 1.81,-6.67l15.51 -26.54c2.34,-4.04 6.67,-6.54 11.35,-6.54 2.33,0 4.64,0.63 6.65,1.82 4.01,2.42 6.46,6.75 6.46,11.44 0,2.3 -0.6,4.56 -1.73,6.57l0 0zm27.2 -46.52l-8.28 14.06c-2.36,3.99 -6.66,6.43 -11.29,6.43 -0.05,0 -0.1,0 -0.14,0 -2.27,0 -4.5,-0.63 -6.43,-1.83 -4.04,-2.35 -6.54,-6.67 -6.54,-11.35 0,-2.34 0.62,-4.64 1.82,-6.66l8.28 -13.93c2.3,-4.05 6.61,-6.55 11.27,-6.55 2.32,0 4.61,0.63 6.61,1.82 4.04,2.34 6.54,6.67 6.54,11.35 0,2.33 -0.62,4.64 -1.82,6.66l0 0z"/>
   <path class="fil1" d="M943.68 679.34c0.07,10.81 2.86,21.45 8.09,30.91l-29.64 24.68c-3,2.51 -4.73,6.2 -4.73,10.1l0 52.57c0,7.25 5.89,13.14 13.14,13.14 7.26,0 13.15,-5.89 13.15,-13.14l0 -46.41 24.92 -20.76c8.01,6.55 17.52,11.12 27.64,13.27l0 27.61c0,7.26 5.89,13.14 13.15,13.14 7.25,0 13.14,-5.88 13.14,-13.14l0 -27.61c10.12,-2.15 19.63,-6.72 27.64,-13.27l24.92 20.76 0 46.41c0,7.25 5.89,13.14 13.15,13.14 7.25,0 13.14,-5.89 13.14,-13.14l0 -52.57c0,-3.9 -1.74,-7.6 -4.73,-10.09l-29.65 -24.69c5.22,-9.47 8.02,-20.1 8.09,-30.91 0,-36.28 -29.43,-65.71 -65.7,-65.71 -36.28,0 -65.71,29.43 -65.71,65.71l0 0z"/>
   <path class="fil1" d="M819.63 485.63l-17.08 36.67 120.24 126.29c11.85,-33.57 42.1,-57.27 77.54,-60.71l-113.81 -178.46c-9.73,34.13 -34.29,62.14 -66.88,76.21l0 0z"/>
   <path class="fil1" d="M1006.23 548.05c11.37,-7.19 18.27,-19.73 18.27,-33.18 0,-0.02 0,-0.05 0,-0.07 0,-0.05 0,-0.1 0,-0.14 0,-7.45 -2.14,-14.75 -6.18,-21.01l-42.45 -66.5c-7.22,-11.37 -19.76,-18.26 -33.24,-18.26 -7.5,0 -14.85,2.14 -21.17,6.17l-0.12 0.13 84.75 132.99 0.13 -0.13z"/>
   <path class="fil1" d="M568.01 713.32l-0.02 -0.02c-4.92,-4.93 -11.59,-7.69 -18.54,-7.69 -6.96,0 -13.64,2.77 -18.55,7.69l-0.02 0.02 -0.03 0.02c-4.92,4.92 -7.68,11.59 -7.68,18.55 0,6.96 2.77,13.64 7.68,18.55l0.03 0.02 0.02 0.02c4.92,4.93 11.59,7.69 18.55,7.69 6.95,0 13.63,-2.77 18.54,-7.69l0.02 -0.02 0.03 -0.02c4.92,-4.92 7.68,-11.59 7.68,-18.55 0,-6.96 -2.77,-13.64 -7.68,-18.55l-0.03 -0.02z"/>
   <path class="fil1" d="M667.72 705.61c0,0 0,-0.01 0,-0.01 0,-29.02 -23.54,-52.55 -52.55,-52.55 0,0 -0.01,0 -0.01,0l-131.42 0c-9.25,0.04 -18.33,2.56 -26.29,7.29l0 -95.45 162.08 -254.57c2.86,0.69 5.8,1.05 8.75,1.07 7.95,-0.07 15.72,-2.45 22.35,-6.84l40.86 29.7c-6.98,13.08 -10.64,27.71 -10.64,42.54 0,0.09 0,0.21 0,0.3 0,0.06 0,0.13 0,0.19 0,50.9 41.28,92.19 92.19,92.19 50.9,0 92.18,-41.29 92.18,-92.19 0,-50.9 -41.28,-92.19 -92.18,-92.19 -24.86,0 -48.69,10.06 -66.03,27.86l-41 -29.83c1.12,-3.51 1.71,-7.18 1.71,-10.87 0,-0.1 0,-0.2 0,-0.3 0,-21.77 -17.66,-39.42 -39.42,-39.42 -21.77,0 -39.42,17.65 -39.42,39.42 0.04,8.78 3.05,17.31 8.54,24.16l-164.18 257.89c-1.33,2.1 -2.06,4.55 -2.06,7.05 0,0 0,0 0,0l0 249.69 236.55 0 0 -105.13zm105.12 -367.95c21.77,0 39.42,17.65 39.42,39.42 0,21.77 -17.65,39.42 -39.42,39.42 -21.76,0 -39.42,-17.65 -39.42,-39.42 0.07,-21.75 17.68,-39.37 39.42,-39.42l0 0zm-170.83 394.23c-0.05,9.35 -2.62,18.53 -7.45,26.53l3.6 3.6c2.5,2.46 3.91,5.83 3.91,9.34 0,7.26 -5.89,13.14 -13.14,13.14 -3.51,0 -6.89,-1.4 -9.35,-3.91l-3.59 -3.59c-7.99,4.87 -17.18,7.44 -26.53,7.44 -9.36,0 -18.55,-2.57 -26.54,-7.44l-3.59 3.6c-2.46,2.42 -5.78,3.78 -9.23,3.78 -7.26,0 -13.15,-5.89 -13.15,-13.14 0,-3.46 1.36,-6.77 3.79,-9.23l3.6 -3.6c-4.87,-7.99 -7.45,-17.18 -7.45,-26.53 0,-9.35 2.58,-18.54 7.45,-26.53l-3.6 -3.6c-2.41,-2.45 -3.76,-5.76 -3.76,-9.2 0,-7.26 5.89,-13.14 13.14,-13.14 3.45,0 6.75,1.35 9.21,3.76l3.6 3.59c7.98,-4.87 17.17,-7.44 26.53,-7.44 9.35,0 18.54,2.57 26.53,7.44l3.59 -3.6c2.46,-2.42 5.78,-3.78 9.24,-3.78 7.25,0 13.14,5.88 13.14,13.14 0,3.46 -1.36,6.77 -3.79,9.23l-3.6 3.6c4.83,8.01 7.4,17.18 7.45,26.53l0 0z"/>
   <path class="fil1" d="M1061.95 915.87l-683.34 0c-43.53,0 -78.85,35.3 -78.85,78.85 0,43.53 35.31,78.85 78.85,78.85l683.34 0c43.53,0 78.85,-35.31 78.85,-78.85 0,-43.54 -35.31,-78.85 -78.85,-78.85l0 0zm-643.92 91.98c0,7.26 -5.89,13.15 -13.14,13.15 -7.26,0 -13.15,-5.89 -13.15,-13.15l0 -26.28c0,-7.26 5.89,-13.15 13.15,-13.15 7.25,0 13.14,5.89 13.14,13.15l0 26.28zm105.13 0c0,7.26 -5.89,13.15 -13.14,13.15 -7.26,0 -13.15,-5.89 -13.15,-13.15l0 -26.28c0,-7.26 5.89,-13.15 13.15,-13.15 7.25,0 13.14,5.89 13.14,13.15l0 26.28zm105.13 0c0,7.26 -5.89,13.15 -13.15,13.15 -7.25,0 -13.14,-5.89 -13.14,-13.15l0 -26.28c0,-7.26 5.89,-13.15 13.14,-13.15 7.26,0 13.15,5.89 13.15,13.15l0 26.28zm105.12 0c0,7.26 -5.88,13.15 -13.14,13.15 -7.26,0 -13.14,-5.89 -13.14,-13.15l0 -26.28c0,-7.26 5.88,-13.15 13.14,-13.15 7.26,0 13.14,5.89 13.14,13.15l0 26.28zm105.13 0c0,7.26 -5.89,13.15 -13.14,13.15 -7.26,0 -13.15,-5.89 -13.15,-13.15l0 -26.28c0,-7.26 5.89,-13.15 13.15,-13.15 7.25,0 13.14,5.89 13.14,13.15l0 26.28zm105.13 0c0,7.26 -5.89,13.15 -13.15,13.15 -7.25,0 -13.14,-5.89 -13.14,-13.15l0 -26.28c0,-7.26 5.89,-13.15 13.14,-13.15 7.26,0 13.15,5.89 13.15,13.15l0 26.28zm105.13 0c0,7.26 -5.89,13.15 -13.15,13.15 -7.25,0 -13.14,-5.89 -13.14,-13.15l0 -26.28c0,-7.26 5.89,-13.15 13.14,-13.15 7.26,0 13.15,5.89 13.15,13.15l0 26.28z"/>
  </g>
 </g>
</svg>
