<?xml version="1.0" encoding="UTF-8"?>
<!DOCTYPE svg PUBLIC "-//W3C//DTD SVG 1.1//EN" "http://www.w3.org/Graphics/SVG/1.1/DTD/svg11.dtd">
<!-- Creator: CorelDRAW -->
<svg xmlns="http://www.w3.org/2000/svg" xml:space="preserve" width="15mm" height="15mm" version="1.1" style="shape-rendering:geometricPrecision; text-rendering:geometricPrecision; image-rendering:optimizeQuality; fill-rule:evenodd; clip-rule:evenodd"
viewBox="0 0 410.31 410.31"
 xmlns:xlink="http://www.w3.org/1999/xlink"
 xmlns:xodm="http://www.corel.com/coreldraw/odm/2003">
 <defs>
  <style type="text/css">
   <![CDATA[
    .fil0 {fill:none}
    .fil1 {fill:white;fill-rule:nonzero}
   ]]>
  </style>
 </defs>
 <g id="Layer_x0020_1">
  <metadata id="CorelCorpID_0Corel-Layer"/>
  <circle class="fil0" cx="205.15" cy="205.15" r="205.15"/>
  <path class="fil1" d="M185.74 269.69l12.94 0 0 35.59 -12.94 0 0 -35.59zm-91.02 -154.5l0 190.08 46.23 0 0 -176.93 -46.23 -13.15zm16.63 43.18l12.94 0 0 12.94 -12.94 0 0 -12.94zm12.95 100.57l-12.94 0 0 -12.94 12.94 0 0 12.94zm0 -29.21l-12.94 0 0 -12.94 12.94 0 0 12.94zm0.08 -29.21l-12.94 0 0 -12.94 12.94 0 0 12.94zm145.27 -73.23l45.92 0 0 20.75 -45.92 0 0 -20.75zm-0.1 33.69l0 144.29 46.01 0 0 -144.29 -46.01 0zm16.41 26.56l12.94 0 0 12.94 -12.94 0 0 -12.94zm12.94 71.36l-12.94 0 0 -12.94 12.94 0 0 12.94zm0.18 -29.21l-12.94 0 0 -12.94 12.94 0 0 12.94zm-143.99 -124.67l0 200.25 17.7 0 0 -48.53 64.71 0 0 48.53 19.11 0 0 -200.25 -101.52 0zm30.64 132.31l-12.94 0 0 -27.5 12.94 0 0 27.5zm0 -40.44l-12.94 0 0 -27.5 12.94 0 0 27.5zm0 -40.44l-12.94 0 0 -27.5 12.94 0 0 27.5zm25.89 80.88l-12.94 0 0 -27.5 12.94 0 0 27.5zm0 -40.44l-12.94 0 0 -27.5 12.94 0 0 27.5zm0 -40.44l-12.94 0 0 -27.5 12.94 0 0 27.5zm25.88 80.88l-12.94 0 0 -27.5 12.94 0 0 27.5zm0 -40.44l-12.94 0 0 -27.5 12.94 0 0 27.5zm0 -40.44l-12.94 0 0 -27.5 12.94 0 0 27.5zm-25.88 113.24l12.94 0 0 35.59 -12.94 0 0 -35.59z"/>
 </g>
</svg>
