<?xml version="1.0" encoding="UTF-8"?>
<!DOCTYPE svg PUBLIC "-//W3C//DTD SVG 1.1//EN" "http://www.w3.org/Graphics/SVG/1.1/DTD/svg11.dtd">
<!-- Creator: CorelDRAW -->
<svg xmlns="http://www.w3.org/2000/svg" xml:space="preserve" width="15mm" height="15mm" version="1.1" style="shape-rendering:geometricPrecision; text-rendering:geometricPrecision; image-rendering:optimizeQuality; fill-rule:evenodd; clip-rule:evenodd"
viewBox="0 0 1006.5 1006.5"
 xmlns:xlink="http://www.w3.org/1999/xlink"
 xmlns:xodm="http://www.corel.com/coreldraw/odm/2003">
 <defs>
  <style type="text/css">
   <![CDATA[
    .fil0 {fill:none}
    .fil1 {fill:white;fill-rule:nonzero}
   ]]>
  </style>
 </defs>
 <g id="Layer_x0020_1">
  <metadata id="CorelCorpID_0Corel-Layer"/>
  <circle class="fil0" cx="503.25" cy="503.25" r="503.25"/>
  <path class="fil1" d="M481.06 736.24c0,-24.52 -19.87,-44.39 -44.39,-44.39 -24.52,0 -44.39,19.88 -44.39,44.39 0,24.51 19.87,44.39 44.39,44.39 24.52,0 44.39,-19.88 44.39,-44.39zm288.06 -57.81l-58.69 0c9.94,8.92 17.56,20.35 21.87,33.29l37.28 0c9.46,0 17.08,-7.89 16.63,-17.45 -0.42,-8.96 -8.13,-15.84 -17.1,-15.84l0 0zm-258.76 33.29l74.56 0c4.31,-12.94 11.94,-24.37 21.87,-33.29l-118.31 0c9.94,8.92 17.56,20.35 21.87,33.29zm-156.92 -61.03c0,-15.32 12.42,-27.74 27.75,-27.74l344.01 0c8.05,0 14.94,-5.76 16.38,-13.67l44.39 -244.14c1.86,-10.22 -5.99,-19.63 -16.38,-19.63l-396.7 0 -15.67 -86.2c-1.09,-6.05 -5.44,-11 -11.29,-12.88l-103.47 -33.15c-8.54,-2.74 -17.98,1.47 -21.11,9.87 -3.35,8.96 1.5,18.8 10.51,21.69l94.4 30.25 57.18 314.56 -2.24 0c-33.71,0 -61.03,27.33 -61.03,61.03 0,27.69 18.44,51.05 43.7,58.52 4.44,-11.91 11.71,-22.45 21,-30.78l-3.67 0c-15.33,0 -27.75,-12.42 -27.75,-27.75zm314.76 -112.78l12.1 -110.97c0.99,-9.14 9.21,-15.74 18.35,-14.74 9.14,0.99 15.74,9.21 14.74,18.35l-12.1 110.97c-1,9.14 -9.21,15.74 -18.35,14.74 -9.14,-0.99 -15.74,-9.21 -14.74,-18.35zm-76.36 -109.78c0.34,-9.19 8.05,-16.36 17.24,-16.02l0.01 -0.01c9.19,0.34 16.36,8.05 16.03,17.24l-4.04 110.97c-0.34,9.19 -8.05,16.37 -17.24,16.03l0 0c-9.19,-0.34 -16.37,-8.05 -16.03,-17.24l4.03 -110.98zm-72.34 -16.02c9.19,-0.34 16.9,6.84 17.24,16.03l4.03 110.97c0.34,9.19 -6.84,16.91 -16.03,17.24l0 0c-9.19,0.34 -16.9,-6.84 -17.24,-16.03l-4.03 -110.97c-0.34,-9.19 6.84,-16.91 16.03,-17.24l0 0zm-89.58 0.09c9.14,-1 17.36,5.6 18.35,14.74l12.11 110.97c0.99,9.14 -5.6,17.36 -14.75,18.35 -9.13,1 -17.35,-5.6 -18.35,-14.74l-12.1 -110.97c-0.99,-9.14 5.6,-17.36 14.74,-18.35zm273.08 324.05c0,-24.52 -19.88,-44.39 -44.39,-44.39 -24.52,0 -44.39,19.88 -44.39,44.39 0,24.51 19.88,44.39 44.39,44.39 24.51,0 44.39,-19.88 44.39,-44.39z"/>
 </g>
</svg>
