<svg width="57" height="57" viewBox="0 0 57 57" fill="none" xmlns="http://www.w3.org/2000/svg">
<g clip-path="url(#clip0_4623_6)">
<path d="M13.6855 15.7578H14.869V16.9419H13.6855V15.7578Z" fill="white"/>
<path d="M16.0547 15.7578H17.2388V16.9419H16.0547V15.7578Z" fill="white"/>
<path d="M18.4219 15.7578H19.606V16.9419H18.4219V15.7578Z" fill="white"/>
<path d="M13.6861 41.8044H24.1236L23.8015 45.3561H21.9738V46.5401H34.9977V45.3561H33.1706L32.8477 41.8044H43.2859C44.5924 41.803 45.6527 40.7433 45.6535 39.4362V26.4122H44.4694V35.8845H12.5024V19.3083H27.8938V18.125H12.5024V15.7568C12.5032 15.1028 13.0327 14.5735 13.6865 14.5728H32.0379V13.3887H13.6865C12.3794 13.39 11.3197 14.4498 11.3184 15.7568V39.4364C11.3197 40.7435 12.3794 41.8032 13.6865 41.8046L13.6861 41.8044ZM31.981 45.3561H24.9897L25.3126 41.8044H31.6579L31.9808 45.3561H31.981ZM44.4689 37.0678V39.436C44.4681 40.0901 43.9386 40.6193 43.2856 40.6201H13.6861C13.0321 40.6193 12.5028 40.0899 12.5021 39.436V37.0678H44.4691H44.4689Z" fill="white"/>
<path d="M27.8926 38.252H29.0767V39.4362H27.8926V38.252Z" fill="white"/>
<path d="M37.9579 24.0455C39.919 24.0455 41.5096 22.455 41.5096 20.4931C41.5096 18.532 39.919 16.9414 37.9579 16.9414C35.9968 16.9414 34.4062 18.532 34.4062 20.4931C34.4076 22.4534 35.9976 24.0432 37.9579 24.0455ZM37.9579 18.1257C39.2658 18.1257 40.3261 19.186 40.3261 20.4933C40.3261 21.8011 39.2658 22.8614 37.9579 22.8614C36.6501 22.8614 35.5897 21.8011 35.5897 20.4933C35.5911 19.1862 36.6508 18.1265 37.9579 18.1257Z" fill="white"/>
<path d="M30.4959 15.6734C30.4857 15.6726 30.4753 15.6726 30.4651 15.6726C30.2255 15.6726 30.0103 15.8168 29.9187 16.0381L29.1234 17.9582C29.0934 18.03 29.0781 18.1077 29.0781 18.1852C29.0781 18.3521 29.1491 18.5126 29.2737 18.6246L30.7273 19.9368V21.0485L29.2737 22.3615C29.1491 22.4735 29.0781 22.6332 29.0781 22.8009C29.0781 22.8786 29.0934 22.9555 29.1234 23.0271L29.9187 24.948C30.0103 25.1691 30.2263 25.3135 30.4658 25.3135C30.4754 25.3135 30.4857 25.3127 30.4959 25.3127L32.4525 25.2124L33.2381 25.9989L33.1379 27.9549C33.1379 27.9651 33.1371 27.9755 33.1371 27.9857C33.1371 28.2244 33.2813 28.4404 33.5026 28.532L35.4235 29.3281C35.4953 29.3573 35.5722 29.3728 35.6496 29.3728C35.8174 29.3728 35.9771 29.3018 36.0891 29.178L37.402 27.7236H38.5137L39.8259 29.178C39.9387 29.3018 40.0984 29.3728 40.2661 29.3728C40.3438 29.3728 40.4207 29.3575 40.4923 29.3281L42.4132 28.532C42.6337 28.4404 42.7787 28.2244 42.7787 27.9857C42.7787 27.9755 42.7779 27.9651 42.7779 27.9549L42.6777 25.9983L43.4633 25.2126L45.4199 25.3129C45.4301 25.3136 45.4405 25.3136 45.4515 25.3136C45.6902 25.3136 45.9062 25.1695 45.9971 24.9482L46.7923 23.0273C46.8224 22.9555 46.8377 22.8786 46.8377 22.8011C46.8377 22.6334 46.7666 22.4737 46.6421 22.3617L45.1884 21.0487V19.937L46.6421 18.6248C46.7666 18.5128 46.8377 18.3523 46.8377 18.1854C46.8377 18.1077 46.8224 18.0302 46.7923 17.9584L45.9971 16.0383C45.9055 15.8172 45.6895 15.6728 45.4499 15.6728C45.4403 15.6728 45.4301 15.6728 45.4199 15.6736L43.4633 15.7733L42.6777 14.9876L42.7779 13.031C42.7779 13.0214 42.7787 13.0112 42.7787 13.001C42.7787 12.7615 42.6337 12.5455 42.4132 12.4539L40.4923 11.6586C40.4205 11.6286 40.3436 11.6133 40.2661 11.6133C40.0984 11.6133 39.9387 11.6843 39.8259 11.8089L38.5137 13.2625L37.402 13.2633L36.0891 11.8089C35.9771 11.6843 35.8174 11.6133 35.6496 11.6133C35.572 11.6133 35.4951 11.6286 35.4235 11.6586L33.5033 12.4539C33.2823 12.5455 33.1379 12.7615 33.1379 13.001C33.1379 13.0112 33.1379 13.0216 33.1387 13.031L33.2383 14.9876L32.4527 15.7733L30.496 15.6736L30.4959 15.6734ZM33.1035 16.7961L34.2613 15.6383C34.3726 15.5277 34.435 15.3768 34.435 15.2201C34.435 15.2099 34.435 15.1995 34.4342 15.1893L34.342 13.3878L35.4909 12.9119L36.6999 14.2514C36.812 14.3752 36.9716 14.4462 37.1394 14.4462H38.7768C38.9445 14.4462 39.1042 14.3752 39.2162 14.2514L40.4252 12.9119L41.5742 13.3873L41.482 15.1895C41.4812 15.1997 41.4812 15.2093 41.4812 15.2195C41.4812 15.377 41.5434 15.5271 41.654 15.6383L42.8126 16.7961C42.9239 16.9073 43.0741 16.9697 43.2314 16.9697C43.2416 16.9697 43.2513 16.9697 43.2615 16.9689L45.0629 16.8767L45.5388 18.0257L44.2001 19.2347C44.0756 19.3467 44.0046 19.5072 44.0046 19.6741V21.3124C44.0046 21.4793 44.0756 21.639 44.1994 21.751L45.5394 22.96L45.0635 24.109L43.2613 24.0168C43.2511 24.016 43.2407 24.016 43.2313 24.016C43.0737 24.016 42.9237 24.0782 42.8124 24.1896L41.6546 25.3474C41.5434 25.4586 41.481 25.6089 41.481 25.7662C41.481 25.7758 41.481 25.786 41.4818 25.7962L41.574 27.5984L40.425 28.0738L39.216 26.7351C39.104 26.6105 38.9435 26.5395 38.7766 26.5395H37.1392C36.9714 26.5395 36.8118 26.6105 36.6997 26.7351L35.4907 28.0746L34.3418 27.5986L34.434 25.7964C34.4348 25.7868 34.4348 25.7766 34.4348 25.7664C34.4348 25.6097 34.3726 25.4588 34.2612 25.3482L33.1034 24.1896C32.9921 24.0789 32.8413 24.016 32.6845 24.016C32.6743 24.016 32.6647 24.0168 32.6545 24.0168L30.8531 24.109L30.3772 22.96L31.7158 21.751C31.8404 21.639 31.9114 21.4793 31.9114 21.3116V19.6741C31.9114 19.5064 31.8404 19.3467 31.7158 19.2347L30.3764 18.0257L30.8523 16.8775L32.6545 16.9691C32.6641 16.9699 32.6743 16.9699 32.6845 16.9699C32.8421 16.9699 32.9921 16.9077 33.1034 16.7963L33.1035 16.7961Z" fill="white"/>
<path d="M17.8288 21.6776C17.8288 21.351 17.5638 21.0859 17.2372 21.0859H14.869C14.5424 21.0859 14.2773 21.351 14.2773 21.6776V24.0458C14.2773 24.3724 14.5424 24.6374 14.869 24.6374H17.2372C17.5638 24.6374 17.8288 24.3724 17.8288 24.0458V21.6776ZM16.6455 23.4533H15.4614V22.2692H16.6455V23.4533Z" fill="white"/>
<path d="M22.5661 21.6776C22.5661 21.351 22.3011 21.0859 21.9737 21.0859H19.6061C19.2787 21.0859 19.0137 21.351 19.0137 21.6776V24.0458C19.0137 24.3724 19.2787 24.6374 19.6061 24.6374H21.9737C22.3011 24.6374 22.5661 24.3724 22.5661 24.0458V21.6776ZM21.382 23.4533H20.198V22.2692H21.382V23.4533Z" fill="white"/>
<path d="M27.3025 21.6776C27.3025 21.351 27.0374 21.0859 26.71 21.0859H24.3424C24.015 21.0859 23.75 21.351 23.75 21.6776V24.0458C23.75 24.3724 24.015 24.6374 24.3424 24.6374H26.71C27.0374 24.6374 27.3025 24.3724 27.3025 24.0458V21.6776ZM26.1184 23.4533H24.9343V22.2692H26.1184V23.4533Z" fill="white"/>
<path d="M17.8288 26.412C17.8288 26.0853 17.5638 25.8203 17.2372 25.8203H14.869C14.5424 25.8203 14.2773 26.0853 14.2773 26.412V28.7801C14.2773 29.1068 14.5424 29.3718 14.869 29.3718H17.2372C17.5638 29.3718 17.8288 29.1068 17.8288 28.7801V26.412ZM16.6455 28.1877H15.4614V27.0044H16.6455V28.1877Z" fill="white"/>
<path d="M22.5661 26.412C22.5661 26.0853 22.3011 25.8203 21.9737 25.8203H19.6061C19.2787 25.8203 19.0137 26.0853 19.0137 26.412V28.7801C19.0137 29.1068 19.2787 29.3718 19.6061 29.3718H21.9737C22.3011 29.3718 22.5661 29.1068 22.5661 28.7801V26.412ZM21.382 28.1877H20.198V27.0044H21.382V28.1877Z" fill="white"/>
<path d="M27.3025 26.412C27.3025 26.0853 27.0374 25.8203 26.71 25.8203H24.3424C24.015 25.8203 23.75 26.0853 23.75 26.412V28.7801C23.75 29.1068 24.015 29.3718 24.3424 29.3718H26.71C27.0374 29.3718 27.3025 29.1068 27.3025 28.7801V26.412ZM26.1184 28.1877H24.9343V27.0044H26.1184V28.1877Z" fill="white"/>
<path d="M17.2372 30.5566H14.869C14.5424 30.5566 14.2773 30.8217 14.2773 31.1483V33.5165C14.2773 33.8431 14.5424 34.1081 14.869 34.1081H17.2372C17.5638 34.1081 17.8288 33.8431 17.8288 33.5165V31.1483C17.8288 30.8217 17.5638 30.5566 17.2372 30.5566ZM16.6455 32.9248H15.4614V31.7407H16.6455V32.9248Z" fill="white"/>
<path d="M21.9737 30.5566H19.6061C19.2787 30.5566 19.0137 30.8217 19.0137 31.1483V33.5165C19.0137 33.8431 19.2787 34.1081 19.6061 34.1081H21.9737C22.3011 34.1081 22.5661 33.8431 22.5661 33.5165V31.1483C22.5661 30.8217 22.3011 30.5566 21.9737 30.5566ZM21.382 32.9248H20.198V31.7407H21.382V32.9248Z" fill="white"/>
<path d="M26.71 30.5566H24.3424C24.015 30.5566 23.75 30.8217 23.75 31.1483V33.5165C23.75 33.8431 24.015 34.1081 24.3424 34.1081H26.71C27.0374 34.1081 27.3025 33.8431 27.3025 33.5165V31.1483C27.3025 30.8217 27.0374 30.5566 26.71 30.5566ZM26.1184 32.9248H24.9343V31.7407H26.1184V32.9248Z" fill="white"/>
<path d="M30.2617 30.5566H31.4458V31.7407H30.2617V30.5566Z" fill="white"/>
<path d="M32.6289 30.5566H42.6929V31.7407H32.6289V30.5566Z" fill="white"/>
<path d="M29.0781 32.9258H40.3264V34.1093H29.0781V32.9258Z" fill="white"/>
</g>
<defs>
<clipPath id="clip0_4623_6">
<rect width="56.69" height="56.69" fill="white"/>
</clipPath>
</defs>
</svg>
