<?xml version="1.0" encoding="UTF-8"?>
<!DOCTYPE svg PUBLIC "-//W3C//DTD SVG 1.1//EN" "http://www.w3.org/Graphics/SVG/1.1/DTD/svg11.dtd">
<!-- Creator: CorelDRAW -->
<svg xmlns="http://www.w3.org/2000/svg" xml:space="preserve" width="15mm" height="15mm" version="1.1" style="shape-rendering:geometricPrecision; text-rendering:geometricPrecision; image-rendering:optimizeQuality; fill-rule:evenodd; clip-rule:evenodd"
viewBox="0 0 245.72 245.72"
 xmlns:xlink="http://www.w3.org/1999/xlink"
 xmlns:xodm="http://www.corel.com/coreldraw/odm/2003">
 <defs>
  <style type="text/css">
   <![CDATA[
    .fil0 {fill:none}
    .fil1 {fill:white;fill-rule:nonzero}
   ]]>
  </style>
 </defs>
 <g id="Layer_x0020_1">
  <metadata id="CorelCorpID_0Corel-Layer"/>
  <circle class="fil0" cx="122.86" cy="122.86" r="122.86"/>
  <path class="fil1" d="M79.09 146.75c-2.82,0 -5.12,2.3 -5.12,5.12 0,2.82 2.3,5.12 5.12,5.12 2.82,0 5.12,-2.3 5.12,-5.12 0,-2.82 -2.3,-5.12 -5.12,-5.12zm69.94 -59.69c0,-2.82 -2.3,-5.12 -5.12,-5.12 -2.82,0 -5.12,2.3 -5.12,5.12 0,2.82 2.3,5.12 5.12,5.12 2.82,0 5.12,-2.3 5.12,-5.12zm43.38 0c0,-12.42 -4.73,-24.85 -14.19,-34.3 -9.17,-9.17 -21.35,-14.21 -34.31,-14.21 -12.96,0 -25.14,5.05 -34.31,14.21l-58.42 76.93c-5.15,6.47 -7.73,14.33 -7.73,22.19 0,9.13 3.47,18.26 10.43,25.21 6.95,6.95 16.08,10.42 25.21,10.42 0.21,0 0.41,-0 0.62,-0.01l0 0.02 91.32 0 0 -0.01c11.66,-0.28 21.1,-9.71 21.38,-21.38l0.01 0 0 -79.07 -0.02 0zm-17.54 -0.06l0 0.06c0,5.44 -1.43,10.79 -4.14,15.48 -0.81,1.4 -2.28,2.18 -3.79,2.18 -0.74,0 -1.49,-0.19 -2.18,-0.59 -2.09,-1.21 -2.8,-3.88 -1.59,-5.96 1.94,-3.36 2.97,-7.2 2.97,-11.1l0 -0.06c0,-2.41 1.96,-4.37 4.37,-4.37 2.41,0 4.37,1.96 4.37,4.37zm-21.48 -25.17c1.2,-2.09 3.87,-2.81 5.96,-1.6 4.7,2.7 8.62,6.61 11.34,11.3 1.21,2.09 0.5,4.76 -1.58,5.97 -0.69,0.4 -1.44,0.59 -2.19,0.59 -1.51,0 -2.97,-0.78 -3.78,-2.17 -1.96,-3.37 -4.78,-6.18 -8.16,-8.12 -2.09,-1.21 -2.81,-3.87 -1.6,-5.96zm-23.32 25.23c0,-7.64 6.21,-13.85 13.85,-13.85 7.64,0 13.86,6.22 13.86,13.85 0,7.64 -6.22,13.85 -13.86,13.85 -7.64,0 -13.85,-6.22 -13.85,-13.85zm4.36 25.22c-0.81,1.4 -2.28,2.19 -3.79,2.19 -0.74,0 -1.49,-0.19 -2.18,-0.59 -4.69,-2.71 -8.61,-6.62 -11.33,-11.31 -1.21,-2.09 -0.5,-4.76 1.59,-5.97 2.09,-1.21 4.76,-0.5 5.97,1.59 1.96,3.37 4.77,6.18 8.15,8.13 2.09,1.21 2.8,3.88 1.6,5.96zm9.51 -3c3.9,-0 7.75,-1.03 11.1,-2.97 2.09,-1.21 4.76,-0.5 5.97,1.59 1.21,2.09 0.5,4.76 -1.59,5.96 -4.69,2.72 -10.04,4.15 -15.48,4.15 0,0 0,0 -0,0 -2.41,0 -4.37,-1.95 -4.37,-4.36 0,-2.41 1.95,-4.37 4.37,-4.37zm-15.54 -49c4.68,-2.72 10.03,-4.16 15.47,-4.17l0 0c2.41,0 4.36,1.95 4.37,4.36 0,2.41 -1.95,4.37 -4.36,4.37 -3.9,0.01 -7.74,1.04 -11.1,2.99 -0.69,0.4 -1.44,0.59 -2.19,0.59 -1.5,0 -2.97,-0.78 -3.78,-2.17 -1.21,-2.09 -0.5,-4.76 1.58,-5.97zm-15.43 26.78c0,-5.43 1.43,-10.77 4.12,-15.44 1.21,-2.09 3.88,-2.81 5.97,-1.6 2.09,1.2 2.8,3.88 1.6,5.96 -1.93,3.35 -2.96,7.18 -2.96,11.08l0 0.03c0,2.41 -1.95,4.37 -4.37,4.37 -2.41,0 -4.37,-1.95 -4.37,-4.37l0 -0.03zm-33.87 78.66c-7.64,0 -13.85,-6.22 -13.85,-13.85 0,-7.64 6.22,-13.85 13.85,-13.85 7.64,0 13.86,6.22 13.86,13.85 0,7.64 -6.22,13.85 -13.86,13.85zm95.77 1.32c0,2.41 -1.96,4.37 -4.37,4.37 -2.41,0 -4.37,-1.95 -4.37,-4.37l0 -2.91c0,-2.41 1.96,-4.37 4.37,-4.37 2.41,0 4.37,1.95 4.37,4.37l0 2.91zm8.83 -18.96c-3.67,-2.78 -8.25,-4.43 -13.2,-4.43 -12.09,0 -21.93,9.84 -21.93,21.93 0,4.95 1.65,9.52 4.43,13.2l-50.52 0c0.63,-0.54 1.24,-1.11 1.84,-1.71 13.9,-13.9 13.9,-36.52 0,-50.41 -8.83,-8.83 -21.18,-12.05 -32.57,-9.66l23.7 -31.34c-0.37,12.88 4.35,25.89 14.17,35.7 9.16,9.16 21.35,14.21 34.31,14.21 12.96,0 25.14,-5.05 34.31,-14.21 2.05,-2.05 3.87,-4.23 5.48,-6.53l0 33.25z"/>
 </g>
</svg>
