<?xml version="1.0" encoding="UTF-8"?>
<!DOCTYPE svg PUBLIC "-//W3C//DTD SVG 1.1//EN" "http://www.w3.org/Graphics/SVG/1.1/DTD/svg11.dtd">
<!-- Creator: CorelDRAW -->
<svg xmlns="http://www.w3.org/2000/svg" xml:space="preserve" width="15mm" height="15mm" version="1.1" style="shape-rendering:geometricPrecision; text-rendering:geometricPrecision; image-rendering:optimizeQuality; fill-rule:evenodd; clip-rule:evenodd"
viewBox="0 0 372.96 372.96"
 xmlns:xlink="http://www.w3.org/1999/xlink"
 xmlns:xodm="http://www.corel.com/coreldraw/odm/2003">
 <defs>
  <style type="text/css">
   <![CDATA[
    .fil0 {fill:none}
    .fil1 {fill:white;fill-rule:nonzero}
   ]]>
  </style>
 </defs>
 <g id="Layer_x0020_1">
  <metadata id="CorelCorpID_0Corel-Layer"/>
  <circle class="fil0" cx="186.48" cy="186.48" r="186.48"/>
  <path class="fil1" d="M282.4 254.72l-191.04 0c-3.68,1.19 -6.34,3.85 -6.34,7.14l0 12.68c0,3.28 2.66,5.94 5.94,5.94l191.04 0c3.28,0 5.94,-2.66 5.94,-5.94l0 -12.68c0,-3.28 -2.66,-5.95 -5.55,-7.14l0 0zm-95.92 -38.45c-3.28,0 -5.94,-2.67 -5.94,-5.94 0,-3.28 -2.66,-5.94 -5.94,-5.94 -3.28,0 -5.95,2.66 -5.95,5.94 0,7.75 4.97,14.36 11.89,16.81l0 3.01c0,3.28 2.66,5.94 5.94,5.94 3.28,0 5.94,-2.66 5.94,-5.94l0 -3.01c6.92,-2.45 11.89,-9.06 11.89,-16.81 0,-9.83 -8,-17.83 -17.83,-17.83 -3.28,0 -5.94,-2.67 -5.94,-5.94 0,-3.28 2.67,-5.95 5.94,-5.95 3.28,0 5.94,2.67 5.94,5.95 0,3.28 2.66,5.94 5.94,5.94 3.28,0 5.94,-2.66 5.94,-5.94 0,-7.75 -4.97,-14.36 -11.89,-16.82l0 -3c0,-3.28 -2.66,-5.94 -5.94,-5.94 -3.28,0 -5.94,2.66 -5.94,5.94l0 3c-6.92,2.46 -11.89,9.06 -11.89,16.82 0,9.83 8,17.83 17.84,17.83 3.28,0 5.94,2.67 5.94,5.94 0,3.28 -2.67,5.94 -5.94,5.94zm44.59 15.86l0 11.89 45.58 0 0 -11.89c0,-3.28 -2.66,-5.94 -5.94,-5.94l-33.69 0c-3.28,0 -5.95,2.66 -5.95,5.94zm7.93 -79.27l29.72 0 0 61.43 -29.72 0 0 -61.43zm-134.76 0l29.73 0 0 61.43 -29.73 0 0 -61.43zm-7.93 79.27l0 11.89 45.58 0 0 -11.89c0,-3.28 -2.66,-5.94 -5.94,-5.94l-33.69 0c-3.28,0 -5.94,2.66 -5.94,5.94l0 0zm187.97 -114.49l-95.52 -39.64c-1.46,-0.61 -3.1,-0.61 -4.56,0l-95.52 39.64c-2.22,0.92 -3.66,3.09 -3.66,5.49l0 11.89c0,3.28 2.66,5.95 5.94,5.95l191.04 0c3.28,0 5.94,-2.66 5.94,-5.95l0 -11.89c0,-2.4 -1.45,-4.57 -3.67,-5.49zm-62.13 5.49l-71.34 0c-3.28,0 -5.94,-2.66 -5.94,-5.94 0,-3.28 2.66,-5.94 5.94,-5.94l71.34 0c3.28,0 5.94,2.66 5.94,5.94 0,3.28 -2.66,5.94 -5.94,5.94l0 0z"/>
 </g>
</svg>
