<?xml version="1.0" encoding="UTF-8"?>
<!DOCTYPE svg PUBLIC "-//W3C//DTD SVG 1.1//EN" "http://www.w3.org/Graphics/SVG/1.1/DTD/svg11.dtd">
<!-- Creator: CorelDRAW -->
<svg xmlns="http://www.w3.org/2000/svg" xml:space="preserve" width="15mm" height="15mm" version="1.1" style="shape-rendering:geometricPrecision; text-rendering:geometricPrecision; image-rendering:optimizeQuality; fill-rule:evenodd; clip-rule:evenodd"
viewBox="0 0 419.83 419.83"
 xmlns:xlink="http://www.w3.org/1999/xlink"
 xmlns:xodm="http://www.corel.com/coreldraw/odm/2003">
 <defs>
  <style type="text/css">
   <![CDATA[
    .fil0 {fill:none}
    .fil1 {fill:white;fill-rule:nonzero}
   ]]>
  </style>
 </defs>
 <g id="Layer_x0020_1">
  <metadata id="CorelCorpID_0Corel-Layer"/>
  <circle class="fil0" cx="209.92" cy="209.92" r="209.92"/>
  <path class="fil1" d="M275.07 186.12l-11.44 0c-1.23,-3.68 -2.45,-6.94 -4.09,-10.21l8.17 -8.17c1.63,-1.63 1.63,-4.09 0,-5.72l-17.16 -17.16c-1.63,-1.63 -4.08,-1.63 -5.72,0l-7.76 7.76c-3.27,-1.63 -6.95,-3.27 -10.21,-4.08l0 -11.44c0,-2.45 -2.04,-4.09 -4.09,-4.09l-24.51 0c-2.45,0 -4.08,1.63 -4.08,4.09l0 11.44c-3.68,1.22 -6.95,2.45 -10.21,4.08l-8.17 -7.76c-1.63,-1.63 -4.09,-1.63 -5.72,0l-17.16 17.16c-1.63,1.63 -1.63,4.09 0,5.72l8.17 8.17c-1.63,3.27 -3.27,6.94 -4.5,10.21l-11.44 0c-2.04,0 -4.08,1.63 -4.08,4.09l0 24.1c0,2.45 2.04,4.09 4.08,4.09l11.44 0c1.23,3.67 2.45,6.94 4.5,10.21l-8.17 7.76c-1.63,1.63 -1.63,4.09 0,5.72l17.16 17.16c4.9,4.9 9.8,-5.31 13.89,-8.17 3.27,1.63 6.94,3.27 10.21,4.49l0 11.44c0,2.04 1.63,4.09 4.08,4.09l24.51 0c2.04,0 4.09,-2.04 4.09,-4.09l0 -11.44c3.67,-1.23 6.94,-2.45 10.21,-4.08l7.76 7.76c1.63,1.63 4.08,1.63 5.72,0l17.16 -17.16c1.63,-1.63 1.63,-4.09 0,-5.72l-8.17 -7.76c1.63,-3.27 3.27,-6.94 4.09,-10.21l11.44 0c2.45,0 4.09,-1.63 4.09,-4.09l0 -24.1c0,-2.45 -1.63,-4.09 -4.09,-4.09l0 0zm44.53 123.38c-5.31,10.62 -15.93,17.16 -27.78,17.16 -14.3,0 -24.1,-7.76 -28.6,-17.97l-105.81 0c-4.9,10.21 -15.52,17.57 -28.6,17.57 -11.85,0 -22.47,-6.54 -27.78,-17.16 -1.23,-2.86 0.41,-6.13 3.67,-6.13l19.61 0 5.31 -8.58 -5.31 -8.58 -20.02 0c-2.86,0 -4.9,-3.27 -3.67,-6.13 5.31,-10.62 16.34,-17.16 28.19,-17.16 12.26,0 23.29,6.94 28.6,17.97l105.81 0c4.9,-11.03 15.12,-17.97 28.6,-17.97 11.85,0 22.47,6.54 28.19,17.16 1.22,2.86 -0.41,6.13 -3.68,6.13l-19.61 0 -5.31 8.58 5.31 8.58 19.61 0c2.86,0.82 4.9,3.67 3.27,6.54zm-10.62 -171.99c-4.09,-22.88 -25.33,-37.59 -43.3,-36.77 -8.17,-21.65 -28.6,-35.54 -51.88,-35.54 -24.51,0 -44.53,14.3 -52.29,36.77 -3.27,-0.82 -6.13,-0.82 -9.4,-0.82 -21.65,0 -40.44,16.34 -43.71,37.58 -16.34,5.72 -27.37,20.83 -27.37,38.4 0,22.47 18.38,40.44 40.44,40.44l11.44 0c-0.41,-0.82 -0.41,-1.63 -0.41,-2.86l0 -24.1c0,-6.94 5.31,-12.25 12.26,-12.25l5.72 0c0,0 0,-0.41 0.41,-0.41l-4.09 -4.09c-4.9,-4.9 -4.9,-12.66 0,-17.16l17.16 -17.16c4.9,-4.9 12.66,-4.9 17.16,0l4.09 3.68 0.41 0 0 -5.31c0,-6.54 5.72,-12.26 12.25,-12.26l24.51 0c6.54,0 12.26,5.72 12.26,12.26l0 4.9 0.41 0 3.67 -3.68c4.9,-4.9 12.66,-4.9 17.57,0l17.16 17.16c4.9,5.31 4.5,12.66 0,17.57l-4.08 3.68 0 0.41 5.31 0c6.94,0 12.26,5.31 12.26,12.26l0 24.1c0,0.82 0,2.04 -0.41,2.86l11.44 0c22.47,0 40.85,-18.38 40.85,-40.44 0.41,-18.38 -12.26,-34.32 -29.82,-39.22l0 0zm-60.06 -23.7c-2.04,0.82 -4.49,-0.41 -5.31,-2.45 -4.5,-13.48 -16.34,-22.06 -30.64,-21.65 -14.3,0.41 -25.74,9.4 -29.41,22.88 -0.82,2.45 -3.27,3.27 -4.9,2.86 -2.04,-0.41 -3.27,-2.86 -2.86,-4.9 4.9,-17.16 19.61,-28.19 37.17,-28.6 17.97,-0.41 33.09,10.21 38.81,27.37 0.41,1.63 -0.82,3.68 -2.86,4.5zm-38.81 121.74c-18.79,0 -33.5,-15.11 -33.5,-33.5 0,-18.38 14.71,-33.5 33.5,-33.5 18.79,0 33.5,15.11 33.5,33.5 0,18.39 -15.12,33.5 -33.5,33.5z"/>
 </g>
</svg>
