<?xml version="1.0" encoding="UTF-8"?>
<!DOCTYPE svg PUBLIC "-//W3C//DTD SVG 1.1//EN" "http://www.w3.org/Graphics/SVG/1.1/DTD/svg11.dtd">
<!-- Creator: CorelDRAW -->
<svg xmlns="http://www.w3.org/2000/svg" xml:space="preserve" width="15mm" height="15mm" version="1.1" style="shape-rendering:geometricPrecision; text-rendering:geometricPrecision; image-rendering:optimizeQuality; fill-rule:evenodd; clip-rule:evenodd"
viewBox="0 0 419.83 419.83"
 xmlns:xlink="http://www.w3.org/1999/xlink"
 xmlns:xodm="http://www.corel.com/coreldraw/odm/2003">
 <defs>
  <style type="text/css">
   <![CDATA[
    .fil0 {fill:none}
    .fil1 {fill:white;fill-rule:nonzero}
   ]]>
  </style>
 </defs>
 <g id="Layer_x0020_1">
  <metadata id="CorelCorpID_0Corel-Layer"/>
  <circle class="fil0" cx="209.92" cy="209.92" r="209.92"/>
  <path class="fil1" d="M280.01 316.44l-22.99 0 -4.67 -14.02 -84.86 0 -4.67 14.02 -22.99 0c-3.87,0 -7.01,3.14 -7.01,7.01 0,3.87 3.14,7.01 7.01,7.01l140.18 0c3.87,0 7.01,-3.14 7.01,-7.01 0,-3.87 -3.14,-7.01 -7.01,-7.01l0 0zm-189.71 -49.06c0,11.59 9.44,21.03 21.03,21.03l196.71 0c11.6,0 21.5,-9.44 21.5,-21.03l0 -7.01 -239.24 0 0 7.01zm72.32 -40.3c-0.8,3.09 -3.59,5.26 -6.79,5.26l-8.99 0 0 14.02 28.96 0c-0.47,-2.31 -0.92,-4.63 -0.92,-7.01 0,-19.32 15.72,-35.04 35.04,-35.04 19.32,0 35.04,15.72 35.04,35.04 0,2.38 -0.45,4.7 -0.92,7.01l28.96 0 0 -14.02 -9 0c-3.2,0 -5.99,-2.16 -6.79,-5.26 -1.12,-4.35 -2.86,-8.55 -5.19,-12.49 -1.62,-2.75 -1.18,-6.26 1.08,-8.51l6.37 -6.38 -9.91 -9.91 -6.38 6.38c-2.26,2.27 -5.77,2.72 -8.52,1.07 -3.94,-2.32 -8.13,-4.07 -12.49,-5.19 -3.09,-0.8 -5.26,-3.59 -5.26,-6.79l0 -8.99 -14.02 0 0 8.99c0,3.2 -2.16,5.99 -5.26,6.79 -4.36,1.12 -8.55,2.87 -12.49,5.19 -2.74,1.64 -6.26,1.19 -8.52,-1.07l-6.38 -6.38 -9.91 9.91 6.37 6.38c2.26,2.26 2.7,5.76 1.08,8.51 -2.33,3.94 -4.07,8.14 -5.19,12.49l0 0zm26.27 12.26c0,2.42 0.56,4.76 1.36,7.01l39.34 0c0.8,-2.25 1.36,-4.59 1.36,-7.01 0,-11.59 -9.44,-21.03 -21.03,-21.03 -11.6,0 -21.03,9.43 -21.03,21.03l0 0zm119.15 -133.17l-196.71 0c-11.6,0 -21.03,9.44 -21.03,21.03l0 119.15 42.52 0 0 -21.03c0,-3.87 3.14,-7.01 7.01,-7.01l10.83 0c0.72,-2.04 1.55,-4.04 2.49,-6l-7.66 -7.67c-2.74,-2.74 -2.74,-7.17 0,-9.91l19.82 -19.82c2.74,-2.74 7.17,-2.74 9.91,0l7.67 7.67c1.96,-0.94 3.96,-1.77 6,-2.5l0 -10.83c0,-3.87 3.13,-7.01 7.01,-7.01l28.03 0c3.87,0 7.01,3.13 7.01,7.01l0 10.83c2.04,0.72 4.04,1.56 6,2.5l7.67 -7.67c2.74,-2.73 7.17,-2.73 9.91,0l19.82 19.82c2.74,2.74 2.74,7.18 0,9.91l-7.66 7.67c0.94,1.97 1.77,3.97 2.49,6l10.83 0c3.87,0 7.01,3.13 7.01,7.01l0 21.03 42.52 0 0 -119.15c0,-11.59 -9.9,-21.03 -21.5,-21.03l0 0zm-28.03 70.09c-11.6,0 -21.03,-9.43 -21.03,-21.03 0,-11.59 9.43,-21.03 21.03,-21.03 11.59,0 21.03,9.43 21.03,21.03 0,11.6 -9.43,21.03 -21.03,21.03zm0 -28.04c-3.87,0 -7.01,3.14 -7.01,7.01 0,3.87 3.14,7.01 7.01,7.01 3.87,0 7.01,-3.14 7.01,-7.01 0,-3.87 -3.14,-7.01 -7.01,-7.01z"/>
 </g>
</svg>
