<?xml version="1.0" encoding="UTF-8"?>
<!DOCTYPE svg PUBLIC "-//W3C//DTD SVG 1.1//EN" "http://www.w3.org/Graphics/SVG/1.1/DTD/svg11.dtd">
<!-- Creator: CorelDRAW -->
<svg xmlns="http://www.w3.org/2000/svg" xml:space="preserve" width="15mm" height="15mm" version="1.1" style="shape-rendering:geometricPrecision; text-rendering:geometricPrecision; image-rendering:optimizeQuality; fill-rule:evenodd; clip-rule:evenodd"
viewBox="0 0 419.83 419.83"
 xmlns:xlink="http://www.w3.org/1999/xlink"
 xmlns:xodm="http://www.corel.com/coreldraw/odm/2003">
 <defs>
  <style type="text/css">
   <![CDATA[
    .fil0 {fill:none}
    .fil1 {fill:white}
   ]]>
  </style>
 </defs>
 <g id="Layer_x0020_1">
  <metadata id="CorelCorpID_0Corel-Layer"/>
  <circle class="fil0" cx="209.92" cy="209.92" r="209.92"/>
  <path class="fil1" d="M191.22 327.06c-4.71,-8.05 -10.67,-17.59 -17.35,-28.32 -4.53,-7.27 -9.24,-14.85 -13.96,-22.54l55.94 0c1.07,0 2.03,-0.9 2.03,-1.97 0,-1.13 -0.89,-2.03 -2.03,-2.03l-58.44 0c-21.71,-35.78 -42.46,-73.7 -42.46,-96.6 0,-52.36 42.58,-94.93 94.93,-94.93 52.41,0 94.99,42.58 94.99,94.99 0,28.5 -32.2,80.26 -58.32,122.19l-42.58 0c-1.07,0 -2.03,0.89 -2.03,2.03 0,1.13 0.95,2.03 2.03,2.03l40.01 0c-5.9,9.48 -11.15,17.95 -15.39,25.16l-37.39 0zm82.77 12.11l-128.15 0c-2.21,0 -3.99,-1.79 -3.99,-4.06 0,-2.21 1.79,-4.05 3.99,-4.05l128.15 0c2.21,0 4,1.85 4,4.05 0,2.27 -1.79,4.06 -4,4.06l0 0zm-64.1 -106.8l0.06 0 0.06 0 0.06 0c20.33,-0.06 38.1,-10.85 48.12,-26.89 0.12,-0.18 0.18,-0.36 0.3,-0.54 5.19,-8.53 8.17,-18.6 8.17,-29.34 0,-10.73 -2.98,-20.75 -8.23,-29.34 -0.06,-0.12 -0.12,-0.3 -0.24,-0.42 -9.96,-16.1 -27.79,-26.89 -48.12,-26.95l-0.06 0 -0.06 0 -0.06 0 -0.06 0 -0.06 0c-20.33,0.06 -38.17,10.85 -48.12,26.95 -0.12,0.12 -0.18,0.3 -0.24,0.42 -5.25,8.59 -8.23,18.6 -8.23,29.34l0 0.06 0 0.06c0,10.67 2.98,20.69 8.17,29.22 0.06,0.18 0.18,0.36 0.36,0.54 9.96,16.1 27.79,26.83 48.06,26.89l0.06 0 0.06 0zm8.65 -108.71c14.07,2.33 26.3,10.26 34.29,21.47l-25.4 0c-0.54,-2.45 -1.13,-4.83 -1.85,-7.1 -1.31,-4.18 -3.58,-10.2 -7.04,-14.37zm4.77 21.47l-26.77 0c0.6,-2.45 1.25,-4.77 1.97,-7.04 1.49,-4.47 5.49,-15.15 11.39,-15.15 5.96,0 9.96,10.67 11.45,15.15 0.72,2.27 1.37,4.59 1.97,7.04zm-30.89 0l-25.4 0c7.99,-11.21 20.21,-19.14 34.29,-21.47 -3.46,4.17 -5.72,10.2 -7.04,14.37 -0.71,2.26 -1.31,4.65 -1.85,7.1l0 0zm63.03 3.99c4.23,7.28 6.8,15.62 7.16,24.51l-32.08 0c-0.12,-7.99 -0.78,-16.4 -2.27,-24.51l27.19 0zm-28.98 24.51l-33.09 0c0.12,-7.99 0.78,-16.4 2.33,-24.51l28.44 0c1.55,8.11 2.21,16.52 2.33,24.51zm-37.15 0l-32.08 0c0.36,-8.89 2.92,-17.23 7.15,-24.51l27.19 0c-1.49,8.11 -2.15,16.52 -2.27,24.51zm73.23 4.06c-0.3,8.88 -2.86,17.17 -7.1,24.45l-27.19 0c1.49,-8.05 2.15,-16.52 2.27,-24.45l32.02 0zm-38.4 24.45l-28.44 0c-1.55,-8.05 -2.21,-16.52 -2.33,-24.45l33.09 0c-0.12,7.93 -0.78,16.4 -2.33,24.45zm-32.56 0l-27.19 0c-4.23,-7.28 -6.8,-15.56 -7.15,-24.45l32.08 0c0.12,7.93 0.78,16.4 2.27,24.45zm61.24 4.05c-7.99,11.15 -20.22,19.14 -34.35,21.47 3.46,-4.17 5.79,-10.26 7.1,-14.43 0.71,-2.26 1.31,-4.65 1.85,-7.04l25.4 0zm-51.46 21.47c-14.13,-2.33 -26.36,-10.26 -34.35,-21.47l25.4 0c0.54,2.39 1.13,4.77 1.85,7.04 1.31,4.18 3.64,10.26 7.1,14.43zm-4.83 -21.47l26.77 0c-0.6,2.39 -1.25,4.77 -1.97,7.04 -1.49,4.47 -5.49,15.09 -11.45,15.09 -5.9,0 -9.9,-10.67 -11.39,-15.09 -0.72,-2.32 -1.37,-4.65 -1.97,-7.04zm13.36 43.95c41.09,0 74.48,-33.45 74.48,-74.48 0,-41.08 -33.39,-74.48 -74.48,-74.48 -41.03,0 -74.42,33.39 -74.42,74.48 0,41.03 33.39,74.48 74.42,74.48zm0 -144.96c38.88,0 70.48,31.61 70.48,70.43 0,38.88 -31.61,70.48 -70.48,70.48 -38.82,0 -70.42,-31.61 -70.42,-70.48 0,-38.82 31.61,-70.43 70.42,-70.43z"/>
 </g>
</svg>
