<?xml version="1.0" encoding="UTF-8"?>
<!DOCTYPE svg PUBLIC "-//W3C//DTD SVG 1.1//EN" "http://www.w3.org/Graphics/SVG/1.1/DTD/svg11.dtd">
<!-- Creator: CorelDRAW -->
<svg xmlns="http://www.w3.org/2000/svg" xml:space="preserve" width="15mm" height="15mm" version="1.1" style="shape-rendering:geometricPrecision; text-rendering:geometricPrecision; image-rendering:optimizeQuality; fill-rule:evenodd; clip-rule:evenodd"
viewBox="0 0 1006.5 1006.5"
 xmlns:xlink="http://www.w3.org/1999/xlink"
 xmlns:xodm="http://www.corel.com/coreldraw/odm/2003">
 <defs>
  <style type="text/css">
   <![CDATA[
    .fil0 {fill:none}
    .fil1 {fill:white;fill-rule:nonzero}
   ]]>
  </style>
 </defs>
 <g id="Layer_x0020_1">
  <metadata id="CorelCorpID_0Corel-Layer"/>
  <circle class="fil0" cx="503.25" cy="503.25" r="503.25"/>
  <path class="fil1" d="M503.07 271.69c-137.09,-119.9 -311.39,-14.55 -314.25,128.27 -0.73,36.4 9.78,71.85 30.69,104.54l135.56 0 24.11 -40.19c7,-11.66 23.94,-12.04 31.34,-0.41l50.88 79.94 74.15 -156.55c6.47,-13.65 25.74,-14.09 32.87,-0.85l63.57 118.06 154.64 0c114.55,-179.04 -111.84,-383 -283.57,-232.81zm101.7 259.97l-51.51 -95.66 -72.84 153.77c-6.19,13.08 -24.42,14.22 -32.19,2.01l-52.78 -82.94 -14.14 23.57c-3.33,5.55 -9.33,8.94 -15.8,8.94l-116.84 0c3.66,3.83 -15.86,-15.65 241.42,240.3 7.19,7.15 18.8,7.15 25.99,0 253.32,-252.01 237.76,-236.47 241.42,-240.3l-136.5 0c-6.78,0 -13.01,-3.72 -16.22,-9.69z"/>
 </g>
</svg>
