<?xml version="1.0" encoding="UTF-8"?>
<!DOCTYPE svg PUBLIC "-//W3C//DTD SVG 1.1//EN" "http://www.w3.org/Graphics/SVG/1.1/DTD/svg11.dtd">
<!-- Creator: CorelDRAW -->
<svg xmlns="http://www.w3.org/2000/svg" xml:space="preserve" width="15mm" height="15mm" version="1.1" style="shape-rendering:geometricPrecision; text-rendering:geometricPrecision; image-rendering:optimizeQuality; fill-rule:evenodd; clip-rule:evenodd"
viewBox="0 0 1006.5 1006.5"
 xmlns:xlink="http://www.w3.org/1999/xlink"
 xmlns:xodm="http://www.corel.com/coreldraw/odm/2003">
 <defs>
  <style type="text/css">
   <![CDATA[
    .fil0 {fill:none}
    .fil1 {fill:white}
   ]]>
  </style>
 </defs>
 <g id="Layer_x0020_1">
  <metadata id="CorelCorpID_0Corel-Layer"/>
  <circle class="fil0" cx="503.25" cy="503.25" r="503.25"/>
  <path class="fil1" d="M292.67 235.24c-31.72,0 -57.43,25.71 -57.43,57.43l0 325.44c0,31.72 25.71,57.43 57.43,57.43l229.72 0 0 -38.29 -229.72 0c-10.58,0 -19.14,-8.57 -19.14,-19.14l0 -229.72 185.55 0c6.28,0 12.17,-3.08 15.74,-8.25l20.79 -30.04 199.08 0 0 57.43 38.29 0 0 -114.86c0,-31.72 -25.71,-57.43 -57.43,-57.43l-382.87 0zm248.87 478.59c0,31.72 25.71,57.43 57.43,57.43l114.86 0c31.72,0 57.43,-25.71 57.43,-57.43l0 -229.72c0,-31.72 -25.71,-57.43 -57.43,-57.43l-114.86 0c-31.72,0 -57.43,25.71 -57.43,57.43l0 229.72zm191.44 -34.91l0 -194.82c0,-10.58 -8.57,-19.14 -19.14,-19.14l-114.86 0c-10.58,0 -19.14,8.57 -19.14,19.14l0 194.81 33.54 0.01c0.58,-10.05 8.92,-18.02 19.11,-18.02l47.86 0c10.19,0 18.53,7.97 19.11,18.02l33.54 0zm-402.02 -367.11c0,10.58 -8.57,19.14 -19.14,19.14 -10.58,0 -19.14,-8.57 -19.14,-19.14 0,-10.58 8.57,-19.14 19.14,-19.14 10.58,0 19.14,8.57 19.14,19.14zm38.29 19.14c10.58,0 19.14,-8.57 19.14,-19.14 0,-10.58 -8.57,-19.14 -19.14,-19.14 -10.58,0 -19.14,8.57 -19.14,19.14 0,10.58 8.57,19.14 19.14,19.14zm76.57 -19.14c0,10.58 -8.57,19.14 -19.14,19.14 -10.58,0 -19.14,-8.57 -19.14,-19.14 0,-10.58 8.57,-19.14 19.14,-19.14 10.58,0 19.14,8.57 19.14,19.14z"/>
 </g>
</svg>
