<?xml version="1.0" encoding="UTF-8"?>
<!DOCTYPE svg PUBLIC "-//W3C//DTD SVG 1.1//EN" "http://www.w3.org/Graphics/SVG/1.1/DTD/svg11.dtd">
<!-- Creator: CorelDRAW -->
<svg xmlns="http://www.w3.org/2000/svg" xml:space="preserve" width="15mm" height="15mm" version="1.1" style="shape-rendering:geometricPrecision; text-rendering:geometricPrecision; image-rendering:optimizeQuality; fill-rule:evenodd; clip-rule:evenodd"
viewBox="0 0 66.37 66.37"
 xmlns:xlink="http://www.w3.org/1999/xlink"
 xmlns:xodm="http://www.corel.com/coreldraw/odm/2003">
 <defs>
  <style type="text/css">
   <![CDATA[
    .fil0 {fill:none}
    .fil1 {fill:white;fill-rule:nonzero}
   ]]>
  </style>
 </defs>
 <g id="Layer_x0020_1">
  <metadata id="CorelCorpID_0Corel-Layer"/>
  <circle class="fil0" cx="33.18" cy="33.18" r="33.18"/>
  <path class="fil1" d="M54.21 21.79l0 16.05 -3.6 0.99 -4.11 -14.93 7.71 -2.11zm-34.34 2.11l-4.11 14.93 -3.6 -0.99 0 -16.05 7.71 2.11zm25.18 14.79c1.31,1.02 -0.27,3.06 -1.58,2.04l-6.86 -5.32c-1.03,-0.79 -2.25,0.8 -1.23,1.59l6.43 4.98c1.32,1.02 -0.26,3.06 -1.58,2.04l-7.23 -5.6c-1.02,-0.79 -2.25,0.79 -1.23,1.58l5.84 4.53c1.32,1.01 -0.26,3.06 -1.58,2.04l-6.64 -5.15c-1.02,-0.79 -2.25,0.79 -1.23,1.58l4.22 3.27c1.31,1.02 -0.27,3.06 -1.59,2.04l-12.81 -9.92 3.56 -12.99 3.83 -0.43 -2.81 4.74c-0.24,0.41 -0.16,0.93 0.19,1.26 2.64,2.38 6.84,1.99 9.02,-0.8l0.86 -1.12 12.44 9.63zm-0.27 -13.5l3.51 12.78c-0.55,0.03 -1.08,-0.14 -1.51,-0.47l-15.46 -11.98c-1.02,-0.79 -2.24,0.79 -1.22,1.59l0.93 0.72 -0.86 1.11c-1.29,1.67 -3.63,2.11 -5.45,1.02l2.81 -4.74c1.23,-2.07 3.65,-3.11 6.01,-2.58l11.23 2.54z"/>
 </g>
</svg>
