<?xml version="1.0" encoding="UTF-8"?>
<!DOCTYPE svg PUBLIC "-//W3C//DTD SVG 1.1//EN" "http://www.w3.org/Graphics/SVG/1.1/DTD/svg11.dtd">
<!-- Creator: CorelDRAW -->
<svg xmlns="http://www.w3.org/2000/svg" xml:space="preserve" width="14.9996mm" height="14.9996mm" version="1.1" style="shape-rendering:geometricPrecision; text-rendering:geometricPrecision; image-rendering:optimizeQuality; fill-rule:evenodd; clip-rule:evenodd"
viewBox="0 0 1499.96 1499.96"
 xmlns:xlink="http://www.w3.org/1999/xlink"
 xmlns:xodm="http://www.corel.com/coreldraw/odm/2003"
 data-name="Layer 1">
 <defs>
  <style type="text/css">
   <![CDATA[
    .fil0 {fill:none}
    .fil1 {fill:white}
   ]]>
  </style>
 </defs>
 <g id="Layer_x0020_1">
  <metadata id="CorelCorpID_0Corel-Layer"/>
  <circle class="fil0" cx="749.98" cy="749.98" r="749.98"/>
  <g id="_2722650407248">
   <path class="fil1" d="M507.76 458.97c0,0.01 0,0.01 0,0.01 33.62,0 60.89,27.26 60.89,60.88 0,33.62 -27.27,60.89 -60.89,60.89 -33.62,0 -60.89,-27.27 -60.89,-60.89 0,-33.62 27.27,-60.88 60.89,-60.88l0 -0.01zm257.18 567.19c0,141.99 115.14,257.13 257.13,257.13 141.98,0 257.12,-115.14 257.12,-257.13 0,-141.98 -115.14,-257.12 -257.12,-257.12 -141.99,0 -257.13,115.14 -257.13,257.12l0 0zm328.84 152.94c-31.18,19.32 -64.53,13.34 -116.16,4.39l-53.7 0c-13.5,-0.01 -24.46,-10.96 -24.46,-24.47 0,-13.51 10.96,-24.47 24.46,-24.47l-14.59 0c-13.51,0 -24.46,-10.95 -24.46,-24.46 0,-13.51 10.95,-24.47 24.46,-24.47l-17.16 0c-13.51,0 -24.47,-10.96 -24.47,-24.47 0,-13.51 10.96,-24.46 24.47,-24.46l10.31 0c-13.51,0 -24.47,-10.96 -24.47,-24.47 0,-13.51 10.96,-24.46 24.47,-24.46l91.16 0c-6.27,-7.46 -10.51,-16.43 -12.29,-26.01l0 -39.78c0.1,-33.95 27.61,-61.47 61.57,-61.56l0 51.34c0,34.59 25.17,53.83 50.87,72l0 195.35 -0.01 0zm34.96 -182.83l34.58 0c7.24,0.02 13.1,5.88 13.11,13.11l0 142.86c-0.01,7.24 -5.88,13.1 -13.11,13.11l-34.58 0 0 -169.08zm-813.77 5.44c-43.72,-75.16 -66.84,-160.63 -66.84,-247.61 0,-0.24 0,-0.54 0,-0.78 0,-272.87 221.2,-494.08 494.07,-494.08 0.28,-0.02 0.64,-0.02 0.94,-0.02 106.84,0 210.86,34.85 296.1,99.22l-48.49 1.75c-9.4,0.33 -16.83,8.02 -16.83,17.4 0,9.62 7.8,17.42 17.42,17.42 0.2,0 0.41,0 0.61,-0.01l93.08 -3.34c0.19,0.01 0.4,0.01 0.6,0.01 9.65,0 17.47,-7.83 17.47,-17.48 0,-1.61 -0.22,-3.21 -0.66,-4.76l-25.88 -90.77c-2.19,-7.42 -9.01,-12.53 -16.75,-12.53 -9.64,0 -17.46,7.82 -17.46,17.46 0,1.57 0.21,3.12 0.62,4.63l10.71 37.5c-90.21,-65.85 -199.21,-101.45 -310.98,-101.45 -0.13,0 -0.38,0 -0.51,0 -292.17,0 -529.02,236.86 -529.02,529.03 0.01,0.16 0.01,0.42 0.01,0.61 0,93.16 24.77,184.78 71.6,265.27 3.13,5.45 8.91,8.81 15.18,8.81 9.62,0 17.43,-7.81 17.43,-17.44 0,-3.11 -0.83,-6.17 -2.41,-8.85l-0.01 0.01zm126.44 216.65c0.47,1.6 0.72,3.27 0.72,4.93 0,9.64 -7.82,17.46 -17.46,17.46 -7.86,0 -14.76,-5.25 -16.84,-12.83l-25.89 -90.75c-0.44,-1.55 -0.66,-3.16 -0.66,-4.77 0,-9.65 7.82,-17.48 17.47,-17.48 0.2,0 0.41,0.01 0.61,0.02l93.07 -3.35c0.2,0 0.41,-0.01 0.62,-0.01 9.61,0 17.41,7.8 17.41,17.42 0,9.38 -7.43,17.08 -16.8,17.41l-48.52 1.75c85.27,64.36 189.24,99.21 296.08,99.21 0.3,0 0.66,0 0.96,0 0.09,0 0.15,0 0.21,0 27.26,0 54.59,-2.31 81.42,-6.74 11.29,10.43 23.45,20.04 36.17,28.53 -38.47,8.76 -77.95,13.16 -117.43,13.16 -112.02,0 -221.26,-35.53 -311.8,-101.41l10.69 37.46 -0.03 -0.01zm790.04 -395.8c3.17,-22.88 4.81,-46.01 4.81,-69.13 0,0 0,-0.12 0,-0.12 0,-0.27 0,-0.57 0,-0.81 0,-86.96 -23.12,-172.47 -66.83,-247.6 -1.55,-2.63 -2.36,-5.65 -2.36,-8.71 0,-9.63 7.81,-17.44 17.44,-17.44 6.22,0 11.97,3.32 15.08,8.7 46.9,80.79 71.63,172.74 71.63,266.18 0,34.97 -3.49,70.07 -10.36,104.32 -8.83,-12.53 -18.72,-24.43 -29.41,-35.41l0 0.02zm-483.64 1.74l21.22 55.9c-24.82,42.9 -38.23,91.51 -38.98,141.04l-58.72 38.45c-0.98,0.64 -2.12,0.98 -3.28,0.98 -3.3,0 -5.97,-2.67 -5.97,-5.97 0,-0.53 0.07,-1.06 0.21,-1.57l21.2 -77.98c0.15,-0.53 0.22,-1.07 0.22,-1.61 0,-1.81 -0.83,-3.51 -2.24,-4.62l-63 -50.65c-1.41,-1.13 -2.23,-2.84 -2.23,-4.65 0,-3.19 2.5,-5.82 5.68,-5.97l80.73 -3.94c2.38,-0.08 4.48,-1.61 5.3,-3.85l28.69 -75.56c0.89,-2.3 3.11,-3.83 5.58,-3.83 2.48,0 4.7,1.53 5.59,3.83l0 0zm-253.99 -50.82l23.06 60.75c0.66,1.8 2.35,3.02 4.26,3.09l64.91 3.16c2.55,0.13 4.56,2.24 4.56,4.8 0,1.46 -0.65,2.84 -1.79,3.75l-50.65 40.71c-1.14,0.89 -1.8,2.26 -1.8,3.71 0,0.44 0.06,0.87 0.18,1.29l17.03 62.7c0.12,0.41 0.17,0.83 0.17,1.26 0,2.65 -2.15,4.8 -4.8,4.8 -0.94,0 -1.85,-0.27 -2.63,-0.78l-54.37 -35.59c-0.78,-0.52 -1.69,-0.8 -2.63,-0.8 -0.94,0 -1.86,0.28 -2.63,0.8l-54.37 35.59c-0.78,0.5 -1.68,0.76 -2.61,0.76 -2.65,0 -4.8,-2.15 -4.8,-4.8 0,-0.42 0.05,-0.83 0.16,-1.23l17.04 -62.7c0.12,-0.42 0.18,-0.85 0.18,-1.29 0,-1.45 -0.67,-2.82 -1.81,-3.71l-50.65 -40.73c-1.13,-0.91 -1.79,-2.28 -1.79,-3.74 0,-2.56 2.01,-4.67 4.57,-4.8l64.9 -3.16c1.92,-0.07 3.6,-1.3 4.26,-3.1l23.07 -60.74c0.7,-1.87 2.49,-3.1 4.49,-3.1 1.99,0 3.78,1.23 4.49,3.09l0 0.01zm-90.19 -63.42c0,0 0,0 0,0 -7.24,0 -13.11,-5.87 -13.11,-13.1 0,-1.07 0.14,-2.14 0.39,-3.18 13.41,-53.57 61.59,-91.19 116.84,-91.19 36.15,0 70.43,16.28 93.29,44.28 -14.4,18.75 -24.95,40.3 -30.88,63.18l-166.53 0.01zm510.65 0c-5.92,-22.89 -16.47,-44.44 -30.88,-63.18 22.87,-28.01 57.14,-44.28 93.3,-44.28 55.24,0 103.42,37.61 116.83,91.19 0.26,1.03 0.39,2.1 0.39,3.17 0,7.23 -5.87,13.1 -13.11,13.1 0,0 0,0 0,0l-166.53 0zm-172.06 -264.24c39.88,0 72.22,32.34 72.22,72.22 0,39.88 -32.34,72.22 -72.22,72.22 -39.88,0 -72.22,-32.34 -72.22,-72.22 0,-39.88 32.34,-72.22 72.22,-72.22l0 0zm234.46 13.15c33.62,0.01 60.89,27.27 60.89,60.89 0,33.62 -27.27,60.89 -60.89,60.89 -33.62,0 -60.88,-27.27 -60.88,-60.89 0,-33.62 27.26,-60.88 60.88,-60.88l0 -0.01zm-361.05 280.61c0,0 0,0 0,0 -7.24,0 -13.11,-5.86 -13.11,-13.1 0,-0.97 0.11,-1.93 0.32,-2.87 14.64,-65.18 72.56,-111.53 139.38,-111.53 66.82,0 124.74,46.35 139.39,111.53 0.2,0.94 0.31,1.9 0.31,2.87 0,7.24 -5.87,13.1 -13.1,13.1l-253.19 0z"/>
  </g>
 </g>
</svg>
