<?xml version="1.0" encoding="UTF-8"?>
<!DOCTYPE svg PUBLIC "-//W3C//DTD SVG 1.1//EN" "http://www.w3.org/Graphics/SVG/1.1/DTD/svg11.dtd">
<!-- Creator: CorelDRAW -->
<svg xmlns="http://www.w3.org/2000/svg" xml:space="preserve" width="15mm" height="15mm" version="1.1" style="shape-rendering:geometricPrecision; text-rendering:geometricPrecision; image-rendering:optimizeQuality; fill-rule:evenodd; clip-rule:evenodd"
viewBox="0 0 1440.55 1440.55"
 xmlns:xlink="http://www.w3.org/1999/xlink"
 xmlns:xodm="http://www.corel.com/coreldraw/odm/2003">
 <defs>
  <style type="text/css">
   <![CDATA[
    .fil0 {fill:none}
    .fil1 {fill:white;fill-rule:nonzero}
   ]]>
  </style>
 </defs>
 <g id="Layer_x0020_1">
  <metadata id="CorelCorpID_0Corel-Layer"/>
  <circle class="fil0" cx="720.28" cy="720.28" r="720.28"/>
  <path class="fil1" d="M669.8 432.6l-0.06 0c-9.27,0.08 -16.74,7.63 -16.76,16.91 -0.02,9.26 7.43,16.83 16.7,16.95l0.06 0c9.28,-0.1 16.77,-7.63 16.79,-16.91 0,-9.28 -7.45,-16.84 -16.73,-16.95zm-282.66 -0.87l-0.06 0c-9.2,0.17 -16.56,7.67 -16.58,16.87 -0.02,9.22 7.32,16.75 16.52,16.97l0.06 0c9.2,-0.2 16.56,-7.69 16.58,-16.91 0.02,-9.2 -7.32,-16.73 -16.52,-16.95l0 0.02zm675.74 -70.77l-685.22 0c-37.82,0.04 -68.48,30.7 -68.52,68.52l0 106.1 822.27 0 0 -106.1c-0.04,-37.82 -30.7,-68.48 -68.52,-68.52zm-675.8 133.68l-0.15 0c-25.42,-0.04 -46.01,-20.69 -45.99,-46.11 0.02,-25.43 20.65,-46.04 46.07,-46.04 25.44,0 46.06,20.61 46.07,46.04 0.02,25.42 -20.57,46.07 -45.99,46.11zm187.32 -45.41c-0.1,25.33 -20.67,45.83 -46,45.85l-0.12 0c-25.11,-0.44 -45.22,-20.95 -45.19,-46.07 0.04,-25.11 20.21,-45.53 45.31,-45.91l0.15 0c25.4,0.1 45.9,20.74 45.85,46.13zm141.34 0.45c-0.08,25.32 -20.65,45.83 -46,45.85l-0.12 0c-25.3,-0.21 -45.67,-20.78 -45.63,-46.08 0.04,-25.29 20.48,-45.81 45.77,-45.92l0.13 0c25.4,0.09 45.91,20.73 45.85,46.15zm-187.28 -17.53l-0.06 0c-9.16,0.22 -16.48,7.73 -16.48,16.89 -0.02,9.18 7.26,16.69 16.42,16.95l0.06 0c9.18,-0.23 16.49,-7.73 16.51,-16.89 0.01,-9.16 -7.29,-16.69 -16.45,-16.95zm-219.32 578.92c0.04,37.82 30.7,68.48 68.52,68.52l685.22 0c37.82,-0.04 68.48,-30.7 68.52,-68.52l0 -446.43 -822.27 0 0 446.43zm494.54 -277.77c-6.12,-5.21 -6.84,-14.39 -1.63,-20.5 5.19,-6.1 14.37,-6.84 20.48,-1.63l94.06 80.08c3.24,2.78 5.12,6.83 5.12,11.08 0,4.25 -1.88,8.31 -5.12,11.07l-94.06 80.09c-6.11,5.21 -15.29,4.48 -20.48,-1.63 -5.21,-6.12 -4.48,-15.28 1.63,-20.5l81.06 -69.02 -81.06 -69.02zm-130.95 206.18l58.61 -278.31c1.66,-7.86 9.37,-12.88 17.23,-11.23 7.85,1.65 12.88,9.37 11.23,17.23l-58.61 278.31c-1.68,7.86 -9.37,12.88 -17.23,11.23 -7.85,-1.66 -12.88,-9.37 -11.23,-17.23zm-148.77 -148.24l94.06 -80.08c6.11,-5.21 15.29,-4.47 20.48,1.63 5.21,6.12 4.48,15.3 -1.63,20.5l-81.06 69.02 81.07 69.02c6.1,5.22 6.84,14.39 1.63,20.5 -5.21,6.09 -14.39,6.84 -20.49,1.63l-94.04 -80.09c-3.26,-2.77 -5.12,-6.82 -5.12,-11.07 0,-4.25 1.86,-8.31 5.12,-11.08l-0.02 0z"/>
 </g>
</svg>
