<?xml version="1.0" encoding="UTF-8"?>
<!DOCTYPE svg PUBLIC "-//W3C//DTD SVG 1.1//EN" "http://www.w3.org/Graphics/SVG/1.1/DTD/svg11.dtd">
<!-- Creator: CorelDRAW -->
<svg xmlns="http://www.w3.org/2000/svg" xml:space="preserve" width="15mm" height="15mm" version="1.1" style="shape-rendering:geometricPrecision; text-rendering:geometricPrecision; image-rendering:optimizeQuality; fill-rule:evenodd; clip-rule:evenodd"
viewBox="0 0 372.96 372.96"
 xmlns:xlink="http://www.w3.org/1999/xlink"
 xmlns:xodm="http://www.corel.com/coreldraw/odm/2003">
 <defs>
  <style type="text/css">
   <![CDATA[
    .fil0 {fill:none}
    .fil1 {fill:white;fill-rule:nonzero}
   ]]>
  </style>
 </defs>
 <g id="Layer_x0020_1">
  <metadata id="CorelCorpID_0Corel-Layer"/>
  <circle class="fil0" cx="186.48" cy="186.48" r="186.48"/>
  <path class="fil1" d="M175.31 256.39c0,-4.4 -3.57,-7.96 -7.96,-7.96 -2.11,0 -4.14,0.84 -5.63,2.33l7.51 -7.51c1.49,-1.49 2.33,-3.52 2.33,-5.63 0,-4.4 -3.57,-7.96 -7.96,-7.96 -2.11,0 -4.14,0.84 -5.63,2.33 1.49,-1.49 2.33,-3.52 2.33,-5.63 0,-4.4 -3.57,-7.96 -7.96,-7.96 -2.11,0 -4.14,0.84 -5.63,2.33l30.04 -30.04c1.49,-1.49 2.33,-3.52 2.33,-5.63 0,-4.4 -3.57,-7.96 -7.96,-7.96 -2.11,0 -4.14,0.84 -5.63,2.33l-53.52 53.52 3.13 -3.13c4.91,-4.91 7.67,-11.57 7.67,-18.52 0,-5.17 -1.53,-10.22 -4.4,-14.52l-0.93 -1.4c-1.36,-2.04 -3.65,-3.27 -6.11,-3.27 -4.05,0 -7.33,3.28 -7.33,7.34 0,7.42 -2.41,14.65 -6.86,20.58l-7.7 10.27c-5.17,6.9 -7.96,15.28 -7.96,23.89l0 3.22c-0,22 17.83,39.83 39.82,39.83 10.56,0 20.69,-4.19 28.16,-11.67l23.55 -23.55c1.49,-1.49 2.33,-3.52 2.33,-5.63zm-16.38 -95.54c-3.75,-3.43 -6.15,-8.33 -6.15,-13.8 0,-10.35 8.42,-18.77 18.77,-18.77 10.35,0 18.77,8.42 18.77,18.77 0,5.48 -2.39,10.37 -6.15,13.8 6.24,2.53 11.64,6.85 15.44,12.55 3.62,-5.4 5.73,-11.87 5.73,-18.84 0,-18.63 -15.16,-33.79 -33.79,-33.79 -18.64,0 -33.79,15.16 -33.79,33.79 0,6.83 2.11,13.32 5.77,18.78 3.79,-5.67 9.17,-9.98 15.4,-12.49l0 0zm-81.24 -13.8c0,-10.35 8.42,-18.77 18.77,-18.77 10.35,0 18.77,8.42 18.77,18.77 0,5.48 -2.39,10.37 -6.15,13.8 6.24,2.52 11.63,6.85 15.43,12.53 3.63,-5.39 5.74,-11.86 5.74,-18.82 0,-18.63 -15.16,-33.79 -33.79,-33.79 -18.64,0 -33.79,15.16 -33.79,33.79 0,6.96 2.12,13.44 5.74,18.82 3.8,-5.68 9.19,-10 15.43,-12.53 -3.75,-3.43 -6.15,-8.32 -6.15,-13.8zm168.96 -26.28c-18.63,0 -33.79,15.16 -33.79,33.79 0,6.96 2.12,13.44 5.74,18.82 3.79,-5.68 9.19,-10 15.43,-12.53 -3.75,-3.43 -6.15,-8.32 -6.15,-13.8 0,-10.35 8.42,-18.77 18.77,-18.77 10.35,0 18.77,8.42 18.77,18.77 0,5.48 -2.4,10.37 -6.15,13.8 6.24,2.52 11.63,6.85 15.43,12.53 3.62,-5.39 5.74,-11.86 5.74,-18.82 0,-18.63 -15.16,-33.79 -33.79,-33.79zm11.26 26.28c0,-6.22 -5.04,-11.26 -11.26,-11.26 -6.22,0 -11.26,5.04 -11.26,11.26 0,6.22 5.04,11.27 11.26,11.27 6.22,0 11.26,-5.04 11.26,-11.27zm0 101.37c0,4.14 -3.37,7.51 -7.51,7.51l-67.63 0c0,0.15 0.05,0.3 0.05,0.46 0,4.07 -1.65,8.06 -4.53,10.94l-23.55 23.55c-0.65,0.65 -1.36,1.24 -2.04,1.85 1.22,0.44 2.49,0.75 3.84,0.75l97.62 0c6.21,0 11.26,-5.05 11.26,-11.26l0 -90.91c-2.38,1.22 -4.89,2.22 -7.51,2.96l-0 54.16zm-41.3 33.79l-22.53 0c-4.15,0 -7.51,-3.36 -7.51,-7.51 0,-4.15 3.36,-7.51 7.51,-7.51l22.53 0c4.15,0 7.51,3.36 7.51,7.51 0,4.15 -3.36,7.51 -7.51,7.51zm30.04 -116.39c-9.58,0 -18.28,5.26 -22.89,13.52 6.03,5.57 14.06,9.01 22.89,9.01 8.84,0 16.86,-3.44 22.89,-9.01 -4.61,-8.26 -13.31,-13.52 -22.89,-13.52zm-97.98 13.53c1.09,1 2.27,1.91 3.48,2.78l8.02 -8.02c2.87,-2.88 6.86,-4.53 10.94,-4.53 8.46,0 15.34,6.83 15.46,15.27 2.91,-1.44 5.58,-3.26 7.93,-5.43 -4.6,-8.31 -13.33,-13.6 -22.93,-13.6 -9.58,0 -18.28,5.26 -22.89,13.53zm4.12 -73.6c0,-4.14 3.37,-7.51 7.51,-7.51l90.11 0c4.14,0 7.51,3.37 7.51,7.51l0 9.11c2.62,0.74 5.13,1.74 7.51,2.96l0 -30.84c0,-6.21 -5.05,-11.26 -11.26,-11.26l-97.62 0c-6.21,0 -11.27,5.05 -11.27,11.26l0 35.75c2.3,-1.9 4.83,-3.53 7.51,-4.91l0 -12.07zm30.04 -22.53l45.06 0 0 7.51 -45.06 0 0 -7.51zm-26.28 0c2.07,0 3.75,1.68 3.75,3.75 0,2.07 -1.68,3.75 -3.75,3.75 -2.07,0 -3.75,-1.68 -3.75,-3.75 0,-2.07 1.68,-3.75 3.75,-3.75zm26.28 63.83c0,-6.22 -5.04,-11.26 -11.26,-11.26 -6.22,0 -11.26,5.04 -11.26,11.26 0,6.22 5.04,11.27 11.26,11.27 6.22,0 11.26,-5.04 11.26,-11.27zm63.83 -33.79c1.27,0 2.52,0.08 3.76,0.19l0 -7.7 -90.11 0 0 9.11c3.59,-1.02 7.35,-1.6 11.26,-1.6 16.67,0 31.03,9.95 37.55,24.19 6.52,-14.25 20.88,-24.19 37.54,-24.19zm-127.29 66.08c-4.61,-8.26 -13.31,-13.52 -22.89,-13.52 -9.58,0 -18.28,5.26 -22.89,13.52 6.03,5.57 14.06,9.01 22.89,9.01 8.83,0 16.86,-3.44 22.89,-9.01zm61.15 69.08l69.9 0 0 -52.76c-1.24,0.11 -2.49,0.19 -3.76,0.19 -16.65,0 -30.99,-9.92 -37.52,-24.15 -4.82,10.6 -14.01,18.75 -25.41,22.25 -0.5,0.71 -1.04,1.4 -1.67,2.03l-19.11 19.11c2.12,2 3.68,4.59 4.41,7.5 6.72,1.68 11.72,7.77 11.72,15.02 0,2.44 -0.59,4.85 -1.68,7 1.25,1.07 2.26,2.39 3.12,3.81zm36.1 -41.3l22.53 0 0 30.04 -22.53 0 0 -30.04zm-33.79 -3.75l22.53 0 0 7.51 -22.53 0 0 -7.51zm0 15.02l22.53 0 0 7.51 -22.53 0 0 -7.51zm0 15.02l22.53 0 0 7.51 -22.53 0 0 -7.51zm-75.09 -86.36c0,-6.22 -5.04,-11.26 -11.26,-11.26 -6.22,0 -11.26,5.04 -11.26,11.26 0,6.22 5.04,11.27 11.26,11.27 6.22,0 11.26,-5.04 11.26,-11.27z"/>
 </g>
</svg>
