<?xml version="1.0" encoding="UTF-8"?>
<!DOCTYPE svg PUBLIC "-//W3C//DTD SVG 1.1//EN" "http://www.w3.org/Graphics/SVG/1.1/DTD/svg11.dtd">
<!-- Creator: CorelDRAW -->
<svg xmlns="http://www.w3.org/2000/svg" xml:space="preserve" width="15mm" height="15mm" version="1.1" style="shape-rendering:geometricPrecision; text-rendering:geometricPrecision; image-rendering:optimizeQuality; fill-rule:evenodd; clip-rule:evenodd"
viewBox="0 0 372.96 372.96"
 xmlns:xlink="http://www.w3.org/1999/xlink"
 xmlns:xodm="http://www.corel.com/coreldraw/odm/2003">
 <defs>
  <style type="text/css">
   <![CDATA[
    .fil0 {fill:none}
    .fil1 {fill:white}
   ]]>
  </style>
 </defs>
 <g id="Layer_x0020_1">
  <metadata id="CorelCorpID_0Corel-Layer"/>
  <circle class="fil0" cx="186.48" cy="186.48" r="186.48"/>
  <path class="fil1" d="M108.31 255.94l0 43.19 10.35 0 0 -43.19c2.13,0 3.86,-1.73 3.86,-3.86l5.65 0c4.04,0 6.15,3.23 7.36,7.36l11.66 39.69 2.99 0 0 -49.48c-5.76,-13.86 -14.02,-22.11 -28.47,-22.11l-4.05 0c-4.04,0 -7.36,-3.32 -7.36,-7.36l0 -11.66 -14.04 -9.06c-7.19,-4.64 -9.3,-14.3 -4.68,-21.51 3.81,-5.93 11.03,-8.42 17.48,-6.53 -2,-4.08 -6.21,-6.87 -11.07,-6.87 -6.74,0 -12.24,5.49 -12.24,12.24l0 43.4c0,11.74 6.45,22.47 16.71,28.05l-16.41 0c-6.31,0 -11.48,-5.17 -11.48,-11.48l0 -56.37c0,-2.13 -1.73,-3.86 -3.86,-3.86 -2.13,0 -3.86,1.73 -3.86,3.86l0 56.37c0,10.57 8.63,19.2 19.2,19.2l22.24 0 0 0zm106.74 -35.47l0 74.8c0,2.12 -1.74,3.86 -3.86,3.86l-49.42 0c-2.12,0 -3.86,-1.74 -3.86,-3.86l0 -74.8 -21.05 0c-1.59,0 -2.89,-1.3 -2.89,-2.89l0 -5.42c0,-1.59 1.3,-2.89 2.89,-2.89l99.24 0c1.59,0 2.89,1.3 2.89,2.89l0 5.42c0,1.59 -1.3,2.89 -2.89,2.89l-21.05 0zm49.6 35.47l22.24 0c10.56,0 19.2,-8.63 19.2,-19.2l0 -56.37c0,-2.13 -1.73,-3.86 -3.86,-3.86 -2.13,0 -3.86,1.73 -3.86,3.86l0 56.37c0,6.31 -5.17,11.48 -11.48,11.48l-16.41 0c10.26,-5.58 16.71,-16.31 16.71,-28.05l0 -43.4c0,-6.74 -5.5,-12.24 -12.24,-12.24 -4.86,0 -9.07,2.79 -11.07,6.87 6.45,-1.88 13.68,0.6 17.48,6.54 4.63,7.21 2.52,16.87 -4.68,21.51l-14.04 9.06 0 11.66c0,4.04 -3.32,7.36 -7.36,7.36l-4.05 0c-14.45,0 -22.71,8.25 -28.47,22.11l0 49.48 2.99 0 11.66 -39.69c1.22,-4.13 3.32,-7.36 7.36,-7.36l5.65 0c0,2.13 1.73,3.86 3.86,3.86l0 43.19 10.35 0 0 -43.19zm-12.22 -51.5l-39.31 0.01c-4.35,0 -7.87,-3.53 -7.87,-7.87 0,-4.35 3.53,-7.87 7.87,-7.87l37.02 0 13.88 -8.96c3.65,-2.34 8.51,-1.28 10.86,2.37 2.34,3.65 1.28,8.51 -2.37,10.86l-15.84 10.22c-1.32,0.85 -2.79,1.25 -4.24,1.25l0 0zm22.09 -73.28c-8.6,0 -15.57,6.97 -15.57,15.57 0,8.6 6.97,15.58 15.57,15.58 8.6,0 15.57,-6.97 15.57,-15.58 0,-8.6 -6.97,-15.57 -15.57,-15.57zm-52.85 -56.98c-17.48,0 -31.66,14.17 -31.66,31.66 0,17.48 14.17,31.66 31.66,31.66 3.53,0 6.93,-0.58 10.1,-1.65l19.62 5.26 -4.37 -16.31c3.96,-5.29 6.3,-11.85 6.3,-18.96 0,-17.48 -14.17,-31.66 -31.66,-31.66zm-42.81 44.35c0,-12.42 0,-24.84 0,-37.26 0,-4.1 -3.34,-7.43 -7.44,-7.43 -18.15,0 -36.3,0 -54.45,0 -4.1,0 -7.44,3.34 -7.44,7.43l0 37.26c0,4.1 3.34,7.43 7.44,7.43l6.29 0 0 15.14 14.55 -15.14 33.61 0c4.1,0 7.44,-3.34 7.44,-7.43l0 0zm-51.74 -23.64c-2.13,0 -3.86,-1.73 -3.86,-3.86 0,-2.13 1.73,-3.86 3.86,-3.86l34.16 0c2.13,0 3.86,1.73 3.86,3.86 0,2.13 -1.73,3.86 -3.86,3.86l-34.16 0zm0 17.72c-2.13,0 -3.86,-1.73 -3.86,-3.86 0,-2.13 1.73,-3.86 3.86,-3.86l34.16 0c2.13,0 3.86,1.73 3.86,3.86 0,2.13 -1.73,3.86 -3.86,3.86l-34.16 0zm-6.59 91.83c-1.45,-0 -2.93,-0.41 -4.24,-1.25l-15.84 -10.22c-3.65,-2.34 -4.71,-7.2 -2.37,-10.86 2.34,-3.65 7.2,-4.71 10.86,-2.37l13.88 8.96 37.02 0c4.35,0 7.87,3.52 7.87,7.87 0,4.35 -3.53,7.87 -7.87,7.87l-39.31 -0.01zm-22.89 -73.28c8.6,0 15.57,6.97 15.57,15.57 0,8.6 -6.97,15.58 -15.57,15.58 -8.6,0 -15.58,-6.97 -15.58,-15.58 0,-8.6 6.97,-15.57 15.58,-15.57zm109.86 -30.33c-2.13,0 -3.86,-1.73 -3.86,-3.86 0,-2.13 1.73,-3.86 3.86,-3.86l28.35 0c2.13,0 3.86,1.73 3.86,3.86 0,2.13 -1.73,3.86 -3.86,3.86l-28.35 0zm0 17.72c-2.13,0 -3.86,-1.73 -3.86,-3.86 0,-2.13 1.73,-3.86 3.86,-3.86l28.35 0c2.13,0 3.86,1.73 3.86,3.86 0,2.13 -1.73,3.86 -3.86,3.86l-28.35 0z"/>
 </g>
</svg>
