<?xml version="1.0" encoding="UTF-8"?>
<!DOCTYPE svg PUBLIC "-//W3C//DTD SVG 1.1//EN" "http://www.w3.org/Graphics/SVG/1.1/DTD/svg11.dtd">
<!-- Creator: CorelDRAW -->
<svg xmlns="http://www.w3.org/2000/svg" xml:space="preserve" width="15mm" height="15mm" version="1.1" style="shape-rendering:geometricPrecision; text-rendering:geometricPrecision; image-rendering:optimizeQuality; fill-rule:evenodd; clip-rule:evenodd"
viewBox="0 0 372.96 372.96"
 xmlns:xlink="http://www.w3.org/1999/xlink"
 xmlns:xodm="http://www.corel.com/coreldraw/odm/2003">
 <defs>
  <style type="text/css">
   <![CDATA[
    .fil0 {fill:none}
    .fil1 {fill:white;fill-rule:nonzero}
   ]]>
  </style>
 </defs>
 <g id="Layer_x0020_1">
  <metadata id="CorelCorpID_0Corel-Layer"/>
  <circle class="fil0" cx="186.48" cy="186.48" r="186.48"/>
  <path id="path2813" class="fil1" d="M186.48 70.44c-17.07,0 -33.31,3.67 -47.91,10.31 -2,0.91 -2.84,3.29 -1.86,5.26l6.91 13.85c0.93,1.86 3.16,2.65 5.05,1.8 11.55,-5.15 24.33,-7.99 37.81,-7.99 51.32,0 92.83,41.51 92.83,92.83 0,19.3 -5.94,37.14 -16.02,52l-12.19 -12.2c-0.83,-0.84 -2,-1.24 -3.17,-1.11 -1.95,0.23 -3.43,1.88 -3.42,3.85l0 42.55c-0.01,2.14 1.72,3.88 3.85,3.88l42.54 0c3.47,0.03 5.22,-4.19 2.74,-6.63l-13.71 -13.71c14.15,-19.23 22.6,-42.95 22.6,-68.64 0,-64.04 -52,-116.04 -116.04,-116.04l0 0zm-104.45 27.07c-3.44,0 -5.17,4.15 -2.74,6.6l13.72 13.72c-14.15,19.23 -22.57,42.97 -22.57,68.66 0,64.04 52,116.04 116.04,116.04 17.07,0 33.31,-3.7 47.91,-10.34 2,-0.91 2.84,-3.3 1.85,-5.26l-6.94 -13.85c-0.93,-1.84 -3.14,-2.63 -5.02,-1.8 -11.55,5.15 -24.33,8.02 -37.81,8.02 -51.32,0 -92.83,-41.51 -92.83,-92.83 0,-19.3 5.91,-37.16 15.97,-52.02l12.24 12.21c2.44,2.43 6.59,0.7 6.6,-2.74l0 -42.54c0.01,-2.15 -1.74,-3.89 -3.88,-3.88l-42.55 0zm111.99 23.21c-1.26,0.06 -2.41,0.74 -3.09,1.81l-46.4 73.49c-1.63,2.57 0.21,5.92 3.25,5.94l30.64 0 -3.54 46.11c-0.28,3.99 4.94,5.73 7.11,2.37l46.43 -73.5c1.63,-2.58 -0.23,-5.95 -3.29,-5.94l-30.63 0 3.57 -46.11c0.18,-2.32 -1.72,-4.29 -4.05,-4.17l0 0z" font-variant-ligatures="normal" font-variant-position="normal" font-variant-caps="normal" font-variant-numeric="normal" font-variant-alternates="normal" font-feature-settings="normal" text-indent="0" text-decoration-line="none" text-decoration-style="solid" text-decoration-color="rgb(0,0,0)" text-transform="none" text-orientation="mixed" white-space="normal" shape-padding="0" isolation="auto" mix-blend-mode="normal" solid-color="rgb(0,0,0)" solid-opacity="1" vector-effect="none"/>
 </g>
</svg>
