<?xml version="1.0" encoding="UTF-8"?>
<!DOCTYPE svg PUBLIC "-//W3C//DTD SVG 1.1//EN" "http://www.w3.org/Graphics/SVG/1.1/DTD/svg11.dtd">
<!-- Creator: CorelDRAW -->
<svg xmlns="http://www.w3.org/2000/svg" xml:space="preserve" width="15mm" height="15mm" version="1.1" style="shape-rendering:geometricPrecision; text-rendering:geometricPrecision; image-rendering:optimizeQuality; fill-rule:evenodd; clip-rule:evenodd"
viewBox="0 0 1006.5 1006.5"
 xmlns:xlink="http://www.w3.org/1999/xlink"
 xmlns:xodm="http://www.corel.com/coreldraw/odm/2003">
 <defs>
  <style type="text/css">
   <![CDATA[
    .fil0 {fill:none}
    .fil1 {fill:white;fill-rule:nonzero}
   ]]>
  </style>
 </defs>
 <g id="Layer_x0020_1">
  <metadata id="CorelCorpID_0Corel-Layer"/>
  <circle class="fil0" cx="503.25" cy="503.25" r="503.25"/>
  <g id="_2343369451696">
   <path class="fil1" d="M209.98 700.74l15.07 7.54 0 76.88c0,5.75 4.65,10.41 10.41,10.41l62.49 0c5.76,0 10.41,-4.67 10.41,-10.41l0 -76.88 10.41 -5.21 10.41 5.21 0 76.88c0,5.74 4.66,10.41 10.41,10.41l62.49 0c5.76,0 10.42,-4.67 10.42,-10.41l0 -76.88 15.07 -7.54c3.53,-1.76 5.76,-5.37 5.76,-9.31l0 -52.08c0,-20.83 -12.37,-38.71 -30.09,-47.03 5.7,-7.13 9.26,-16.05 9.26,-25.87 0,-22.98 -18.69,-41.66 -41.66,-41.66 -22.98,0 -41.66,18.69 -41.66,41.66 0,9.82 3.56,18.74 9.26,25.87 -7.83,3.68 -14.56,9.24 -19.67,16.11 -5.13,-6.87 -11.84,-12.43 -19.67,-16.11 5.7,-7.13 9.26,-16.05 9.26,-25.87 0,-22.98 -18.69,-41.66 -41.66,-41.66 -22.98,0 -41.66,18.69 -41.66,41.66 0,9.82 3.56,18.74 9.26,25.87 -17.71,8.32 -30.09,26.2 -30.09,47.03l0 52.08c0,3.95 2.23,7.55 5.76,9.32l0.01 0zm98.39 -363.43l20.83 0 0 20.83 -20.83 0 0 -20.83zm0 41.66l20.83 0 0 20.83 -20.83 0 0 -20.83zm0 41.66l20.83 0 0 20.83 -20.83 0 0 -20.83zm0 41.66l20.83 0 0 20.83 -20.83 0 0 -20.83zm0 41.66l20.83 0 0 20.83 -20.83 0 0 -20.83zm395.77 -166.64l20.83 0 0 20.83 -20.83 0 0 -20.83zm0 41.66l20.83 0 0 20.83 -20.83 0 0 -20.83zm0 41.66l20.83 0 0 20.83 -20.83 0 0 -20.83zm0 41.66l20.83 0 0 20.83 -20.83 0 0 -20.83zm0 41.66l20.83 0 0 20.83 -20.83 0 0 -20.83zm-10.19 186.65l10.47 -104.15 20.73 2.09 -10.47 104.15 -20.73 -2.08zm-28.42 -89.85l-31.24 31.24c-4.07,4.07 -4.07,10.66 0,14.73l31.24 31.24 14.73 -14.73 -23.88 -23.88 23.88 -23.88 -14.73 -14.72zm87.63 0l-14.73 14.72 23.88 23.88 -23.88 23.88 14.73 14.73 31.25 -31.24c4.07,-4.07 4.07,-10.66 0,-14.73l-31.25 -31.24zm44.71 -55.13l-187.46 0c-17.23,0 -31.25,14.02 -31.25,31.24l0 135.4c0,17.22 14.02,31.24 31.25,31.24l62.49 0 0 31.25 -41.66 0 0 20.83 145.81 0 0 -20.83 -41.66 0 0 -31.25 62.49 0c17.23,0 31.25,-14.02 31.25,-31.24l0 -135.4c0,-17.22 -14.02,-31.24 -31.25,-31.24zm-83.32 229.13l-20.83 0 0 -31.25 20.83 0 0 31.25zm93.74 -62.49c0,5.74 -4.67,10.41 -10.42,10.41l-187.46 0c-5.75,0 -10.42,-4.68 -10.42,-10.42l0 -135.39c0,-5.74 4.67,-10.41 10.42,-10.41l187.46 0c5.75,0 10.42,4.68 10.42,10.41l0 135.4zm-323.58 -359.91l-4.07 24.95c-0.64,3.93 1.03,7.89 4.28,10.19 3.26,2.3 7.56,2.52 11.05,0.6l20.69 -11.45 20.69 11.45c1.58,0.86 3.32,1.3 5.05,1.3 2.11,0 4.21,-0.65 6,-1.91 3.25,-2.29 4.93,-6.25 4.28,-10.19l-4.07 -24.95 17.16 -17.59c2.72,-2.79 3.66,-6.88 2.42,-10.58 -1.25,-3.71 -4.45,-6.41 -8.3,-6.99l-23.29 -3.56 -10.52 -22.4c-1.7,-3.65 -5.37,-5.99 -9.41,-5.99 -4.04,0 -7.7,2.34 -9.42,5.99l-10.52 22.4 -23.29 3.56c-3.85,0.58 -7.06,3.28 -8.3,6.99 -1.24,3.7 -0.3,7.79 2.42,10.58l17.16 17.59zm20.65 -18.97c3.43,-0.52 6.37,-2.72 7.85,-5.86l3.45 -7.35 3.45 7.35c1.48,3.14 4.42,5.34 7.85,5.86l8.75 1.33 -6.68 6.84c-2.31,2.36 -3.36,5.69 -2.82,8.94l1.47 8.98 -6.97 -3.85c-1.57,-0.87 -3.3,-1.3 -5.04,-1.3 -1.74,0 -3.47,0.44 -5.05,1.3l-6.97 3.85 1.47 -8.98c0.53,-3.25 -0.52,-6.58 -2.82,-8.94l-6.68 -6.84 8.73 -1.32zm-144.92 -37.72c-5.76,0 -10.41,4.67 -10.41,10.41l0 62.49c0,5.75 4.65,10.41 10.41,10.41l16.6 0c2.85,9.56 6.68,18.79 11.45,27.59l-11.75 11.76c-4.07,4.07 -4.07,10.65 0,14.72l44.19 44.19c3.91,3.91 10.82,3.91 14.72,0l11.76 -11.76c8.8,4.77 18.03,8.6 27.59,11.45l0 16.6c0,5.75 4.65,10.41 10.41,10.41l62.49 0c5.76,0 10.41,-4.66 10.41,-10.41l0 -16.6c9.56,-2.85 18.79,-6.68 27.59,-11.45l11.76 11.76c3.91,3.91 10.82,3.91 14.73,0l44.18 -44.19c4.07,-4.07 4.07,-10.66 0,-14.73l-11.75 -11.76c4.77,-8.8 8.6,-18.03 11.46,-27.59l16.6 0c5.76,0 10.41,-4.66 10.41,-10.41l0 -62.49c0,-5.75 -4.66,-10.41 -10.41,-10.41l-16.61 0c-2.85,-9.56 -6.68,-18.79 -11.45,-27.59l11.75 -11.76c4.07,-4.07 4.07,-10.66 0,-14.73l-44.18 -44.19c-3.91,-3.91 -10.82,-3.91 -14.73,0l-11.76 11.76c-8.8,-4.77 -18.02,-8.6 -27.58,-11.46l0 -16.6c0,-5.75 -4.66,-10.41 -10.41,-10.41l-62.49 0c-5.76,0 -10.41,4.67 -10.41,10.41l0 16.6c-9.56,2.86 -18.8,6.69 -27.59,11.46l-11.76 -11.76c-3.91,-3.91 -10.82,-3.91 -14.72,0l-44.19 44.19c-4.07,4.07 -4.07,10.66 0,14.73l11.75 11.76c-4.77,8.8 -8.59,18.03 -11.45,27.59l-16.6 0zm34.72 12.81c3.07,-12.94 8.19,-25.26 15.2,-36.65 2.54,-4.11 1.93,-9.41 -1.5,-12.83l-10.04 -10.05 29.46 -29.46 10.04 10.05c3.4,3.4 8.74,4.03 12.84,1.5 11.38,-7.03 23.7,-12.14 36.65,-15.2 4.7,-1.1 8.02,-5.3 8.02,-10.12l0 -14.19 41.66 0 0 14.19c0,4.82 3.31,9.02 8.03,10.13 12.93,3.06 25.26,8.17 36.65,15.2 4.09,2.53 9.41,1.91 12.83,-1.5l10.05 -10.05 29.45 29.47 -10.04 10.04c-3.42,3.42 -4.04,8.73 -1.5,12.84 7.03,11.38 12.14,23.71 15.21,36.65 1.1,4.7 5.3,8.02 10.13,8.02l14.17 0 0 41.66 -14.17 0c-4.83,0 -9.02,3.31 -10.13,8.02 -3.07,12.94 -8.19,25.26 -15.2,36.65 -2.54,4.11 -1.93,9.41 1.5,12.83l10.04 10.05 -29.45 29.46 -10.05 -10.05c-3.42,-3.42 -8.75,-4.04 -12.83,-1.5 -11.39,7.03 -23.71,12.15 -36.65,15.2 -4.7,1.11 -8.02,5.31 -8.02,10.13l0 14.16 -41.66 0 0 -14.18c0,-4.82 -3.31,-9.02 -8.02,-10.13 -12.94,-3.07 -25.27,-8.18 -36.65,-15.2 -4.11,-2.54 -9.44,-1.93 -12.84,1.5l-10.04 10.05 -29.46 -29.46 10.04 -10.05c3.42,-3.42 4.05,-8.73 1.5,-12.83 -7.02,-11.39 -12.13,-23.71 -15.2,-36.65 -1.11,-4.7 -5.3,-8.01 -10.13,-8.01l-14.18 0 0 -41.66 14.17 0c4.84,0 9.03,-3.31 10.14,-8.02l0 0zm121.5 133c57.43,0 104.15,-46.72 104.15,-104.15 0,-57.43 -46.72,-104.15 -104.15,-104.15 -57.42,0 -104.15,46.72 -104.15,104.15 0,57.42 46.73,104.15 104.15,104.15zm0 -187.47c45.94,0 83.32,37.38 83.32,83.33 0,45.94 -37.37,83.32 -83.32,83.32 -45.94,0 -83.32,-37.38 -83.32,-83.32 0,-45.94 37.38,-83.33 83.32,-83.33zm-145.81 291.62c11.49,0 20.83,9.34 20.83,20.83 0,11.49 -9.34,20.83 -20.83,20.83 -11.49,0 -20.83,-9.35 -20.83,-20.83 0,-11.49 9.34,-20.83 20.83,-20.83zm-10.41 62.49l20.83 0c17.22,0 31.25,14.02 31.25,31.24l0 45.64 -15.07 7.54c-3.54,1.76 -5.76,5.36 -5.76,9.31l0 72.91 -41.66 0 0 -72.91c0,-3.95 -2.23,-7.55 -5.76,-9.32l-15.07 -7.53 0 -45.64c0,-17.22 14.02,-31.24 31.25,-31.24zm-93.74 -62.49c11.49,0 20.83,9.34 20.83,20.83 0,11.49 -9.35,20.83 -20.83,20.83 -11.49,0 -20.83,-9.35 -20.83,-20.83 0,-11.49 9.34,-20.83 20.83,-20.83zm-41.66 93.73c0,-17.22 14.02,-31.24 31.24,-31.24l20.83 0c17.23,0 31.25,14.02 31.25,31.24l0 45.64 -15.07 7.54c-3.53,1.76 -5.76,5.36 -5.76,9.31l0 72.91 -41.66 0 0 -72.91c0,-3.95 -2.23,-7.55 -5.76,-9.32l-15.07 -7.53 0 -45.64z"/>
  </g>
 </g>
</svg>
