<?xml version="1.0" encoding="UTF-8"?>
<!DOCTYPE svg PUBLIC "-//W3C//DTD SVG 1.1//EN" "http://www.w3.org/Graphics/SVG/1.1/DTD/svg11.dtd">
<!-- Creator: CorelDRAW -->
<svg xmlns="http://www.w3.org/2000/svg" xml:space="preserve" width="15mm" height="15mm" version="1.1" style="shape-rendering:geometricPrecision; text-rendering:geometricPrecision; image-rendering:optimizeQuality; fill-rule:evenodd; clip-rule:evenodd"
viewBox="0 0 419.83 419.83"
 xmlns:xlink="http://www.w3.org/1999/xlink"
 xmlns:xodm="http://www.corel.com/coreldraw/odm/2003">
 <defs>
  <style type="text/css">
   <![CDATA[
    .fil0 {fill:none}
    .fil1 {fill:white;fill-rule:nonzero}
   ]]>
  </style>
 </defs>
 <g id="Layer_x0020_1">
  <metadata id="CorelCorpID_0Corel-Layer"/>
  <circle class="fil0" cx="209.92" cy="209.92" r="209.92"/>
  <path class="fil1" d="M271.34 168.97c0,-3.77 -3.06,-6.82 -6.82,-6.82 -3.77,0 -6.83,3.05 -6.83,6.82 0,3.77 3.06,6.82 6.83,6.82 3.77,0 6.82,-3.06 6.82,-6.82zm-68.24 84.72l-47.77 47.77 -13.65 -13.65 -38.57 38.57 99.99 0 0 -72.7zm-47.77 28.47l47.77 -47.77 0 -17.65 -109.64 0 0 99.99 48.22 -48.22 13.65 13.65zm-20.47 -24.47l-13.65 0 0 -13.65 13.65 0 0 13.65zm81.89 68.7l109.64 0 0 -95.99 -109.64 0 0 95.99zm27.3 -68.7l54.6 0 0 13.65 -54.6 0 0 -13.65zm0 27.3l54.6 0 0 13.65 -54.6 0 0 -13.65zm-40.95 -191.53l-109.64 0 0 109.64 109.64 0 0 -109.64zm-81.89 87.58l0 -65.06 54.21 32.53 -54.21 32.53zm13.65 -40.95l0 16.83 14.03 -8.42 -14.03 -8.42zm81.89 76.66l109.64 0 0 -123.29 -109.64 0 0 123.29zm47.77 -68.24c2.4,0 4.68,0.49 6.82,1.26l0 -28.55 27.3 0 0 13.65 -13.65 0 0 34.12c0,11.29 -9.18,20.47 -20.47,20.47 -11.29,0 -20.47,-9.18 -20.47,-20.47 0,-11.29 9.18,-20.47 20.47,-20.47z"/>
 </g>
</svg>
