<?xml version="1.0" encoding="UTF-8"?>
<!DOCTYPE svg PUBLIC "-//W3C//DTD SVG 1.1//EN" "http://www.w3.org/Graphics/SVG/1.1/DTD/svg11.dtd">
<!-- Creator: CorelDRAW -->
<svg xmlns="http://www.w3.org/2000/svg" xml:space="preserve" width="15mm" height="15mm" version="1.1" style="shape-rendering:geometricPrecision; text-rendering:geometricPrecision; image-rendering:optimizeQuality; fill-rule:evenodd; clip-rule:evenodd"
viewBox="0 0 419.83 419.83"
 xmlns:xlink="http://www.w3.org/1999/xlink"
 xmlns:xodm="http://www.corel.com/coreldraw/odm/2003">
 <defs>
  <style type="text/css">
   <![CDATA[
    .fil0 {fill:none}
    .fil1 {fill:white}
   ]]>
  </style>
 </defs>
 <g id="Layer_x0020_1">
  <metadata id="CorelCorpID_0Corel-Layer"/>
  <circle class="fil0" cx="209.92" cy="209.92" r="209.92"/>
  <g id="_2523896521296">
   <path class="fil1" d="M151.46 148.33c0.89,-3.82 3.24,-10.77 4.41,-14.86l1.52 -4.98c0.46,-1.65 1.12,-3.13 1.59,-4.79 1.86,-6.52 4.12,-13.94 2.48,-21 -0.58,0.16 -2.26,1.84 -2.68,2.26l-1.32 1.2c-0.41,0.41 -0.85,0.91 -1.28,1.25 -1.67,1.33 -6.99,6.87 -8.84,8.86 -0.42,0.46 -0.83,0.82 -1.27,1.26 -0.28,0.28 -0.3,0.37 -0.54,0.66l-4.27 4.64c-0.28,0.27 -0.31,0.32 -0.56,0.64 -0.24,0.31 -0.4,0.4 -0.64,0.69 -3.47,4.12 -7.1,8.11 -10.34,12.42 -0.39,0.51 -0.73,0.92 -1.12,1.41l-9.67 12.96 -8.19 12.04c-1.72,2.59 -6.11,9.43 -7.76,12.47l-3.7 6.41c-1.24,2.08 -2.52,4.34 -3.6,6.51l-3.49 6.62c-2.24,4.48 -4.54,8.95 -6.58,13.53 -2.08,4.67 -4.15,9.28 -6.09,14.14l-6.21 16.55c-1.91,5.75 -3.86,11.48 -5.4,17.35 -2.33,8.88 -4.02,15.65 -5.75,24.59l-1.49 8.62c-1.27,7.51 -2.02,15.07 -2.63,22.66l-0.13 2.4c0.02,1.87 -0.36,5.08 -0.36,7.22 0.31,-0.08 0.45,-0.2 0.69,-0.39 0.25,-0.2 0.45,-0.34 0.67,-0.53 2.81,-2.57 3.84,-9.03 4.19,-12.66 0.22,-2.24 0.59,-6.53 0.59,-8.93 -0,-1.4 0.62,-7.73 0.75,-8.88 1.06,-9.57 2.67,-19.19 5.01,-28.46 3.18,-12.6 5.85,-20.66 10.25,-32.86 1.25,-3.46 2.63,-6.89 4.1,-10.22 1.96,-4.43 3.72,-8.92 5.9,-13.24 0.54,-1.06 1.03,-2.19 1.57,-3.25l4.81 -9.51c3.28,-6.6 9.26,-16.56 13.15,-22.73l8.62 -12.93c3.08,-4.55 11.99,-16.3 15.1,-19.57l3.92 -4.5c0.88,-1.1 5.8,-6.18 6.97,-7.36l6.14 -5.78c0.23,-0.22 0.36,-0.39 0.6,-0.6 0.27,-0.24 0.38,-0.27 0.66,-0.54 1.12,-1.07 4.04,-3.55 5.27,-4.37 0,1.93 -0.5,3.82 -0.83,5.43 -1.03,4.96 -2.75,10.04 -4.15,14.88 -1,3.47 -4.22,13.98 -4.74,17.41 -0.57,3.72 -0.02,7.47 0.7,11.03 0.29,1.43 0.24,2.3 1.07,2.3 2.87,0 9.24,-5.01 11.94,-7.2l2.12 -1.74c0.7,-0.62 1.37,-1.17 2.09,-1.76l18.04 -16.51c0,0.81 0.12,1.1 0.13,1.8 0.01,0.63 -0.06,1.42 0.01,2.03 0.12,1.04 0.21,2.62 0.22,3.76 0.02,2.55 0.67,8.35 1.03,10.88 0.18,1.23 0.34,2.26 0.57,3.41 0.17,0.83 1.03,5.57 2.38,5.57 4.59,0 12.76,-5.82 12.76,-7.47 0,-1.39 -1.56,-5.05 -2.29,-6.5 -0.44,-0.88 -0.82,-2.26 -1.68,-2.65 -0.69,-0.31 -1.68,-0.44 -2.32,-0.93 -0.58,-0.44 -0.4,-2.07 -0.52,-2.85 -0.18,-1.22 -0.17,-2.9 -0.17,-4.17 0,-0.8 -0.13,-1.25 -0.12,-2.16 0.01,-3.08 -0.13,-5.79 -0.12,-8.79 0.01,-0.88 -0.12,-1.26 -0.13,-2.04 0,-0.72 0.02,-1.46 0.01,-2.18 -0.01,-0.73 -0.13,-1.16 -0.12,-2.04 0.01,-2.28 -0.25,-4.11 -0.24,-6.38 0.01,-1.34 -0.25,-2.91 -0.25,-4.21 0.01,-2.77 -0.41,-5.59 -0.48,-8.32l-0.35 -4.1c-0.11,-1.37 -0.1,-2.89 -0.97,-3.48 -0.8,0.18 -2.01,2.4 -2.49,3.04 -0.82,1.09 -1.54,2.09 -2.36,3.18l-30.07 39.65c-0.69,0.9 -3.02,4.22 -3.73,4.7z"/>
   <path class="fil1" d="M252 203.72l-13 0 0 -6.5 13.97 0c2.3,0 1.81,2.19 1.81,4.7 0,1.53 -1.25,1.81 -2.77,1.81zm-18.9 -10.36l0 23.48 5.9 0 0 -9.03 5.18 0c0.36,0 0.69,0.54 0.95,0.74l1.79 1.58c0.38,0.36 0.5,0.52 0.94,0.86l6.25 5.67c0.62,0.39 7.52,0.18 8.61,0.18 -2.54,-2.21 -7.06,-5.58 -9.85,-7.86 -0.42,-0.34 -1.08,-0.77 -1.35,-1.18 1.86,0 4.54,0.18 5.97,-0.29 1.47,-0.49 2.7,-1.69 2.7,-3.56l0 -6.87c0,-2.82 -2.13,-4.09 -4.94,-4.09l-21.79 0c-0.28,0 -0.36,0.08 -0.36,0.36z"/>
   <path class="fil1" d="M145.56 216.84l4.7 0 0 -15.89c0.28,0.18 0.51,0.54 0.74,0.83l7.76 9.46c2.17,2.74 1.78,2.72 3.54,2.72 0.09,-0.34 0.95,-1.33 1.22,-1.67 0.46,-0.58 0.86,-1.11 1.32,-1.69l3.93 -4.98c0.48,-0.58 0.85,-1.11 1.32,-1.68l1.97 -2.49c0.22,-0.28 0.45,-0.67 0.71,-0.86l0 16.26 5.42 0 0 -23.84 -4.45 0c-0.44,0 -2.62,2.94 -3.05,3.45 -1.24,1.46 -8.25,10.21 -8.87,10.63 -0.09,-0.33 -1.07,-1.46 -1.35,-1.77 -0.53,-0.6 -0.96,-1.15 -1.47,-1.79l-4.37 -5.27c-0.52,-0.62 -0.98,-1.16 -1.47,-1.78l-2.56 -3.1c-0.19,-0.22 -0.11,-0.37 -0.47,-0.37l-4.58 0 0 23.84z"/>
   <polygon class="fil1" points="272.59,216.84 298.48,216.84 298.48,212.39 278.49,212.39 278.49,206.61 289.93,206.61 289.93,202.39 278.49,202.39 278.49,197.34 298.12,197.34 298.12,193 272.59,193 "/>
   <path class="fil1" d="M191.56 211.66c0,1.58 0.41,3.18 1.23,3.95 0.86,0.81 2.42,1.23 4.07,1.23l17.58 0c4.05,0 5.42,-1.73 5.42,-5.66l0 -18.18 -5.9 0 0 19.39 -16.49 0 0 -19.39 -5.9 0 0 18.66z"/>
   <path class="fil1" d="M318.95 204.56c-0.35,0.53 -0.94,1 -1.42,1.48l-7.36 7.69c-0.76,0.95 -2.73,2.44 -2.91,3.11 1.96,0 3.94,-0.02 5.9,0 1.17,0.01 0.8,0.09 1.96,-1.06 0.32,-0.32 0.38,-0.47 0.66,-0.78l6.65 -6.96 8.22 7.92c1,1 0.51,0.88 2.38,0.87 2.17,-0.01 4.34,0 6.5,0l-8.34 -8.04c-0.54,-0.54 -1.12,-1.21 -1.69,-1.68 -0.75,-0.62 -2.94,-2.69 -3.34,-3.29l10.87 -10.81 -6.89 -0.03c-0.14,0.53 -3.2,3.38 -3.64,3.82l-3.7 3.88c-0.52,-0.35 -1,-0.94 -1.47,-1.41l-5.96 -5.72c-0.77,-0.8 -0.65,-0.57 -2.44,-0.57 -1.97,0 -3.93,0 -5.9,0 0.47,0.7 2.15,2.21 2.86,2.92l9.06 8.64z"/>
   <path class="fil1" d="M353.74 199.5l1.33 0 0 -4.34 1.41 1.84c0.41,0.55 0.97,1.43 1.48,1.77 0.36,-0.24 2.21,-2.74 2.69,-3.45 0.16,-0.23 0.03,-0.08 0.2,-0.28l0 4.46 1.44 0 0 -6.5c-1.56,0 -1.06,-0.37 -2.72,1.86 -0.36,0.48 -1.24,1.74 -1.62,2 -0.1,-0.36 -1.18,-1.61 -1.48,-2.01 -0.28,-0.37 -0.45,-0.58 -0.74,-0.94 -0.86,-1.1 -0.41,-0.9 -2,-0.9l0 6.5z"/>
   <path class="fil1" d="M344.47 194.2l3.01 0 0 5.3 1.57 0 0 -5.3c3.47,0 3.01,0.34 3.01,-1.2l-7.59 0 0 1.2z"/>
  </g>
 </g>
</svg>
