<?xml version="1.0" encoding="UTF-8"?>
<!DOCTYPE svg PUBLIC "-//W3C//DTD SVG 1.1//EN" "http://www.w3.org/Graphics/SVG/1.1/DTD/svg11.dtd">
<!-- Creator: CorelDRAW -->
<svg xmlns="http://www.w3.org/2000/svg" xml:space="preserve" width="15mm" height="15mm" version="1.1" style="shape-rendering:geometricPrecision; text-rendering:geometricPrecision; image-rendering:optimizeQuality; fill-rule:evenodd; clip-rule:evenodd"
viewBox="0 0 35.93 35.93"
 xmlns:xlink="http://www.w3.org/1999/xlink"
 xmlns:xodm="http://www.corel.com/coreldraw/odm/2003">
 <defs>
  <style type="text/css">
   <![CDATA[
    .fil0 {fill:none}
    .fil1 {fill:white}
   ]]>
  </style>
 </defs>
 <g id="Layer_x0020_1">
  <metadata id="CorelCorpID_0Corel-Layer"/>
  <g id="_2479360280048">
   <circle class="fil0" cx="17.97" cy="17.97" r="17.97"/>
   <path class="fil1" d="M27.65 22.21c-0.64,-0.64 -1.52,-1.01 -2.43,-1.01 -1.9,0 -3.44,1.54 -3.44,3.44 0,1.9 1.54,3.44 3.44,3.44 1.9,0 3.44,-1.54 3.44,-3.44 0,0 0,0 0,0 0,-0 0,-0 0,-0 0,-0.91 -0.36,-1.78 -1.01,-2.43l0 0zm-3.68 -1.53c-1.73,0.55 -2.9,2.15 -2.9,3.96 0,0.44 0.07,0.88 0.21,1.29l-13.86 0c-0.08,-1.24 -0.13,-2.37 -0.13,-2.55 0,-0 0,-0.01 0,-0.01 0,-0.01 -0,-0.02 -0,-0.03 -0.05,-0.69 0.02,-1.26 0.22,-1.7 0.18,-0.4 0.5,-0.72 0.89,-0.91 0.7,-0.11 1.45,-0.34 2.23,-0.68 0.76,-0.33 1.49,-0.73 2.19,-1.18l3.06 5.48c0.06,0.12 0.18,0.2 0.32,0.2 0.12,0 0.24,-0.06 0.3,-0.17l3.37 -5.51c0.7,0.45 1.44,0.85 2.2,1.19 0.61,0.27 1.24,0.48 1.89,0.61l0 0zm-11.47 -9.59c0.08,-0.59 0.34,-1.15 0.77,-1.67 0.66,-0.98 1.76,-1.57 2.95,-1.57 1.03,0 2,0.45 2.68,1.22 0.52,0.1 0.87,0.42 1.07,0.96 0.17,0.47 0.22,1.1 0.14,1.91 -0.02,0.23 -0.06,0.48 -0.1,0.74 0.35,0.15 0.49,0.46 0.42,0.92 -0.06,0.4 -0.32,0.95 -0.79,1.64 -0.15,1.72 -1.59,3.05 -3.32,3.05 -1.74,0 -3.18,-1.33 -3.32,-3.06 -0.43,-0.74 -0.67,-1.32 -0.72,-1.74 -0.05,-0.44 0.07,-0.74 0.36,-0.91 -0.11,-0.34 -0.17,-0.69 -0.17,-1.04 0,-0.15 0.01,-0.3 0.03,-0.44l0 0zm10.66 13.46c-0.05,-0.06 -0.07,-0.14 -0.07,-0.22 0,-0.2 0.16,-0.36 0.36,-0.36 0.11,0 0.21,0.05 0.28,0.14l0.91 1.19 2.11 -2.11c0.07,-0.07 0.16,-0.1 0.25,-0.1 0.2,0 0.36,0.16 0.36,0.36 0,0.09 -0.04,0.18 -0.1,0.25l-2.4 2.4 -0 -0c-0.01,0.01 -0.02,0.02 -0.03,0.03 -0.06,0.05 -0.14,0.07 -0.22,0.07 -0.11,0 -0.21,-0.05 -0.28,-0.14l-1.16 -1.51z"/>
  </g>
 </g>
</svg>
