<?xml version="1.0" encoding="UTF-8"?>
<!DOCTYPE svg PUBLIC "-//W3C//DTD SVG 1.1//EN" "http://www.w3.org/Graphics/SVG/1.1/DTD/svg11.dtd">
<!-- Creator: CorelDRAW -->
<svg xmlns="http://www.w3.org/2000/svg" xml:space="preserve" width="15mm" height="15mm" version="1.1" style="shape-rendering:geometricPrecision; text-rendering:geometricPrecision; image-rendering:optimizeQuality; fill-rule:evenodd; clip-rule:evenodd"
viewBox="0 0 35.93 35.93"
 xmlns:xlink="http://www.w3.org/1999/xlink"
 xmlns:xodm="http://www.corel.com/coreldraw/odm/2003">
 <defs>
  <style type="text/css">
   <![CDATA[
    .fil0 {fill:none}
    .fil1 {fill:white;fill-rule:nonzero}
   ]]>
  </style>
 </defs>
 <g id="Layer_x0020_1">
  <metadata id="CorelCorpID_0Corel-Layer"/>
  <circle class="fil0" cx="17.97" cy="17.97" r="17.97"/>
  <path class="fil1" d="M27.11 23.97c-0.72,-0.72 -1.89,-0.72 -2.6,0l-0.01 0.01 -0.01 0.01c-0.72,0.72 -1.89,0.72 -2.6,0l-0.01 -0.01 -0.01 -0.01c-0.72,-0.72 -1.89,-0.72 -2.6,0l-0.01 0.01 -0.01 0.01c-0.72,0.72 -1.89,0.72 -2.6,0l-0.01 -0.01 -0.01 -0.01c-0.72,-0.72 -1.88,-0.72 -2.6,0l-0.01 0.01 -0.01 0.01c-0.72,0.72 -1.88,0.72 -2.6,0l-0.01 -0.01 -0.01 -0.01c-0.72,-0.72 -1.89,-0.72 -2.6,0l-0.01 0.01 0 3.15 18.31 0 0 -3.14 -0.01 -0.01zm-4.09 -15.16l-3.1 0 -1.31 9.51 5.72 0 -1.31 -9.51zm-2.79 5.64l2.19 -2.19 0.21 1.51 -2.67 2.67 0.27 -2zm1.86 -4.56l0.14 1.05 -1.76 1.76 0.39 -2.81 1.23 0zm-1.42 7.36l2.14 -2.14 0.29 2.14 -2.43 0zm-10.15 4.11l1.52 0 0 1.95c0.67,0.27 1.46,0.14 2,-0.4l0.01 -0.01 0.01 -0.01c0.35,-0.35 0.8,-0.53 1.26,-0.54l0 -1 5.33 0 0 1c0.45,0.01 0.91,0.19 1.25,0.54l0.01 0.01 0.01 0.01c0.54,0.54 1.34,0.68 2.01,0.4l0 -1.95 1.52 0 0 -0.89 0.92 0 0 -1.07 -16.74 0 0 1.07 0.92 0 0 0.89zm0.46 -10.56l1.15 0c0.49,0 0.89,-0.37 0.95,-0.84l1.24 0 0 -1.07 -1.35 0c-0.49,0 -0.89,0.37 -0.95,0.84l-1.16 0c-0.53,0 -0.96,0.43 -0.96,0.96l0 0.46 1.07 0 0 -0.34zm-0.94 4.2l0 1.07 1.04 0 0 2.25 5.71 0 0 -2.25 1.04 0 0 -1.07 -1.04 0 0 -1.73 -3.54 0 0 1.73 -0.05 0 -1.89 -2.79 -1.46 0 0.87 2.79 -0.67 0z"/>
 </g>
</svg>
