<?xml version="1.0" encoding="UTF-8"?>
<!DOCTYPE svg PUBLIC "-//W3C//DTD SVG 1.1//EN" "http://www.w3.org/Graphics/SVG/1.1/DTD/svg11.dtd">
<!-- Creator: CorelDRAW -->
<svg xmlns="http://www.w3.org/2000/svg" xml:space="preserve" width="15mm" height="15mm" version="1.1" style="shape-rendering:geometricPrecision; text-rendering:geometricPrecision; image-rendering:optimizeQuality; fill-rule:evenodd; clip-rule:evenodd"
viewBox="0 0 66.37 66.37"
 xmlns:xlink="http://www.w3.org/1999/xlink"
 xmlns:xodm="http://www.corel.com/coreldraw/odm/2003">
 <defs>
  <style type="text/css">
   <![CDATA[
    .str0 {stroke:white;stroke-width:0.34;stroke-miterlimit:22.9256}
    .fil0 {fill:none}
    .fil1 {fill:white;fill-rule:nonzero}
   ]]>
  </style>
 </defs>
 <g id="Layer_x0020_1">
  <metadata id="CorelCorpID_0Corel-Layer"/>
  <circle class="fil0" cx="33.18" cy="33.18" r="33.18"/>
  <path class="fil1 str0" d="M27.64 38.76l1.34 -0.82c0.47,0.28 0.99,0.5 1.54,0.64l0.37 1.53 2.08 0 0.37 -1.53c0.55,-0.14 1.06,-0.35 1.53,-0.64l1.34 0.82 1.47 -1.47 -0.82 -1.34c0.28,-0.47 0.5,-0.99 0.63,-1.54l1.53 -0.37 0 -2.08 -1.53 -0.37c-0.14,-0.55 -0.35,-1.06 -0.63,-1.54l0.82 -1.34 -1.47 -1.47 -1.34 0.82c-0.47,-0.28 -0.98,-0.5 -1.53,-0.64l-0.37 -1.52 -2.08 0 -0.37 1.52c-0.55,0.14 -1.07,0.35 -1.54,0.64l-1.34 -0.82 -1.48 1.47 0.82 1.34c-0.28,0.47 -0.5,0.99 -0.64,1.54l-1.52 0.37 0 2.08 1.52 0.37c0.14,0.55 0.35,1.06 0.64,1.54l-0.82 1.34 1.48 1.47zm23.87 6.45l-4.86 -4.17 0 1.64 -14.73 0c-1.89,0 -3.65,-0.55 -5.14,-1.5 -2.72,-1.71 -4.54,-4.73 -4.54,-8.18 0,-3.45 1.82,-6.47 4.55,-8.19 1.48,-0.94 3.25,-1.49 5.13,-1.49 5.34,0 9.68,4.33 9.68,9.68 0,3.65 -2.04,6.83 -5.04,8.48l7.39 0c1.7,-2.4 2.7,-5.33 2.7,-8.48 0,-1.83 -0.34,-3.58 -0.95,-5.2 -0.07,0 -0.13,0.01 -0.2,0.01 -3.32,0 -6.02,-2.7 -6.02,-6.02 0,-0.46 0.06,-0.9 0.15,-1.34 -2.25,-1.39 -4.89,-2.19 -7.72,-2.19 -8.12,0 -14.73,6.6 -14.73,14.73 0,3.69 1.38,7.08 3.64,9.67 2.71,3.09 6.67,5.05 11.1,5.05l14.73 0 0 1.65 4.86 -4.18zm-31.57 -1.74c-0.22,-0.25 -0.42,-0.51 -0.62,-0.77l-4.46 0 0 5.05 11.07 0c-2.28,-0.93 -4.34,-2.38 -5.99,-4.28zm25.57 -16.82c2.67,0 4.84,-2.16 4.84,-4.84 0,-2.67 -2.16,-4.84 -4.84,-4.84 -2.67,0 -4.84,2.16 -4.84,4.84 0,2.67 2.16,4.84 4.84,4.84zm-2.17 -4.88c0.23,-0.23 0.6,-0.23 0.83,0l0.5 0.5 2.16 -2.16c0.23,-0.23 0.6,-0.23 0.83,0 0.23,0.23 0.23,0.6 0,0.83l-2.58 2.58c-0.11,0.11 -0.26,0.17 -0.42,0.17 -0.16,0 -0.31,-0.07 -0.42,-0.17l-0.92 -0.92c-0.22,-0.23 -0.22,-0.61 0.01,-0.84l0 0zm-11.41 8.62c1.45,0 2.62,1.17 2.62,2.62 0,1.45 -1.17,2.62 -2.62,2.62 -1.45,0 -2.62,-1.18 -2.62,-2.62 -0.01,-1.44 1.17,-2.62 2.62,-2.62z"/>
 </g>
</svg>
