<?xml version="1.0" encoding="UTF-8"?>
<!DOCTYPE svg PUBLIC "-//W3C//DTD SVG 1.1//EN" "http://www.w3.org/Graphics/SVG/1.1/DTD/svg11.dtd">
<!-- Creator: CorelDRAW -->
<svg xmlns="http://www.w3.org/2000/svg" xml:space="preserve" width="15mm" height="15mm" version="1.1" style="shape-rendering:geometricPrecision; text-rendering:geometricPrecision; image-rendering:optimizeQuality; fill-rule:evenodd; clip-rule:evenodd"
viewBox="0 0 35.93 35.93"
 xmlns:xlink="http://www.w3.org/1999/xlink"
 xmlns:xodm="http://www.corel.com/coreldraw/odm/2003">
 <defs>
  <style type="text/css">
   <![CDATA[
    .fil0 {fill:none}
    .fil1 {fill:white;fill-rule:nonzero}
   ]]>
  </style>
 </defs>
 <g id="Layer_x0020_1">
  <metadata id="CorelCorpID_0Corel-Layer"/>
  <circle class="fil0" cx="17.97" cy="17.97" r="17.97"/>
  <path class="fil1" d="M14.91 23.47l-2.45 0c-1.35,0 -2.49,-1.1 -2.49,-2.45l0 -0.61c0,-1.01 -0.82,-1.83 -1.83,-1.83l-0.61 0 0 2.45c0,2.7 2.24,4.89 4.93,4.89l0 2.49 4.89 0 0 -2.49c0,-1.35 -1.1,-2.45 -2.45,-2.45 1.01,0 1.83,-0.82 1.83,-1.83 0,-1.01 -0.82,-1.83 -1.83,-1.83 -1.01,0 -1.83,0.82 -1.83,1.83 0,1.01 0.82,1.83 1.83,1.83l0 0zm6.12 -4.89c0.62,0 1.19,0.19 1.67,0.5 0.51,-0.5 0.93,-1.08 1.26,-1.73l-1.09 0c-0.83,0 -1.53,-0.55 -1.76,-1.3 -0.75,-0.23 -1.3,-0.93 -1.3,-1.76 0,-1.01 0.82,-1.83 1.83,-1.83l2.8 0c-0.75,-2.63 -3.05,-4.68 -5.86,-4.93l0 1.88c0,1.01 -0.82,1.83 -1.83,1.83 -0.34,0 -0.61,0.27 -0.61,0.61 0,0.34 0.27,0.61 0.61,0.61 1.01,0 1.83,0.82 1.83,1.83 0,1.01 -0.82,1.83 -1.83,1.83l-1.94 0c-0.25,0.71 -0.93,1.22 -1.73,1.22l-1.09 0c0.33,0.64 0.75,1.22 1.26,1.73 0.48,-0.32 1.05,-0.5 1.67,-0.5 1.48,0 2.71,1.05 3,2.44 0.02,0 0.04,0 0.06,0 0.02,0 0.04,-0 0.06,-0 0.29,-1.39 1.52,-2.44 3,-2.44l0 0zm1.83 -2.45l1.57 0c0.17,-0.58 0.26,-1.2 0.26,-1.83 0,-0.21 -0.01,-0.41 -0.03,-0.61l-3.03 0c-0.34,0 -0.61,0.27 -0.61,0.61 0,0.34 0.27,0.61 0.61,0.61l0.61 0 0 0.61c0,0.34 0.27,0.61 0.61,0.61l0 0zm-6.12 -6.12c0.34,0 0.61,-0.27 0.61,-0.61l0 -1.88c-3.43,0.31 -6.12,3.26 -6.12,6.77 0,0.64 0.1,1.25 0.26,1.83l1.57 0c0.34,0 0.61,-0.27 0.61,-0.61l0 -0.61 3.06 0c0.34,0 0.61,-0.27 0.61,-0.61 0,-0.34 -0.27,-0.61 -0.61,-0.61 -1.01,0 -1.83,-0.82 -1.83,-1.83 0,-1.01 0.82,-1.83 1.83,-1.83l0 0zm6.12 11.62c0,-1.01 -0.82,-1.83 -1.83,-1.83 -1.01,0 -1.83,0.82 -1.83,1.83 0,1.01 0.82,1.83 1.83,1.83 1.01,0 1.83,-0.82 1.83,-1.83zm3.06 -1.22l0 0.61c0,1.35 -1.1,2.45 -2.45,2.45l-2.45 0c-1.35,0 -2.45,1.1 -2.45,2.45l0 2.49 4.89 0 0 -2.49c2.7,0 4.93,-2.2 4.93,-4.89l0 -2.45 -0.61 0c-1.01,0 -1.88,0.82 -1.88,1.83l0 0z"/>
 </g>
</svg>
