<?xml version="1.0" encoding="UTF-8"?>
<!DOCTYPE svg PUBLIC "-//W3C//DTD SVG 1.1//EN" "http://www.w3.org/Graphics/SVG/1.1/DTD/svg11.dtd">
<!-- Creator: CorelDRAW -->
<svg xmlns="http://www.w3.org/2000/svg" xml:space="preserve" width="15mm" height="15mm" version="1.1" style="shape-rendering:geometricPrecision; text-rendering:geometricPrecision; image-rendering:optimizeQuality; fill-rule:evenodd; clip-rule:evenodd"
viewBox="0 0 1440.55 1440.55"
 xmlns:xlink="http://www.w3.org/1999/xlink"
 xmlns:xodm="http://www.corel.com/coreldraw/odm/2003">
 <defs>
  <style type="text/css">
   <![CDATA[
    .fil0 {fill:none}
    .fil1 {fill:white;fill-rule:nonzero}
   ]]>
  </style>
 </defs>
 <g id="Layer_x0020_1">
  <metadata id="CorelCorpID_0Corel-Layer"/>
  <circle class="fil0" cx="720.28" cy="720.28" r="720.28"/>
  <path class="fil1" d="M532.86 1016.96l-18.56 0c-17.95,0 -32.41,-14.16 -33.67,-32.95l-2.79 -41.77c-20.27,-4.81 -39.44,-12.76 -57.23,-23.72l-31.54 27.57c-14.18,12.39 -34.42,12.16 -47.1,-0.51l-13.13 -13.13c-12.68,-12.68 -12.9,-32.92 -0.51,-47.1l27.57 -31.54c-10.96,-17.79 -18.93,-36.97 -23.74,-57.25l-41.78 -2.79c-18.77,-1.26 -32.94,-15.73 -32.94,-33.67l0 -18.56c0,-17.94 14.16,-32.41 32.94,-33.67l41.78 -2.79c4.81,-20.27 12.76,-39.46 23.74,-57.23l-27.57 -31.53c-12.39,-14.18 -12.16,-34.43 0.51,-47.11l13.13 -13.12c12.68,-12.68 32.92,-12.91 47.1,-0.52l31.54 27.57c19.77,-12.18 41.3,-20.65 64.1,-25.22 6.07,-1.21 11.96,2.71 13.17,8.78 1.21,6.07 -2.71,11.97 -8.78,13.18 -22.71,4.54 -43.98,13.48 -63.23,26.53 -4.21,2.85 -9.83,2.52 -13.66,-0.83l-37.9 -33.12c-4.42,-3.85 -11.7,-5.33 -16.54,-0.52l-13.12 13.13c-4.82,4.81 -3.34,12.12 0.51,16.53l33.12 37.9c3.36,3.83 3.7,9.45 0.84,13.67 -13.33,19.66 -22.36,41.43 -26.81,64.68 -0.96,4.99 -5.18,8.74 -10.26,9.08l-50.2 3.38c-5.84,0.4 -12.04,4.5 -12.04,11.31l0 18.56c0,6.83 6.2,10.93 12.04,11.31l50.2 3.38c5.08,0.34 9.3,4.05 10.24,9.07 4.46,23.25 13.48,45.02 26.8,64.69 2.87,4.21 2.51,9.83 -0.83,13.66l-33.12 37.9c-3.86,4.42 -5.36,11.7 -0.52,16.54l13.12 13.12c4.82,4.82 12.12,3.34 16.54,-0.51l37.9 -33.13c3.82,-3.33 9.43,-3.69 13.66,-0.83 19.67,13.33 41.44,22.36 64.69,26.81 4.99,0.96 8.73,5.17 9.07,10.26l3.36 50.19c0.4,5.85 4.5,12.05 11.31,12.05l18.56 0c6.83,0 10.93,-6.2 11.31,-12.05l3.38 -50.19c0.34,-5.08 4.07,-9.3 9.08,-10.26 23.24,-4.46 45.01,-13.48 64.68,-26.83 5.11,-3.48 12.09,-2.13 15.54,2.98 3.48,5.13 2.13,12.1 -2.98,15.57 -19.79,13.42 -41.46,22.98 -64.53,28.45l-2.79 41.77c-1.26,18.7 -15.72,32.85 -33.67,32.85l0 0 0.01 -0.01zm-9.28 -150.93c-63.52,0 -115.21,-51.68 -115.21,-115.22 0,-44.95 26.43,-86.1 67.32,-104.8 5.62,-2.57 12.27,-0.09 14.85,5.53 2.57,5.62 0.1,12.27 -5.53,14.85 -32.94,15.08 -54.24,48.22 -54.24,84.44 0,51.18 41.63,92.82 92.81,92.82 12.84,0 25.27,-2.57 36.95,-7.66 5.67,-2.47 12.28,0.13 14.74,5.8 2.47,5.67 -0.13,12.27 -5.8,14.74 -14.53,6.29 -29.99,9.49 -45.9,9.49l0 0 0 0.01zm396.3 187.53l-272.91 0c-16.86,0 -30.6,-13.73 -30.6,-30.6l0 -120.75c-43.5,-27.26 -79.95,-64.97 -105.69,-109.41 -27.64,-47.71 -42.27,-102.22 -42.27,-157.68 0,-173.68 141.3,-314.99 314.99,-314.99 173.69,0 315,141.31 315,314.99 0,55.43 -14.61,109.97 -42.25,157.68 -25.73,44.43 -62.19,82.15 -105.69,109.41l0 120.75c0,16.88 -13.73,30.6 -30.6,30.6l0 0 0 0zm-136.46 -711c-161.35,0 -292.61,131.24 -292.61,292.6 0,102.31 54.61,198.55 142.52,251.2 3.38,2.02 5.44,5.67 5.44,9.6l0 127.02c0,4.52 3.68,8.19 8.2,8.19l272.91 0c4.52,0 8.19,-3.67 8.19,-8.19l0 -127.02c0,-3.94 2.06,-7.6 5.45,-9.6 87.89,-52.64 142.52,-148.9 142.52,-251.21 -0.03,-161.35 -131.27,-292.6 -292.62,-292.6l0 0 0.01 0.01zm94.33 796.65l-188.65 0c-29.79,0 -54.02,-24.24 -54.02,-54.02l0 -42.82c0,-6.18 5.01,-11.2 11.2,-11.2 6.18,0 11.2,5.01 11.2,11.2l0 42.82c0,17.45 14.18,31.62 31.62,31.62l188.65 0c17.45,0 31.62,-14.18 31.62,-31.62l0 -42.82c0,-6.18 5.02,-11.2 11.2,-11.2 6.18,0 11.2,5.01 11.2,11.2l0 42.82c0,29.78 -24.23,54.02 -54.02,54.02l0 0zm-53.12 85.65l-82.41 0c-29.78,0 -54.02,-24.23 -54.02,-54.02l0 -42.82c0,-6.18 5.02,-11.2 11.2,-11.2 6.18,0 11.2,5.01 11.2,11.2l0 42.82c0,17.45 14.18,31.62 31.62,31.62l82.41 0c17.44,0 31.62,-14.18 31.62,-31.62l0 -42.82c0,-6.18 5.02,-11.2 11.2,-11.2 6.18,0 11.2,5.01 11.2,11.2l0 42.82c0,29.79 -24.23,54.02 -54.01,54.02l0 0zm-120.43 -171.29c-6.18,0 -11.2,-5.01 -11.2,-11.2l0 -110.14c0,-6.18 5.01,-11.2 11.2,-11.2 6.18,0 11.2,5.02 11.2,11.2l0 110.14c0,6.18 -4.99,11.2 -11.2,11.2zm79.22 0c-6.18,0 -11.2,-5.01 -11.2,-11.2l0 -136.24c0,-6.18 5.01,-11.21 11.2,-11.21 6.18,0 11.19,5.02 11.19,11.21l0 136.24c0,6.18 -4.99,11.2 -11.19,11.2zm79.21 0c-6.18,0 -11.2,-5.01 -11.2,-11.2l0 -131.54 -119.15 -116.65c-4.41,-4.32 -4.49,-11.42 -0.17,-15.84 4.32,-4.41 11.42,-4.5 15.83,-0.17l122.51 119.93c2.15,2.11 3.36,4.99 3.36,8l0 136.24c0.03,6.2 -4.99,11.23 -11.17,11.23l0 0 -0.01 0zm-158.43 -110.13c-27.77,0 -50.4,-22.6 -50.4,-50.4 0,-27.77 22.6,-50.37 50.4,-50.37 27.77,0 50.39,22.6 50.39,50.37 0,27.77 -22.6,50.4 -50.39,50.4zm0 -78.37c-15.43,0 -28,12.56 -28,27.98 0,15.42 12.54,27.99 28,27.99 15.42,0 27.99,-12.56 27.99,-27.99 0,-15.43 -12.54,-27.98 -27.99,-27.98zm7.92 -55.9c-27.77,0 -50.39,-22.6 -50.39,-50.4 0,-27.77 22.6,-50.39 50.39,-50.39 27.77,0 50.39,22.6 50.39,50.39 0,27.79 -22.6,50.4 -50.39,50.4zm0 -78.37c-15.43,0 -27.99,12.53 -27.99,27.99 0,15.43 12.54,27.99 27.99,27.99 15.43,0 27.99,-12.56 27.99,-27.99 0,-15.45 -12.56,-27.99 -27.99,-27.99zm227.16 176.35c-6.18,0 -11.2,-5.01 -11.2,-11.2l0 -181.49c0,-6.18 5.01,-11.2 11.2,-11.2 6.18,0 11.2,5.02 11.2,11.2l0 181.49c0,6.18 -5.02,11.2 -11.2,11.2zm0 -181.46c-27.77,0 -50.4,-22.6 -50.4,-50.4 0,-27.79 22.6,-50.39 50.4,-50.39 27.79,0 50.39,22.6 50.39,50.39 -0.02,27.77 -22.62,50.4 -50.39,50.4zm0 -78.39c-15.43,0 -28,12.57 -28,28 0,15.42 12.57,27.99 28,27.99 15.43,0 27.99,-12.54 27.99,-27.99 -0.02,-15.43 -12.56,-28 -27.99,-28zm-137.9 210.04c-6.18,0 -11.2,-5.01 -11.2,-11.2l0 -218.53c0,-6.18 5.01,-11.2 11.2,-11.2 6.18,0 11.2,5.02 11.2,11.2l0 218.53c0,6.18 -5,11.2 -11.2,11.2zm0 -218.5c-27.77,0 -50.4,-22.6 -50.4,-50.4 0,-27.79 22.6,-50.39 50.4,-50.39 27.79,0 50.39,22.6 50.39,50.39 0,27.79 -22.6,50.4 -50.39,50.4zm0 -78.39c-15.43,0 -28,12.57 -28,28 0,15.43 12.57,27.99 28,27.99 15.43,0 27.99,-12.56 27.99,-27.99 0,-15.43 -12.54,-28 -27.99,-28zm-17.96 -260.52c-6.18,0 -11.2,-5.02 -11.2,-11.2l0 -42.62c0,-6.18 5.01,-11.2 11.2,-11.2 6.18,0 11.19,5.01 11.19,11.2l0 42.62c0,6.18 -4.99,11.2 -11.19,11.2zm-103.06 13.57c-4.95,0 -9.47,-3.29 -10.81,-8.31l-11.04 -41.19c-1.58,-5.97 1.95,-12.11 7.93,-13.7 5.97,-1.61 12.12,1.95 13.7,7.93l11.04 41.16c1.58,5.98 -1.95,12.12 -7.93,13.7 -0.94,0.3 -1.93,0.4 -2.89,0.4l0 0 0 0zm-95.99 39.78c-3.88,0 -7.64,-2.02 -9.72,-5.6l-21.32 -36.91c-3.09,-5.36 -1.26,-12.21 4.09,-15.3 5.36,-3.09 12.21,-1.26 15.3,4.1l21.32 36.91c3.09,5.35 1.26,12.21 -4.1,15.3 -1.74,1.01 -3.67,1.5 -5.57,1.5zm-82.47 63.27c-2.87,0 -5.73,-1.09 -7.93,-3.27l-30.15 -30.15c-4.37,-4.37 -4.37,-11.47 0,-15.84 4.37,-4.37 11.47,-4.37 15.84,0l30.15 30.15c4.37,4.37 4.37,11.47 0,15.84 -2.18,2.17 -5.04,3.27 -7.91,3.27l0 0 0.01 0zm563.05 0c-2.87,0 -5.73,-1.09 -7.93,-3.27 -4.37,-4.37 -4.37,-11.47 0,-15.84l30.15 -30.15c4.37,-4.37 11.47,-4.37 15.84,0 4.37,4.37 4.37,11.47 0,15.84l-30.15 30.15c-2.17,2.17 -5.04,3.27 -7.9,3.27l0 0 0 0zm-82.47 -63.27c-1.91,0 -3.83,-0.49 -5.58,-1.5 -5.35,-3.09 -7.18,-9.95 -4.1,-15.3l21.32 -36.91c3.09,-5.36 9.95,-7.19 15.3,-4.1 5.36,3.09 7.19,9.94 4.1,15.3l-21.32 36.91c-2.08,3.58 -5.85,5.6 -9.72,5.6zm-96.02 -39.78c-0.96,0 -1.93,-0.13 -2.91,-0.38 -5.98,-1.61 -9.52,-7.75 -7.93,-13.7l11.04 -41.16c1.59,-5.98 7.73,-9.53 13.7,-7.91 5.98,1.61 9.52,7.75 7.93,13.71l-11.04 41.16c-1.32,4.99 -5.85,8.29 -10.79,8.29l0 0zm-359.09 707.44l-13.08 0c-10.05,0 -19.12,-3.98 -25.86,-10.57 -6.69,-6.55 -11.06,-15.68 -11.75,-26.07l-2.6 -38.88c-9.33,-2.36 -18.44,-5.39 -27.3,-9.06 -8.83,-3.66 -17.42,-7.98 -25.75,-12.95l-29.36 25.67c-7.85,6.85 -17.39,10.22 -26.75,10.11 -9.44,-0.11 -18.67,-3.71 -25.76,-10.79l-13.13 -13.13c-7.09,-7.09 -10.7,-16.32 -10.79,-25.76 -0.11,-9.35 3.27,-18.9 10.11,-26.75l25.67 -29.37c-4.97,-8.33 -9.3,-16.93 -12.96,-25.78 -3.67,-8.86 -6.7,-17.97 -9.06,-27.28l-38.88 -2.6c-10.39,-0.7 -19.52,-5.07 -26.07,-11.75 -6.6,-6.75 -10.57,-15.83 -10.57,-25.86l0 -18.56c0,-10.04 3.97,-19.11 10.57,-25.86 6.55,-6.68 15.67,-11.05 26.07,-11.75l38.88 -2.6c2.36,-9.33 5.39,-18.46 9.08,-27.34 3.66,-8.82 7.98,-17.4 12.95,-25.71l-25.67 -29.35c-6.85,-7.85 -10.22,-17.39 -10.11,-26.75 0.11,-9.45 3.71,-18.67 10.79,-25.77l13.13 -13.12c7.09,-7.09 16.32,-10.7 25.76,-10.8 9.35,-0.11 18.9,3.27 26.75,10.12l29.36 25.66c9.35,-5.57 19.05,-10.33 29.06,-14.27 7.89,-3.11 15.99,-5.7 24.25,-7.79 14.38,-56.3 43.77,-106.65 83.65,-146.51 57.75,-57.76 137.49,-93.53 225.43,-93.53 87.94,0 167.68,35.77 225.44,93.53 57.76,57.75 93.52,137.5 93.52,225.43 0,28.05 -3.7,55.89 -10.89,82.77 -7.19,26.84 -17.89,52.72 -31.88,76.89 -13.02,22.48 -28.76,43.27 -46.74,61.89 -17.47,18.08 -37.09,34.13 -58.41,47.7l0 118.59c0,9.53 -3.88,18.17 -10.13,24.42 -2.51,2.51 -5.4,4.64 -8.58,6.28l0 31.52c0,15.99 -6.5,30.48 -17,40.98 -9.43,9.43 -22.07,15.63 -36.13,16.81l0 27.86c0,15.99 -6.5,30.48 -17,40.99 -10.5,10.5 -25,17 -40.98,17l-82.41 0c-15.98,0 -30.48,-6.5 -40.98,-17 -10.5,-10.51 -17,-25 -17,-40.99l0 -27.86c-14.06,-1.17 -26.7,-7.38 -36.13,-16.81 -10.5,-10.5 -17,-24.99 -17,-40.98l0 -31.52c-3.18,-1.65 -6.06,-3.77 -8.57,-6.28 -6.26,-6.26 -10.13,-14.9 -10.13,-24.42l0 -91.98c-2.66,1.32 -5.34,2.57 -8.05,3.76 -10.1,4.46 -20.55,8.05 -31.3,10.77l-2.6 38.87c-0.7,10.36 -5.07,19.49 -11.77,26.03 -6.74,6.58 -15.81,10.54 -25.84,10.54l-5.47 0 0 -0.01zm-13.08 -7.93l19.44 0c7.55,-0.22 14.35,-3.28 19.45,-8.26 5.34,-5.21 8.83,-12.53 9.39,-20.88l3 -44.7 2.83 -0.67c11.3,-2.68 22.24,-6.35 32.78,-11 3.8,-1.67 7.55,-3.47 11.24,-5.39l0 -16.53c-6.68,3.86 -13.56,7.26 -20.61,10.18 -11.06,4.59 -22.58,8.04 -34.47,10.31 -1.62,0.32 -3.04,1.15 -4.07,2.32 -1.03,1.16 -1.69,2.66 -1.8,4.3l-3.38 50.21c-0.27,3.99 -1.91,8.12 -4.73,11.14 -2.59,2.77 -6.16,4.61 -10.53,4.61l-18.56 0c-4.36,0 -7.91,-1.84 -10.52,-4.61 -2.82,-3.02 -4.47,-7.15 -4.74,-11.14l-3.36 -50.21c-0.11,-1.64 -0.77,-3.14 -1.8,-4.3 -1.03,-1.17 -2.45,-2.01 -4.07,-2.32 -11.89,-2.28 -23.4,-5.72 -34.46,-10.3 -11.03,-4.57 -21.62,-10.29 -31.69,-17.11 -1.36,-0.93 -2.96,-1.33 -4.52,-1.24 -1.57,0.1 -3.09,0.69 -4.32,1.77l-37.9 33.12c-3.02,2.63 -7.12,4.39 -11.25,4.52 -3.79,0.12 -7.6,-1.09 -10.69,-4.19l0 0.01 -13.13 -13.13 0.01 0c-3.09,-3.1 -4.31,-6.91 -4.2,-10.69l0 -0.01c0.13,-4.13 1.9,-8.22 4.53,-11.24l33.12 -37.9c1.08,-1.23 1.67,-2.76 1.77,-4.32 0.1,-1.57 -0.31,-3.15 -1.23,-4.5l0 -0.02c-6.83,-10.08 -12.55,-20.68 -17.11,-31.7 -4.59,-11.05 -8.04,-22.56 -10.31,-34.45l0 -0.02c-0.31,-1.62 -1.13,-3.03 -2.3,-4.05 -1.16,-1.04 -2.66,-1.69 -4.3,-1.8l-50.21 -3.38c-3.99,-0.27 -8.13,-1.91 -11.14,-4.73 -2.77,-2.6 -4.61,-6.16 -4.61,-10.53l0 -18.56c0,-4.37 1.83,-7.91 4.61,-10.52 3.01,-2.82 7.15,-4.48 11.14,-4.74l50.21 -3.38c1.64,-0.12 3.14,-0.77 4.3,-1.8 1.17,-1.04 2.01,-2.45 2.31,-4.07 2.29,-11.89 5.73,-23.4 10.31,-34.47 4.57,-11.02 10.29,-21.61 17.11,-31.69l0 -0.01c0.93,-1.36 1.33,-2.96 1.25,-4.51 -0.1,-1.56 -0.69,-3.08 -1.78,-4.32l-33.13 -37.9c-2.62,-3.02 -4.39,-7.11 -4.51,-11.25 -0.12,-3.79 1.09,-7.61 4.18,-10.69l13.12 -13.13 0.02 0c3.09,-3.07 6.9,-4.28 10.69,-4.17l0.01 0c4.12,0.12 8.21,1.89 11.22,4.52l37.9 33.12c1.23,1.07 2.76,1.66 4.32,1.75 1.57,0.1 3.16,-0.31 4.52,-1.23l0.01 0.01c9.88,-6.7 20.24,-12.33 31,-16.84 4.72,-1.99 9.52,-3.76 14.4,-5.32 0.93,-5.39 1.99,-10.74 3.19,-16.03 -6.56,1.8 -12.99,3.94 -19.27,6.41 -10.51,4.14 -20.63,9.19 -30.29,15.15l-2.48 1.53 -33.74 -29.48c-6.33,-5.53 -13.99,-8.25 -21.47,-8.17 -7.39,0.09 -14.64,2.93 -20.22,8.51l-13.13 13.13c-5.58,5.59 -8.43,12.83 -8.51,20.22 -0.08,7.49 2.64,15.15 8.16,21.48l29.49 33.73 -1.53 2.48c-5.36,8.67 -9.99,17.72 -13.88,27.09 -3.88,9.34 -7.01,19.02 -9.37,28.97l-0.67 2.84 -44.69 3c-8.39,0.56 -15.74,4.05 -20.96,9.39 -5.18,5.29 -8.28,12.42 -8.28,20.32l0 18.56c0,7.9 3.11,15.03 8.28,20.31 5.23,5.35 12.58,8.84 20.96,9.4l44.69 3 0.67 2.84c2.36,9.94 5.48,19.59 9.35,28.92 3.9,9.4 8.54,18.48 13.9,27.17l1.53 2.48 -29.49 33.74c-5.53,6.33 -8.24,13.99 -8.16,21.47 0.08,7.39 2.92,14.64 8.51,20.22l13.13 13.13c5.58,5.59 12.82,8.43 20.22,8.51 7.48,0.08 15.15,-2.63 21.47,-8.16l33.74 -29.49 2.48 1.54c8.68,5.34 17.74,9.98 27.13,13.87 9.33,3.86 18.99,6.99 28.94,9.34l2.83 0.68 3 44.69c0.57,8.39 4.05,15.73 9.4,20.96 5.28,5.18 12.42,8.28 20.32,8.28zm-31.24 -458.77l0.87 -0.17 0 0 0.02 0c4.09,-0.82 8.12,0.1 11.35,2.25 0.63,0.42 1.24,0.89 1.81,1.41 13.72,-50.7 40.59,-96.06 76.7,-132.17 51.63,-51.63 122.16,-84.36 200.19,-86.8l-0.15 -0.16 9.57 0c81.77,0 155.91,33.26 209.61,86.95 53.69,53.68 86.95,127.83 86.96,209.61l0.01 0c0,51.84 -13.84,102.14 -38.82,146.18 -21.34,37.62 -50.81,70.64 -86.74,96.09l0 17.57c19.13,-12.62 36.82,-27.33 52.72,-43.79 17.54,-18.16 32.88,-38.43 45.59,-60.37 13.64,-23.54 24.06,-48.77 31.08,-74.97 7.02,-26.19 10.62,-53.34 10.62,-80.73 0,-85.75 -34.88,-163.5 -91.21,-219.83 -56.32,-56.32 -134.08,-91.2 -219.83,-91.2 -85.75,0 -163.5,34.88 -219.83,91.2 -37.94,37.94 -66.16,85.63 -80.53,138.93zm2.42 7.6c-1.54,0.31 -3.07,0.63 -4.6,0.98 -1.24,5.19 -2.34,10.42 -3.32,15.7 3.55,-0.94 7.15,-1.78 10.77,-2.51 1.97,-0.39 3.58,-1.54 4.61,-3.06l-0.02 -0.01c1.03,-1.54 1.47,-3.48 1.08,-5.44 -0.38,-1.97 -1.53,-3.58 -3.05,-4.6 -1.54,-1.02 -3.47,-1.46 -5.44,-1.08l-0.02 0.01zm5.91 21.57c-0.5,0.15 -1,0.28 -1.52,0.37 -4.66,0.94 -9.25,2.06 -13.78,3.37 -2.44,15.64 -3.7,31.67 -3.7,47.99 0,2.68 0.03,5.36 0.1,8.03l1.58 -0.73c3.8,-1.74 7.95,-1.78 11.58,-0.42 0.44,0.17 0.88,0.36 1.31,0.56 -0.06,-2.47 -0.1,-4.94 -0.1,-7.4 0,-17.66 1.56,-34.96 4.53,-51.76zm-23.71 6.42c-3.36,1.16 -6.67,2.43 -9.95,3.81 -10.37,4.35 -20.28,9.72 -29.65,16.08l0 0.01c-2.83,1.92 -6.16,2.77 -9.42,2.57 -3.26,-0.2 -6.45,-1.45 -9.05,-3.71l-37.9 -33.12c-1.72,-1.5 -4,-2.51 -6.26,-2.57 -1.75,-0.05 -3.49,0.5 -4.88,1.87l0.01 0.01 -13.13 13.13c-1.38,1.38 -1.93,3.13 -1.88,4.87 0.08,2.26 1.08,4.54 2.57,6.25l33.12 37.91c2.28,2.58 3.52,5.79 3.73,9.05 0.19,3.26 -0.66,6.59 -2.6,9.44l-0.01 -0.01c-6.49,9.58 -11.95,19.71 -16.34,30.29 -4.38,10.56 -7.67,21.56 -9.84,32.92 -0.65,3.37 -2.41,6.33 -4.86,8.5 -2.45,2.16 -5.59,3.54 -9.03,3.77l-50.19 3.38c-2.28,0.15 -4.6,1.07 -6.25,2.61 -1.26,1.18 -2.09,2.79 -2.09,4.75l0 18.56c0,1.97 0.84,3.58 2.09,4.77 1.65,1.54 3.97,2.44 6.23,2.59l50.21 3.38c3.44,0.23 6.59,1.6 9.03,3.77 2.45,2.16 4.2,5.12 4.83,8.5 2.18,11.35 5.47,22.35 9.84,32.9 4.4,10.59 9.85,20.72 16.35,30.3l0 0c1.94,2.84 2.79,6.17 2.59,9.42 -0.19,3.27 -1.45,6.47 -3.72,9.07l-33.12 37.9c-1.5,1.72 -2.51,4 -2.58,6.27 -0.05,1.74 0.5,3.48 1.88,4.86l0.02 0 13.12 13.12 0 0.02c1.38,1.38 3.12,1.92 4.87,1.87 2.26,-0.08 4.54,-1.08 6.26,-2.57l37.9 -33.12c2.6,-2.27 5.8,-3.52 9.06,-3.72 3.25,-0.2 6.56,0.65 9.42,2.59 9.58,6.49 19.71,11.96 30.3,16.35 10.55,4.37 21.55,7.66 32.91,9.84 3.37,0.65 6.33,2.4 8.5,4.86 2.17,2.45 3.54,5.59 3.77,9.02l3.36 50.2c0.15,2.27 1.07,4.6 2.61,6.25 1.19,1.26 2.79,2.09 4.75,2.09l18.56 0c1.97,0 3.58,-0.84 4.77,-2.1 1.54,-1.64 2.44,-3.97 2.58,-6.22l3.39 -50.22c0.23,-3.43 1.61,-6.57 3.77,-9.02 2.17,-2.45 5.13,-4.21 8.5,-4.86 11.36,-2.18 22.36,-5.47 32.92,-9.85 5.87,-2.44 11.6,-5.21 17.18,-8.3 -16,-10.73 -30.97,-22.88 -44.74,-36.24 -4.4,1.46 -8.85,2.67 -13.38,3.6 -7.43,1.54 -14.98,2.36 -22.6,2.47l-0.01 0.01 -1.64 0c-32.85,0 -62.65,-13.36 -84.23,-34.94 -21.57,-21.58 -34.94,-51.37 -34.94,-84.23 0,-23.24 6.84,-45.5 18.96,-64.38 10.29,-16 24.36,-29.55 41.32,-39.2 -0.15,-4.03 -0.23,-8.06 -0.23,-12.1 0,-15.39 1.09,-30.51 3.22,-45.32zm145.84 305.9c1.86,-1.16 3.71,-2.36 5.52,-3.59l0.06 -0.06c3.45,-2.33 7.53,-3.03 11.32,-2.31 0.47,0.1 0.93,0.2 1.39,0.34 -0.16,-0.12 -0.34,-0.22 -0.51,-0.33 -18.8,-11.27 -36.11,-24.5 -51.72,-39.35 -0.13,0.47 -0.29,0.94 -0.47,1.39 -1.42,3.61 -4.22,6.68 -8.06,8.36l-0.01 0 -1.61 0.68c13.6,12.91 28.36,24.6 44.08,34.87zm9.98 2.92c-1.04,0.71 -2.09,1.4 -3.15,2.09l0 17.02c3.83,-2.23 7.6,-4.6 11.28,-7.1 1.65,-1.12 2.69,-2.81 3.04,-4.65 0.35,-1.82 0.01,-3.76 -1.09,-5.41l-0.04 -0.06c-1.1,-1.63 -2.79,-2.66 -4.61,-3.01 -1.81,-0.36 -3.76,-0.01 -5.41,1.1l-0.01 -0.01 -0.02 0.01zm11.32 19.39c-4.73,3.15 -9.56,6.09 -14.47,8.81l0 96.14c0,7.34 2.99,13.99 7.81,18.81 0.93,0.93 1.92,1.79 2.97,2.56l0 -1.98c0,-4.18 1.7,-7.96 4.44,-10.71l0.02 -0.01c0.51,-0.52 1.06,-0.99 1.64,-1.43 -1.51,-2.03 -2.4,-4.53 -2.4,-7.23l0 -104.97zm-189.86 -88.57c20.07,20.07 47.75,32.53 78.27,32.62l0.36 0c7.72,0 15.3,-0.77 22.66,-2.3 2.92,-0.61 5.8,-1.33 8.66,-2.16l-0.91 -0.93c-3.51,-3.64 -6.94,-7.37 -10.29,-11.17l-0.42 0.09c-6.47,1.34 -13.06,2.03 -19.71,2.03 -26.68,0 -50.87,-10.86 -68.4,-28.38 -17.53,-17.53 -28.38,-41.72 -28.38,-68.41 0,-18.87 5.55,-36.95 15.4,-52.28 6.42,-10.01 14.69,-18.84 24.45,-25.96 -0.64,-5.46 -1.15,-10.95 -1.52,-16.45 -14.28,8.84 -26.22,20.72 -35.11,34.56 -11.31,17.61 -17.7,38.4 -17.7,60.11 0,30.67 12.48,58.49 32.62,78.63zm32.38 -179.83c-1.53,0.69 -3.03,1.42 -4.51,2.19 0.29,5.31 0.7,10.6 1.26,15.88 2.99,-1.78 6.09,-3.41 9.29,-4.88 1.82,-0.84 3.14,-2.33 3.78,-4.07 0.3,-0.81 0.46,-1.66 0.46,-2.54l-0.08 -1.02c-0.1,-0.67 -0.29,-1.34 -0.59,-1.99 -0.83,-1.82 -2.32,-3.13 -4.07,-3.78 -1.74,-0.64 -3.73,-0.63 -5.54,0.2zm11.46 19.19c-0.67,0.44 -1.38,0.85 -2.14,1.19 -4.03,1.84 -7.88,3.98 -11.53,6.37 1.78,13.33 4.41,26.53 7.88,39.48 7.02,26.2 17.46,51.44 31.1,74.99 9.42,16.27 20.3,31.62 32.45,45.89 4.22,-1.13 8.36,-2.58 12.41,-4.34 0.82,-0.36 1.64,-0.63 2.47,-0.84 -13.64,-15.49 -25.62,-32.33 -35.76,-50.21 -19.53,-34.43 -32.25,-72.7 -36.87,-112.53zm-20.94 12.84c-7.46,6.02 -13.86,13.2 -19,21.2 -9.04,14.06 -14.13,30.66 -14.13,48 0,24.5 9.96,46.71 26.05,62.8 16.09,16.09 38.3,26.05 62.79,26.05 4.83,0 9.57,-0.37 14.2,-1.11 -11.35,-13.69 -21.58,-28.34 -30.52,-43.78 -14,-24.17 -24.71,-50.05 -31.91,-76.92 -3.19,-11.91 -5.69,-24.01 -7.49,-36.23zm94.26 157.97c-3.22,1.4 -6.49,2.62 -9.82,3.66 2.42,2.68 4.89,5.32 7.4,7.92 1.17,1.22 2.35,2.42 3.54,3.61 1.57,-0.6 3.11,-1.23 4.66,-1.89l-0.01 -0.01c1.83,-0.8 3.17,-2.26 3.85,-3.99 0.68,-1.73 0.7,-3.72 -0.09,-5.54 -0.8,-1.83 -2.27,-3.17 -3.99,-3.85 -1.74,-0.68 -3.73,-0.71 -5.55,0.09zm357.76 217.91l-6.54 0 0 27.67c0,9.81 -3.99,18.72 -10.43,25.15 -5.79,5.79 -13.56,9.6 -22.2,10.31 1.21,2.18 1.9,4.69 1.9,7.36l0 7c11.87,-1.15 22.53,-6.45 30.52,-14.44 9.07,-9.07 14.68,-21.58 14.68,-35.38l0 -28.58c-2.54,0.6 -5.21,0.91 -7.93,0.91zm-14.46 0l-243.98 0 0 27.67c0,7.63 3.1,14.54 8.12,19.55 5,5 11.92,8.11 19.55,8.11l188.65 0c7.63,0 14.55,-3.1 19.55,-8.11 5.01,-5.01 8.12,-11.93 8.12,-19.55l0 -27.67zm-251.9 0l-6.54 0c-2.73,0 -5.38,-0.32 -7.93,-0.91l0 28.58c0,13.8 5.62,26.31 14.68,35.38 7.98,7.99 18.65,13.29 30.52,14.44l0 -7c0,-2.67 0.69,-5.18 1.9,-7.36 -8.64,-0.71 -16.41,-4.52 -22.2,-10.31 -6.44,-6.43 -10.43,-15.34 -10.43,-25.15l0 -27.67zm-6.54 -7.92l6.54 0 0 -7.23c0,-2 -0.82,-3.81 -2.12,-5.12l0.01 -0.01c-1.21,-1.21 -2.86,-1.99 -4.69,-2.09l-0.43 -0.02c-2.01,0 -3.81,0.81 -5.13,2.11 -1.31,1.32 -2.11,3.12 -2.11,5.13l0 6.02c2.51,0.79 5.18,1.21 7.93,1.21zm14.46 0l29.44 0c-1.17,-2.15 -1.83,-4.62 -1.83,-7.23l0 -7.22 -29.43 0c1.16,2.15 1.82,4.61 1.82,7.22l0 7.23zm42.58 0l0.36 0c1.93,-0.05 3.68,-0.85 4.94,-2.1l0 -0.01c1.31,-1.31 2.11,-3.12 2.11,-5.12l0 -7.22 -14.47 0 0 7.22c0,2 0.82,3.8 2.12,5.11 1.27,1.27 3.01,2.07 4.94,2.12zm13.51 0l52.56 0c-1.17,-2.15 -1.83,-4.62 -1.83,-7.23l0 -7.22 -48.89 0 0 7.22c0,2.61 -0.66,5.08 -1.83,7.23zm65.71 0l0.36 0c1.94,-0.05 3.68,-0.85 4.94,-2.11l0.01 0.01c1.31,-1.32 2.11,-3.12 2.11,-5.13l0 -7.22 -14.47 0 0 7.22c0,2 0.82,3.8 2.12,5.11 1.27,1.27 3.01,2.07 4.94,2.12zm13.5 0l52.57 0c-1.17,-2.15 -1.83,-4.62 -1.83,-7.23l0 -7.22 -48.9 0 0 7.22c0,2.61 -0.66,5.08 -1.83,7.23zm65.72 0l0.7 0c1.79,-0.12 3.39,-0.91 4.59,-2.1 1.3,-1.31 2.1,-3.11 2.1,-5.11l0 -7.24 -14.45 0 0 7.22c0,2 0.81,3.81 2.11,5.12l0.01 -0.01c1.27,1.27 3.01,2.07 4.94,2.12zm13.48 0l29.47 0 0 -7.23c0,-2.61 0.66,-5.07 1.83,-7.22l-29.47 0 0 7.24c0,2.61 -0.66,5.06 -1.83,7.21zm37.4 0l6.54 0c2.77,0 5.43,-0.42 7.93,-1.21l0 -6.02c0,-2 -0.82,-3.81 -2.12,-5.12l0 -0.01c-1.3,-1.31 -3.11,-2.11 -5.12,-2.11l-0.42 0.02c-1.82,0.11 -3.48,0.89 -4.69,2.1l-0.01 -0.01c-1.31,1.32 -2.11,3.12 -2.11,5.13l0 7.23zm33.17 -26.63l0 -113.69c-2.15,1.17 -4.62,1.84 -7.23,1.84 -2.62,0 -5.09,-0.67 -7.24,-1.85l0 113.72c0,2.71 -0.89,5.22 -2.39,7.24 0.58,0.43 1.12,0.91 1.64,1.42l0 0c2.75,2.74 4.45,6.53 4.45,10.72l0 1.99c1.06,-0.79 2.05,-1.64 2.97,-2.56 4.82,-4.82 7.81,-11.48 7.81,-18.82zm-163.09 -676.45c-79.59,0 -151.75,32.37 -204.01,84.64 -52.26,52.26 -84.63,124.42 -84.63,204 0,50.47 13.46,99.44 37.76,142.27 24.31,42.85 59.46,79.58 102.82,105.54 2.29,1.36 4.13,3.27 5.4,5.52 1.28,2.26 1.98,4.82 1.98,7.47l0 127.02c0,1.17 0.47,2.24 1.23,3l0.01 0.01c0.69,0.69 1.63,1.14 2.69,1.21 13.77,0.49 28.49,0.02 42.37,0.02l0 -81.98c-8.9,-2.58 -16.87,-7.39 -23.26,-13.78 -9.84,-9.84 -15.93,-23.43 -15.93,-38.42 0,-14.97 6.1,-28.55 15.95,-38.41 9.83,-9.83 23.42,-15.93 38.41,-15.93 14.96,0 28.55,6.1 38.4,15.94 9.85,9.84 15.96,23.43 15.96,38.4 0,14.98 -6.1,28.58 -15.94,38.42 -6.39,6.39 -14.36,11.2 -23.25,13.78l0 81.98 48.89 0 0 -121.09c0,-4.19 1.7,-7.98 4.44,-10.73 2.75,-2.75 6.54,-4.44 10.73,-4.44 4.17,0 7.96,1.7 10.72,4.46 2.74,2.74 4.44,6.53 4.44,10.71l0 121.09 48.9 0 0 -114.74 -56.81 -55.61 -0.01 0 -0.25 -0.25 -51.59 -50.5c-7.88,4.47 -17,7.01 -26.7,7.01 -14.98,0 -28.57,-6.09 -38.41,-15.93 -9.84,-9.84 -15.94,-23.43 -15.94,-38.42 0,-14.98 6.1,-28.57 15.94,-38.41 9.84,-9.84 23.42,-15.94 38.41,-15.94 14.98,0 28.58,6.1 38.42,15.94 9.83,9.84 15.93,23.42 15.93,38.41 0,9.29 -2.33,18.04 -6.45,25.69l26.19 25.64 0 -169.46c-8.9,-2.58 -16.87,-7.39 -23.26,-13.78 -9.84,-9.84 -15.93,-23.43 -15.93,-38.42 0,-14.99 6.09,-28.58 15.93,-38.41 9.84,-9.84 23.43,-15.94 38.42,-15.94 14.99,0 28.58,6.1 38.41,15.94 9.84,9.83 15.94,23.42 15.94,38.41 0,14.99 -6.1,28.58 -15.94,38.42 -6.39,6.39 -14.35,11.2 -23.26,13.79l0 199.14 56.69 55.49c1.44,1.41 2.57,3.1 3.35,4.95 0.79,1.86 1.2,3.86 1.2,5.87l0 121.12c13.88,0 28.63,0.48 42.4,-0.02 1.06,-0.07 2,-0.53 2.7,-1.22 0.76,-0.77 1.24,-1.82 1.24,-3l0 -295.49c-8.9,-2.59 -16.87,-7.39 -23.26,-13.79 -9.84,-9.83 -15.94,-23.42 -15.94,-38.41 0,-14.99 6.1,-28.58 15.94,-38.42 9.84,-9.83 23.43,-15.93 38.42,-15.93 14.99,0 28.58,6.1 38.42,15.93 9.83,9.84 15.93,23.43 15.93,38.42l-0.02 0c-0.01,15 -6.11,28.59 -15.94,38.42 -6.39,6.39 -14.34,11.19 -23.24,13.78l0 140.18c32.9,-24.31 60,-55.23 79.86,-90.25 24.3,-42.83 37.77,-91.81 37.77,-142.28l0.01 0c-0.01,-79.57 -32.38,-151.73 -84.67,-204 -52.03,-52.03 -123.78,-84.34 -202.95,-84.63l-1.05 0zm-86.46 680.7l14.47 0 0 -80.3c-2.36,0.31 -4.78,0.47 -7.23,0.47 -2.46,0 -4.87,-0.16 -7.24,-0.48l0 80.31zm79.22 0l14.47 0 0 -121.09c0,-2.02 -0.82,-3.82 -2.12,-5.14 -1.3,-1.3 -3.11,-2.1 -5.11,-2.1 -2,0 -3.81,0.81 -5.12,2.12 -1.31,1.31 -2.12,3.12 -2.12,5.12l0 121.09zm79.22 0l14.45 0 0 -121.12c0,-1 -0.19,-1.95 -0.56,-2.8 -0.36,-0.87 -0.91,-1.68 -1.61,-2.37l-51.72 -50.63c-0.72,2.53 -2.06,4.77 -3.87,6.58l-0.01 -0.01c-1.73,1.73 -3.87,3.04 -6.26,3.78l49.57 48.53 0 118.05zm77.57 -134.84c-0.57,1.01 -0.9,2.18 -0.93,3.4l0 0.17c0,2 0.81,3.81 2.11,5.12 1.32,1.31 3.12,2.11 5.13,2.11 2,0 3.8,-0.81 5.11,-2.12l0.01 0.01c1.31,-1.31 2.11,-3.12 2.11,-5.12l0 -13.11c-3.59,2.37 -7.25,4.68 -10.97,6.91l-0.01 0c-1.08,0.64 -1.95,1.56 -2.56,2.63zm-0.93 -9.75c4.94,-2.97 9.76,-6.08 14.47,-9.32l0 -144.15c-2.36,0.32 -4.78,0.48 -7.23,0.48 -2.46,0 -4.87,-0.16 -7.24,-0.48l0 153.47zm-57.35 260.54l-14.47 0 0 27.66c0,9.81 -3.99,18.72 -10.43,25.16 -6.44,6.43 -15.34,10.43 -25.15,10.43l-82.41 0c-9.81,0 -18.71,-4 -25.15,-10.43 -6.44,-6.44 -10.43,-15.35 -10.43,-25.16l0 -27.66 -14.47 0 0 27.66c0,13.8 5.62,26.31 14.68,35.38 9.06,9.07 21.58,14.68 35.37,14.68l82.41 0c13.79,0 26.3,-5.62 35.37,-14.68 9.07,-9.07 14.68,-21.58 14.68,-35.38l0 -27.66zm-22.4 0l-137.73 0 0 27.66c0,7.63 3.1,14.55 8.11,19.55 5.01,5.01 11.93,8.11 19.55,8.11l82.41 0c7.63,0 14.54,-3.1 19.54,-8.11 5.01,-5 8.12,-11.93 8.12,-19.55l0 -27.66zm-160.12 -7.93l14.47 0 0 -7.23c0,-2.01 -0.81,-3.81 -2.1,-5.11l-0.02 -0.02c-1.3,-1.3 -3.11,-2.1 -5.12,-2.1 -1.99,0 -3.8,0.81 -5.11,2.12 -1.31,1.31 -2.12,3.11 -2.12,5.11l0 7.23zm22.4 0l137.73 0 0 -7.23c0,-2.61 0.66,-5.08 1.84,-7.23l-141.41 0c1.17,2.15 1.84,4.62 1.84,7.23l0 7.23zm145.65 0l14.47 0 0 -7.23c0,-2 -0.82,-3.8 -2.12,-5.11 -1.31,-1.32 -3.12,-2.12 -5.12,-2.12 -2,0 -3.8,0.81 -5.11,2.12l-0.02 0c-1.3,1.3 -2.1,3.1 -2.1,5.11l0 7.23zm-171.18 -198.32l0 -4.7c0,-3.59 1.25,-6.89 3.34,-9.49 -4.07,-1.62 -7.73,-4.06 -10.78,-7.11 -5.78,-5.78 -9.36,-13.78 -9.36,-22.59 0,-8.8 3.59,-16.78 9.38,-22.58 5.79,-5.78 13.78,-9.36 22.58,-9.36 8.81,0 16.79,3.58 22.58,9.35 5.79,5.79 9.38,13.78 9.38,22.59 0,8.81 -3.59,16.8 -9.37,22.59 -3.05,3.04 -6.7,5.48 -10.78,7.11 2.09,2.59 3.35,5.9 3.35,9.49l0 4.7c6.7,-2.32 12.72,-6.15 17.64,-11.07 8.41,-8.4 13.62,-20.01 13.62,-32.82 0,-12.8 -5.21,-24.4 -13.6,-32.8 -8.41,-8.4 -20.02,-13.61 -32.83,-13.61 -12.81,0 -24.43,5.21 -32.84,13.61 -8.39,8.39 -13.6,19.99 -13.6,32.8 0,12.8 5.21,24.41 13.62,32.82 4.92,4.93 10.94,8.75 17.65,11.07zm7.92 -4.7l0 6.67c2.36,0.37 4.78,0.57 7.24,0.57 2.46,0 4.87,-0.19 7.23,-0.57l0 -6.67c0,-2 -0.81,-3.8 -2.12,-5.11 -1.26,-1.27 -2.99,-2.06 -4.9,-2.11l-0.42 0c-1.92,0.05 -3.65,0.85 -4.92,2.1l0.01 0.01c-1.31,1.31 -2.12,3.11 -2.12,5.11zm6.96 -15.15l0.55 0c6.51,-0.08 12.42,-2.76 16.71,-7.05 4.35,-4.35 7.05,-10.36 7.05,-16.98 0,-6.64 -2.69,-12.64 -7.03,-16.98 -4.35,-4.34 -10.36,-7.04 -17,-7.04 -6.64,0 -12.65,2.7 -17,7.05 -4.35,4.34 -7.04,10.34 -7.04,16.97 0,6.62 2.7,12.63 7.05,16.99 4.29,4.28 10.19,6.96 16.71,7.04zm28.96 -116.78l-3.37 -3.29 -0.03 -0.02 0 -0.01c-2.53,-2.49 -4,-5.68 -4.41,-8.96 -3.96,1.77 -8.35,2.75 -12.96,2.75 -8.82,0 -16.81,-3.58 -22.59,-9.36 -5.79,-5.79 -9.37,-13.79 -9.37,-22.6 0,-8.82 3.58,-16.81 9.36,-22.59 5.79,-5.79 13.79,-9.37 22.6,-9.37 8.82,0 16.81,3.58 22.6,9.37 5.78,5.78 9.36,13.77 9.36,22.59 0,4.36 -0.87,8.52 -2.47,12.3 3.31,0.33 6.53,1.74 9.09,4.24l3.37 3.3c2.87,-6.03 4.48,-12.77 4.48,-19.88 0,-12.8 -5.21,-24.4 -13.62,-32.81 -8.41,-8.41 -20.02,-13.62 -32.82,-13.62 -12.8,0 -24.4,5.21 -32.81,13.61 -8.41,8.41 -13.62,20.02 -13.62,32.82 0,12.8 5.21,24.41 13.61,32.82 8.41,8.41 20.02,13.62 32.82,13.62 7.46,0 14.51,-1.77 20.76,-4.91zm2.19 -8.91l4.74 4.64c1.82,-1.35 3.52,-2.83 5.12,-4.44 1.83,-1.82 3.51,-3.8 5.01,-5.92l-4.78 -4.69c-1.42,-1.39 -3.28,-2.07 -5.15,-2.06 -1.63,0.02 -3.27,0.6 -4.6,1.72l-0.71 0.74 -0.25 0.25c-1.09,1.33 -1.61,2.98 -1.59,4.61l0 0.02c0.02,1.84 0.75,3.69 2.19,5.09l0.03 0.02 -0.01 0.01zm10.47 10.24l40.67 39.82 0 -20.27 -30.54 -29.9c-1.57,2.1 -3.28,4.08 -5.13,5.93 -1.58,1.58 -3.25,3.05 -5,4.43zm-16.67 -25.61l0.41 -0.43 0.02 -0.03 0.01 0 0.38 -0.38c4,-4.29 6.46,-10.05 6.46,-16.36 0,-6.63 -2.7,-12.64 -7.05,-16.99 -4.35,-4.35 -10.36,-7.05 -16.99,-7.05 -6.63,0 -12.64,2.7 -16.99,7.05 -4.35,4.35 -7.04,10.35 -7.04,16.99 0,6.63 2.69,12.64 7.04,16.99 4.35,4.35 10.36,7.04 16.99,7.04 6.5,0 12.42,-2.6 16.75,-6.82zm65.27 41.85l14.47 14.17 0 -189.7c-2.37,0.31 -4.78,0.48 -7.23,0.48 -2.46,0 -4.87,-0.17 -7.24,-0.49l0 175.55zm14.47 25.23l-14.47 -14.17 0 17.22c0,2 0.82,3.8 2.12,5.12l-0.01 0.01c1.32,1.3 3.12,2.11 5.13,2.11 2.01,0 3.82,-0.81 5.11,-2.1l0 -0.02c1.32,-1.31 2.12,-3.12 2.12,-5.12l0 -3.05zm115.5 -123.91l0 -4.72c0,-3.58 1.25,-6.88 3.34,-9.47 -4.07,-1.62 -7.72,-4.06 -10.77,-7.11 -5.79,-5.79 -9.37,-13.78 -9.37,-22.59 0,-8.82 3.58,-16.81 9.37,-22.59 5.78,-5.79 13.77,-9.37 22.59,-9.37 8.81,0 16.79,3.58 22.57,9.36 5.78,5.78 9.36,13.77 9.37,22.6l0.02 0c0,8.82 -3.58,16.81 -9.37,22.59 -3.04,3.04 -6.7,5.48 -10.77,7.11 2.08,2.59 3.33,5.89 3.33,9.47l0 4.72c6.7,-2.32 12.72,-6.16 17.64,-11.07 8.41,-8.42 13.64,-20.03 13.65,-32.82l-0.02 0c0,-12.8 -5.21,-24.41 -13.61,-32.82 -8.4,-8.4 -20.01,-13.61 -32.82,-13.61 -12.8,0 -24.41,5.21 -32.83,13.61 -8.4,8.4 -13.61,20.01 -13.61,32.82 0,12.8 5.21,24.41 13.62,32.82 4.92,4.92 10.94,8.75 17.65,11.07zm7.92 -4.72l0 6.69c2.36,0.37 4.78,0.57 7.24,0.57 2.46,0 4.87,-0.19 7.23,-0.57l0 -6.69c0,-2 -0.81,-3.81 -2.11,-5.12l-0.01 0.01c-1.18,-1.19 -2.78,-1.97 -4.55,-2.1l-1.12 0c-1.78,0.13 -3.37,0.91 -4.56,2.09 -1.3,1.31 -2.11,3.12 -2.11,5.12zm6.53 -15.15l0.71 -0.02 0.7 0.02c6.35,-0.18 12.09,-2.83 16.29,-7.04 4.35,-4.34 7.04,-10.35 7.04,-16.98l0.02 0c-0.01,-6.62 -2.72,-12.63 -7.08,-16.99 -4.35,-4.35 -10.35,-7.05 -16.97,-7.05 -6.63,0 -12.63,2.7 -16.99,7.05 -4.35,4.35 -7.05,10.36 -7.05,16.99 0,6.62 2.7,12.63 7.05,16.98 4.2,4.2 9.94,6.86 16.28,7.04zm-152.35 -67l0 -4.71c0,-3.59 1.25,-6.89 3.33,-9.49 -4.06,-1.62 -7.71,-4.05 -10.76,-7.1 -5.79,-5.79 -9.37,-13.78 -9.37,-22.59 0,-8.82 3.58,-16.81 9.37,-22.59 5.78,-5.79 13.77,-9.37 22.59,-9.37 8.82,0 16.81,3.58 22.59,9.36 5.79,5.79 9.37,13.78 9.37,22.6 0,8.81 -3.59,16.8 -9.37,22.59 -3.04,3.04 -6.69,5.47 -10.76,7.1 2.07,2.6 3.32,5.9 3.32,9.49l0 4.71c6.72,-2.32 12.73,-6.15 17.66,-11.06 8.4,-8.41 13.61,-20.02 13.61,-32.83 0,-12.8 -5.21,-24.4 -13.61,-32.82 -8.41,-8.4 -20.01,-13.61 -32.82,-13.61 -12.81,0 -24.41,5.21 -32.83,13.61 -8.4,8.41 -13.61,20.01 -13.61,32.82 0,12.8 5.21,24.41 13.62,32.82 4.92,4.93 10.94,8.75 17.65,11.07zm7.92 -4.71l0 6.68c2.36,0.37 4.77,0.57 7.24,0.57 2.46,0 4.87,-0.19 7.23,-0.57l0 -6.68c0,-2 -0.81,-3.81 -2.12,-5.12 -1.19,-1.19 -2.79,-1.97 -4.58,-2.1l-1.07 0c-1.79,0.13 -3.4,0.9 -4.59,2.09l0.01 0.01c-1.31,1.31 -2.12,3.12 -2.12,5.12zm6.57 -15.15l0.67 -0.01 0.66 0.01c6.36,-0.17 12.11,-2.83 16.32,-7.04 4.36,-4.35 7.05,-10.36 7.05,-16.98 0,-6.63 -2.69,-12.64 -7.04,-16.99 -4.35,-4.35 -10.36,-7.05 -16.99,-7.05 -6.63,0 -12.63,2.7 -16.99,7.05 -4.35,4.36 -7.05,10.36 -7.05,16.99 0,6.62 2.7,12.63 7.05,16.98 4.21,4.21 9.96,6.87 16.32,7.04zm-17.29 -308.59c-4.18,0 -7.96,-1.7 -10.71,-4.44l-0.02 0c-2.74,-2.75 -4.44,-6.54 -4.44,-10.72l0 -42.62c0,-4.19 1.7,-7.98 4.44,-10.73l0.02 0c2.75,-2.74 6.53,-4.44 10.71,-4.44 4.17,0 7.95,1.7 10.71,4.45l0.01 -0.01c2.74,2.75 4.44,6.54 4.44,10.73l0 42.62c0,4.17 -1.69,7.96 -4.44,10.71 -2.75,2.75 -6.54,4.45 -10.72,4.45zm-5.13 -10.04c1.31,1.31 3.12,2.11 5.13,2.11 2.01,0 3.81,-0.81 5.11,-2.1 1.31,-1.31 2.12,-3.12 2.12,-5.13l0 -42.62c0,-2 -0.82,-3.81 -2.12,-5.12l0 -0.01c-1.3,-1.31 -3.11,-2.11 -5.11,-2.11 -2.01,0 -3.82,0.82 -5.13,2.11l0.01 0.01c-1.31,1.31 -2.12,3.12 -2.12,5.12l0 42.62c0,2 0.82,3.8 2.12,5.11l-0.01 0.01zm-105.47 21.58c-0.59,-0.34 -1.14,-0.71 -1.69,-1.12 -2.55,-1.97 -4.51,-4.75 -5.41,-8.1l-11.04 -41.2c-1.08,-4.03 -0.41,-8.13 1.54,-11.5 1.93,-3.35 5.16,-5.96 9.21,-7.04l0.04 -0.01c4.02,-1.08 8.11,-0.41 11.45,1.53 3.34,1.94 5.95,5.15 7.04,9.17 0,7.33 11.05,33.89 11.05,41.22 1.08,4.04 0.41,8.13 -1.54,11.5 -1.93,3.35 -5.16,5.96 -9.2,7.04 -0.61,0.18 -1.24,0.32 -1.85,0.4 -0.73,0.1 -1.42,0.14 -2.06,0.14l-9.57 0 2.03 -2.04zm3.11 -7.39c1.24,0.95 2.79,1.49 4.43,1.49l0.23 0c0.28,0 0.53,-0.02 0.74,-0.05 0.27,-0.04 0.53,-0.1 0.76,-0.16l0.15 -0.05c1.93,-0.51 3.46,-1.76 4.39,-3.36 0.92,-1.6 1.24,-3.56 0.73,-5.5 -3.69,-13.72 -7.47,-27.46 -11.05,-41.2 -0.52,-1.92 -1.77,-3.45 -3.36,-4.37 -1.59,-0.92 -3.54,-1.24 -5.46,-0.73l-0.04 0.01c-1.93,0.51 -3.46,1.76 -4.39,3.36 -0.92,1.6 -1.24,3.56 -0.73,5.5l11.04 41.18c0.43,1.62 1.36,2.96 2.56,3.88zm-91.56 49.2c-2.64,0 -5.26,-0.71 -7.59,-2.05 -2.24,-1.3 -4.18,-3.17 -5.56,-5.54l-21.32 -36.91 -0.01 -0.02 0.01 -0.01c-2.09,-3.62 -2.52,-7.74 -1.52,-11.48 0.99,-3.71 3.39,-7.04 6.95,-9.13 0.04,-0.02 0.09,-0.05 0.12,-0.08l0.01 0.01c3.62,-2.09 7.75,-2.52 11.48,-1.52 3.71,1 7.04,3.39 9.14,6.95l21.38 37.01c2.1,3.63 2.53,7.77 1.53,11.51 -1.01,3.75 -3.44,7.11 -7.06,9.2 -1.18,0.68 -2.4,1.18 -3.65,1.52 -1.3,0.36 -2.61,0.53 -3.91,0.53zm-3.65 -8.89c1.09,0.62 2.35,0.96 3.65,0.96 0.63,0 1.26,-0.08 1.86,-0.24 0.6,-0.16 1.18,-0.4 1.73,-0.72 1.73,-1 2.89,-2.6 3.37,-4.4 0.48,-1.8 0.29,-3.76 -0.71,-5.49l-21.33 -36.91c-0.99,-1.73 -2.6,-2.89 -4.39,-3.37 -1.76,-0.47 -3.69,-0.3 -5.39,0.64l0 0 -0.12 0.09 -0.01 0c-1.72,1 -2.87,2.6 -3.35,4.38 -0.48,1.8 -0.28,3.77 0.71,5.5l0.01 -0.01 0.01 0.02 0 0 21.31 36.89c0.66,1.15 1.59,2.06 2.65,2.66zm-78.83 72.16c-1.95,0 -3.91,-0.39 -5.78,-1.16 -1.8,-0.74 -3.48,-1.82 -4.93,-3.27l-0.02 0c-2.57,-2.58 -30.15,-30.14 -30.15,-30.17 -2.96,-2.96 -4.44,-6.83 -4.44,-10.7 0,-3.86 1.48,-7.74 4.44,-10.7 0,-0.02 0,-0.02 0.02,-0.02 2.96,-2.96 6.84,-4.44 10.7,-4.44 3.87,0 7.75,1.48 10.7,4.44l0.02 0 30.16 30.15c2.95,2.96 4.44,6.84 4.44,10.72 0,3.87 -1.49,7.75 -4.44,10.71l-0.02 0.02c-1.44,1.43 -3.11,2.53 -4.91,3.27 -1.86,0.77 -3.83,1.16 -5.79,1.16zm-2.78 -8.47c0.86,0.36 1.82,0.54 2.78,0.54 0.97,0 1.92,-0.17 2.79,-0.54 0.85,-0.35 1.63,-0.86 2.33,-1.56 1.4,-1.41 2.1,-3.27 2.1,-5.13 0,-1.85 -0.7,-3.7 -2.11,-5.11l-30.15 -30.15 0 -0.01c-1.4,-1.4 -3.26,-2.11 -5.12,-2.11 -1.85,0 -3.71,0.71 -5.11,2.11l0 0 -0.01 0.01 0 -0.01c-1.4,1.41 -2.1,3.27 -2.1,5.12 0,1.86 0.7,3.72 2.1,5.12 0.01,-0.01 27.64,27.63 30.16,30.15l-0.01 0.01c0.7,0.69 1.5,1.21 2.35,1.56zm565.83 8.47c-1.95,0 -3.92,-0.38 -5.79,-1.16 -1.8,-0.74 -3.47,-1.82 -4.93,-3.27l-0.02 0 0 -0.02c-2.96,-2.96 -4.44,-6.84 -4.44,-10.71 0,-3.87 1.48,-7.74 4.44,-10.7l0 -0.02 30.15 -30.15 0.02 0c2.96,-2.96 6.84,-4.44 10.7,-4.44 3.87,0 7.75,1.48 10.71,4.44 0.02,0 0.02,0 0.02,0.02 2.96,2.96 4.44,6.83 4.44,10.7 0,3.87 -1.48,7.75 -4.44,10.71l0 0.01 -30.15 30.16 -0.01 -0.01c-1.44,1.44 -3.12,2.54 -4.92,3.27 -1.86,0.78 -3.83,1.16 -5.78,1.16zm-2.79 -8.47c0.86,0.36 1.82,0.54 2.79,0.54 0.97,0 1.91,-0.17 2.79,-0.54 0.84,-0.35 1.63,-0.86 2.31,-1.55l0 -0.02 30.15 -30.15 0.01 0c1.4,-1.4 2.1,-3.26 2.1,-5.12 0,-1.85 -0.7,-3.71 -2.1,-5.12l-0.01 0.01 0 -0.01 0 0c-1.4,-1.4 -3.26,-2.11 -5.12,-2.11 -1.85,0 -3.71,0.71 -5.11,2.11l0 0 -30.15 30.16 -0.01 -0.01c-1.4,1.41 -2.1,3.27 -2.1,5.12 0,1.86 0.7,3.72 2.1,5.13l0.01 -0.01 -0.01 0.01c0.7,0.69 1.5,1.21 2.35,1.56zm-79.68 -54.8c-1.3,0 -2.61,-0.17 -3.91,-0.53 -1.25,-0.34 -2.48,-0.84 -3.65,-1.52 -3.62,-2.09 -6.06,-5.45 -7.06,-9.2 -1,-3.74 -0.58,-7.87 1.52,-11.49l0 -0.02 21.32 -36.91c2.09,-3.62 5.46,-6.05 9.2,-7.06 3.74,-1 7.86,-0.58 11.49,1.51l0 0 0.02 0.02c3.62,2.09 6.05,5.45 7.06,9.19 1,3.74 0.57,7.86 -1.52,11.48l0.01 0.01 -0.02 0.02 -21.32 36.91c-1.38,2.37 -3.31,4.24 -5.56,5.54 -2.31,1.33 -4.94,2.05 -7.58,2.05zm-1.86 -8.17c0.61,0.16 1.23,0.24 1.86,0.24 1.3,0 2.55,-0.34 3.65,-0.96 1.06,-0.61 1.98,-1.51 2.65,-2.66l21.3 -36.89 0 0 0.02 -0.02 0 0.01c1,-1.73 1.19,-3.7 0.71,-5.5 -0.48,-1.78 -1.63,-3.38 -3.35,-4.38l0 0 -0.05 -0.03c-1.71,-0.99 -3.68,-1.18 -5.46,-0.7 -1.8,0.48 -3.4,1.64 -4.4,3.37l-21.32 36.91 -0.01 0c-0.99,1.72 -1.19,3.7 -0.71,5.49 0.48,1.8 1.64,3.4 3.38,4.4 0.54,0.32 1.12,0.56 1.73,0.72zm-94.15 -31.61c-0.59,0 -1.25,-0.05 -1.96,-0.14l-0.02 0c-0.64,-0.09 -1.27,-0.21 -1.88,-0.36l-0.08 -0.01c-4.04,-1.09 -7.26,-3.72 -9.2,-7.07 -1.94,-3.36 -2.6,-7.46 -1.53,-11.49 3.69,-13.74 7.33,-27.5 11.05,-41.22 1.09,-4.01 3.7,-7.21 7.06,-9.15 3.34,-1.93 7.41,-2.58 11.43,-1.52l0.07 0.01c4.03,1.09 7.25,3.72 9.19,7.07 1.94,3.36 2.6,7.45 1.53,11.49l-11.04 41.17c-0.88,3.34 -2.83,6.12 -5.39,8.09 -2.61,2 -5.85,3.14 -9.23,3.14zm-0.92 -7.98c0.25,0.04 0.56,0.05 0.92,0.05 1.62,0 3.18,-0.54 4.43,-1.5 1.2,-0.92 2.12,-2.25 2.54,-3.83l11.04 -41.18c0.51,-1.92 0.19,-3.88 -0.73,-5.48 -0.93,-1.59 -2.47,-2.85 -4.4,-3.37l-0.06 -0.02 0 0c-1.93,-0.51 -3.87,-0.19 -5.45,0.72 -1.58,0.91 -2.82,2.44 -3.34,4.36 0,3.03 -9.51,35.45 -11.05,41.21 -0.51,1.92 -0.19,3.88 0.73,5.47 0.92,1.6 2.47,2.86 4.4,3.38 0.35,0.09 0.67,0.15 0.97,0.19z"/>
 </g>
</svg>
