<?xml version="1.0" encoding="UTF-8"?>
<!DOCTYPE svg PUBLIC "-//W3C//DTD SVG 1.1//EN" "http://www.w3.org/Graphics/SVG/1.1/DTD/svg11.dtd">
<!-- Creator: CorelDRAW -->
<svg xmlns="http://www.w3.org/2000/svg" xml:space="preserve" width="15mm" height="15mm" version="1.1" style="shape-rendering:geometricPrecision; text-rendering:geometricPrecision; image-rendering:optimizeQuality; fill-rule:evenodd; clip-rule:evenodd"
viewBox="0 0 419.83 419.83"
 xmlns:xlink="http://www.w3.org/1999/xlink"
 xmlns:xodm="http://www.corel.com/coreldraw/odm/2003">
 <defs>
  <style type="text/css">
   <![CDATA[
    .fil0 {fill:none}
    .fil1 {fill:white;fill-rule:nonzero}
   ]]>
  </style>
 </defs>
 <g id="Layer_x0020_1">
  <metadata id="CorelCorpID_0Corel-Layer"/>
  <circle class="fil0" cx="209.92" cy="209.92" r="209.92"/>
  <g id="_2379010211728">
   <path class="fil1" d="M204.44 302.34c0.06,0 0.13,0.01 0.2,0.01 1.64,0 3.12,-0.99 3.74,-2.5l6.21 -14.99c0.2,-0.49 0.31,-1.02 0.31,-1.55 0,-1.14 -0.48,-2.24 -1.33,-3l-11.54 -10.42 0 -9.19 11.54 -10.42c0.85,-0.76 1.33,-1.86 1.33,-3 0,-0.53 -0.1,-1.06 -0.31,-1.55l-6.21 -14.99c-0.62,-1.51 -2.1,-2.5 -3.73,-2.5 -0.07,0 -0.14,0 -0.21,0.01l-15.53 0.79 -6.5 -6.5 0.79 -15.53c0,-0.07 0.01,-0.14 0.01,-0.21 0,-1.63 -0.99,-3.11 -2.5,-3.74l-14.99 -6.21c-0.49,-0.2 -1.02,-0.31 -1.55,-0.31 -1.14,0 -2.23,0.48 -3,1.33l-10.42 11.54 -9.19 0 -10.42 -11.54c-0.77,-0.85 -1.86,-1.33 -3,-1.33 -0.53,0 -1.06,0.1 -1.55,0.31l-14.99 6.21c-1.51,0.62 -2.5,2.1 -2.5,3.73 0,0.07 0,0.14 0.01,0.21l0.79 15.53 -6.5 6.5 -15.53 -0.79c-0.07,-0 -0.14,-0.01 -0.21,-0.01 -1.63,0 -3.11,0.99 -3.73,2.5l-6.21 14.99c-0.2,0.49 -0.31,1.02 -0.31,1.55 0,1.14 0.48,2.23 1.33,3l11.54 10.42 0 9.19 -11.54 10.42c-0.85,0.77 -1.33,1.86 -1.33,3 0,0.53 0.1,1.06 0.31,1.55l6.21 14.99c0.63,1.51 2.1,2.5 3.74,2.5 0.07,0 0.14,-0 0.21,-0.01l15.53 -0.79 6.5 6.5 -0.79 15.53c-0,0.07 -0.01,0.14 -0.01,0.2 0,1.63 0.99,3.11 2.5,3.74l14.99 6.21c0.49,0.2 1.02,0.31 1.55,0.31 1.14,0 2.24,-0.49 3,-1.33l10.42 -11.54 9.19 0 10.42 11.54c0.77,0.85 1.86,1.33 3,1.33 0.53,0 1.06,-0.11 1.55,-0.31l14.99 -6.21c1.51,-0.63 2.5,-2.1 2.5,-3.74 0,-0.07 -0,-0.14 -0.01,-0.21l-0.79 -15.53 6.5 -6.5 15.53 0.79 0 0zm-58.28 -73.45c-20.1,0 -36.39,16.3 -36.39,36.39 0,20.1 16.3,36.39 36.39,36.39 20.1,0 36.39,-16.3 36.39,-36.39 -0.02,-20.09 -16.31,-36.38 -36.4,-36.39l0 0 0 0zm0 64.7c-15.63,0 -28.31,-12.68 -28.31,-28.31 0,-15.63 12.68,-28.31 28.31,-28.31 15.63,0 28.31,12.68 28.31,28.31 -0.01,15.62 -12.68,28.29 -28.31,28.31l0 0 0 0zm141.53 -145.58l8.09 0 0 8.09 -8.09 0 0 -8.09 0 0zm-16.18 0l8.09 0 0 8.09 -8.09 0 0 -8.09 0 0zm-97.05 0l8.09 0 0 8.09 -8.09 0 0 -8.09 0 0zm-16.17 0l8.09 0 0 8.09 -8.09 0 0 -8.09 0 0zm-4.04 20.22l0 16.17c0,2.23 1.81,4.04 4.04,4.04l20.22 0 0 8.09 8.09 0 0 -8.09 20.22 0c2.23,0 4.04,-1.81 4.04,-4.04l0 -4.04 12.13 0 0 117.27 8.09 0 0 -48.53 12.13 0 0 4.04c0,2.23 1.81,4.04 4.04,4.04l20.22 0 0 8.09 -20.22 0c-2.23,0 -4.04,1.81 -4.04,4.04l0 16.17c0,2.23 1.81,4.04 4.04,4.04l20.22 0 0 8.09 8.09 0 0 -8.09 20.22 0c2.23,0 4.04,-1.81 4.04,-4.04l0 -16.17c0,-2.23 -1.81,-4.04 -4.04,-4.04l-20.22 0 0 -8.09 20.22 0c2.23,0 4.04,-1.81 4.04,-4.04l0 -16.18c0,-2.23 -1.81,-4.04 -4.04,-4.04l-48.52 0c-2.23,0 -4.04,1.81 -4.04,4.04l0 4.04 -12.13 0 0 -60.65 12.13 0 0 4.04c0,2.23 1.81,4.04 4.04,4.04l20.22 0 0 8.09 -20.22 0c-2.23,0 -4.04,1.81 -4.04,4.04l0 16.17c0,2.23 1.81,4.04 4.04,4.04l48.52 0c2.23,0 4.04,-1.81 4.04,-4.04l0 -16.17c0,-2.23 -1.81,-4.04 -4.04,-4.04l-20.22 0 0 -8.09 20.22 0c2.23,0 4.04,-1.81 4.04,-4.04l0 -16.17c0,-2.23 -1.81,-4.04 -4.04,-4.04l-48.52 0c-2.23,0 -4.04,1.81 -4.04,4.04l0 4.04 -12.13 0 0 -12.47c11.67,-1.96 20.22,-12.07 20.22,-23.9 0,-5.04 -1.57,-9.96 -4.5,-14.06l6.17 -6.17 42.81 0 0 -8.09 -44.48 0c0,0 0,0 0,0 -1.07,0 -2.1,0.43 -2.86,1.19l-7.36 7.36c-4.1,-2.91 -9.02,-4.49 -14.06,-4.49 -13.39,0 -24.26,10.86 -24.26,24.26 0,11.84 8.55,21.95 20.22,23.92l0 12.47 -12.13 0 0 -4.04c0,-2.23 -1.81,-4.04 -4.04,-4.04l-48.52 0c-2.23,0 -4.04,1.81 -4.04,4.04l0 0zm137.49 113.23l-40.44 0 0 -8.09 40.44 0 0 8.09zm-40.44 -40.44l40.44 0 0 8.09 -40.44 0 0 -8.09zm40.44 -28.31l-40.44 0 0 -8.09 40.44 0 0 8.09zm-40.44 -40.44l40.44 0 0 8.09 -40.44 0 0 -8.09 0 0zm-40.44 -36.4c0,0 0,-0.01 0,-0.01 0,-8.93 7.24,-16.17 16.16,-16.17 2.89,0 5.73,0.78 8.22,2.25l-11.07 11.07 5.72 5.72 11.07 -11.07c1.46,2.49 2.24,5.33 2.24,8.21 0,8.93 -7.24,16.17 -16.17,16.17 -8.93,0 -16.17,-7.24 -16.17,-16.17 0,0 0,-0 0,-0l0 0 0 0zm-48.52 36.4l40.44 0 0 8.09 -40.44 0 0 -8.09 0 0zm153.66 -80.88l-177.93 0c-2.23,0 -4.04,1.81 -4.04,4.04l0 97.05 8.09 0 0 -93.01 169.84 0 0 210.28 -121.31 0 0 8.09 125.36 0c2.23,0 4.04,-1.81 4.04,-4.04l0 -218.37c0,-2.23 -1.81,-4.04 -4.04,-4.04l0 0zm-169.84 153.66c-11.16,0 -20.22,9.05 -20.22,20.22 0,11.16 9.05,20.22 20.22,20.22 11.16,0 20.22,-9.05 20.22,-20.22 -0.01,-11.16 -9.06,-20.21 -20.22,-20.22l0 0 0 0zm0 32.35c-6.7,0 -12.13,-5.43 -12.13,-12.13 0,-6.7 5.43,-12.13 12.13,-12.13 6.7,0 12.13,5.43 12.13,12.13 -0.01,6.7 -5.44,12.12 -12.13,12.13l0 0zm38.31 17.13l-9.04 9.04c-0.76,0.76 -1.18,1.79 -1.18,2.86 0,0.07 0,0.14 0.01,0.2l0.74 14.48 -9.72 4.02 -9.71 -10.76c-0.76,-0.85 -1.86,-1.34 -3,-1.34 0,0 0,0 0,0l-12.79 0c0,0 0,0 0,0 -1.14,0 -2.23,0.48 -3,1.33l-9.71 10.76 -9.72 -4.03 0.74 -14.47c0,-0.07 0.01,-0.14 0.01,-0.21 0,-1.07 -0.43,-2.1 -1.18,-2.86l-9.04 -9.04c-0.76,-0.76 -1.79,-1.19 -2.87,-1.19 -0.07,0 -0.13,0 -0.2,0.01l-14.48 0.74 -4.02 -9.72 10.76 -9.71c0.85,-0.76 1.33,-1.86 1.33,-3 0,0 0,0 0,0l0 -12.79c0,0 0,0 0,0 0,-1.14 -0.49,-2.23 -1.33,-3l-10.76 -9.71 4.02 -9.72 14.48 0.74c0.06,0 0.13,0.01 0.2,0.01 1.07,0 2.1,-0.43 2.86,-1.19l9.04 -9.04c0.76,-0.76 1.18,-1.79 1.18,-2.86 0,-0.07 -0,-0.14 -0.01,-0.21l-0.74 -14.47 9.72 -4.03 9.71 10.76c0.77,0.85 1.86,1.33 3,1.33 0,0 0,0 0,0l12.78 0c0,0 0,0 0,0 1.14,0 2.24,-0.48 3,-1.33l9.71 -10.76 9.72 4.03 -0.74 14.47c-0,0.07 -0.01,0.14 -0.01,0.21 0,1.07 0.43,2.1 1.18,2.86l9.04 9.04c0.76,0.76 1.79,1.19 2.86,1.19 0.07,0 0.14,-0 0.21,-0.01l14.47 -0.74 4.03 9.72 -10.76 9.71c-0.85,0.76 -1.33,1.86 -1.33,3 0,0 0,0 0,0l0 12.79c0,0 0,0 0,0 0,1.14 0.48,2.23 1.33,3l10.76 9.71 -4.03 9.72 -14.47 -0.74c-0.07,-0 -0.14,-0.01 -0.21,-0.01 -1.07,0 -2.1,0.43 -2.86,1.18l0 0 0 0z"/>
  </g>
 </g>
</svg>
