<?xml version="1.0" encoding="UTF-8"?>
<!DOCTYPE svg PUBLIC "-//W3C//DTD SVG 1.1//EN" "http://www.w3.org/Graphics/SVG/1.1/DTD/svg11.dtd">
<!-- Creator: CorelDRAW -->
<svg xmlns="http://www.w3.org/2000/svg" xml:space="preserve" width="15mm" height="15mm" version="1.1" style="shape-rendering:geometricPrecision; text-rendering:geometricPrecision; image-rendering:optimizeQuality; fill-rule:evenodd; clip-rule:evenodd"
viewBox="0 0 245.72 245.72"
 xmlns:xlink="http://www.w3.org/1999/xlink"
 xmlns:xodm="http://www.corel.com/coreldraw/odm/2003">
 <defs>
  <style type="text/css">
   <![CDATA[
    .fil0 {fill:none}
    .fil1 {fill:white}
   ]]>
  </style>
 </defs>
 <g id="Layer_x0020_1">
  <metadata id="CorelCorpID_0Corel-Layer"/>
  <circle class="fil0" cx="122.86" cy="122.86" r="122.86"/>
  <g id="_2523953174288">
   <path class="fil1" d="M23.37 123.19c0,-2.47 0.82,-4.5 2.4,-6.22l1.11 -0.95c1.21,-0.9 2.97,-1.7 4.62,-1.7l16.17 0c4.08,0 8.12,4.09 8.12,8.04 0,3.12 -0.41,4.17 -2.18,6.44 -0.66,0.84 -2.09,1.81 -3.12,2.22 -1.06,0.42 -2.12,0.7 -3.56,0.7l-14.69 0c-3.3,0 -6.36,-1.9 -7.63,-4.27 -0.67,-1.24 -1.23,-2.53 -1.23,-4.27zm-5.42 -3.12l0 5.83c0,1.31 1.42,3.93 2.17,4.97 1.43,1.98 3.35,3.61 5.64,4.54 1.28,0.52 2.98,1.08 4.75,1.08l16.9 0c2.78,0 5.22,-1.1 7.32,-2.53 3.42,-2.32 5.65,-6.7 5.65,-10.93 0,-2.18 -0.51,-3.92 -1.17,-5.47 -0.2,-0.48 -0.32,-0.7 -0.55,-1.09 -0.22,-0.38 -0.39,-0.73 -0.65,-1.07 -1.09,-1.46 -1.72,-2.21 -3.28,-3.36 -1.96,-1.44 -4.84,-2.53 -7.56,-2.53l-16.41 0c-1.82,0 -3.47,0.48 -4.81,1.02 -3.25,1.3 -6.01,4.06 -7.33,7.28 -0.2,0.49 -0.67,1.68 -0.67,2.29z"/>
   <path class="fil1" d="M63.41 136.48l5.17 0 0 -22.16 17.64 0c1.04,0 2.2,0.73 2.73,1.29 2.03,2.13 1.34,5.58 -0.92,6.75 -0.78,0.4 -1.1,0.58 -2.3,0.57l-14.52 0c0.1,0.37 1.37,1.29 1.74,1.62l0.61 0.54c0.13,0.11 0.17,0.17 0.3,0.28 0.15,0.13 0.17,0.11 0.32,0.25l0.61 0.54c0.24,0.2 0.35,0.33 0.61,0.54 0.13,0.11 0.17,0.17 0.3,0.28 0.15,0.14 0.17,0.12 0.32,0.25 0.42,0.35 0.76,0.72 1.17,1.04l7.65 6.63c0.12,0.11 0.17,0.18 0.29,0.29 0.16,0.14 0.17,0.12 0.32,0.25 0.13,0.11 0.17,0.17 0.29,0.28 0.74,0.62 0.72,0.74 1.17,0.76l7.26 0c-0.19,-0.28 -0.9,-0.82 -1.21,-1.08 -0.44,-0.38 -0.86,-0.69 -1.31,-1.07l-0.62 -0.53c-0.24,-0.2 -0.42,-0.36 -0.66,-0.57l-1.31 -1.07c-0.43,-0.38 -0.84,-0.74 -1.28,-1.1l-1.92 -1.6c-0.15,-0.13 -0.17,-0.12 -0.32,-0.25 -0.15,-0.13 -0.17,-0.18 -0.34,-0.31l-1.28 -1.1c3.15,0 5.17,0.05 7.74,-1.86 1.88,-1.4 3.27,-3.7 3.56,-6.12 0.19,-1.52 -0,-2.92 -0.42,-4.13 -1.21,-3.53 -4.65,-6.18 -8.34,-6.18l-23.06 0 0 27z"/>
   <path class="fil1" d="M208.49 136.48l16.08 0c0.27,0 0.62,-0.76 0.85,-1.12l2.35 -3.64c-5.58,0 -11.16,0 -16.74,0 -2.8,0 -4.56,0.06 -6.88,-1.49 -1.53,-1.02 -2.58,-2.35 -3.26,-4.04 -0.12,-0.29 -0.16,-0.54 -0.28,-0.79l22.24 0c0.07,-0.27 1.55,-2.48 1.87,-2.97 0.14,-0.22 0.22,-0.38 0.38,-0.61 0.21,-0.31 0.67,-0.88 0.71,-1.26l-25.19 0c0.4,-0.84 0.44,-1.41 1.2,-2.49 0.79,-1.14 1.72,-1.98 2.91,-2.67 1.42,-0.82 2.75,-1.07 4.59,-1.07 4.98,0 9.96,0 14.94,0l3.04 -4.84c-5.99,0 -11.98,0 -17.97,0 -3.76,0 -7.08,1.22 -9.7,3.75 -0.77,0.74 -1.42,1.62 -2.01,2.5 -0.89,1.33 -1.61,3.1 -1.89,4.75 -0.22,1.27 -0.33,2.83 -0.13,4.13 0.53,3.52 1.52,5.17 3.59,7.65 0.14,0.17 0.37,0.39 0.53,0.54 0.15,0.14 0.17,0.12 0.32,0.25 2.22,1.88 5.04,3.42 8.48,3.42z"/>
   <path class="fil1" d="M95.49 136.48l6.15 0c0.47,-0.88 1.13,-1.78 1.64,-2.63 0.27,-0.45 0.54,-0.88 0.82,-1.31l9.27 -14.69c0.28,-0.42 0.54,-0.89 0.82,-1.32 0.22,-0.32 0.68,-1.15 0.9,-1.31l7.22 11.74 -13.79 0 3.04 4.76 14.03 0 2.87 4.76 6.15 0 -15.89 -24.81c-0.41,-0.61 -0.68,-1.2 -1.26,-1.61 -0.67,-0.48 -1.38,-0.75 -2.09,-0.82l-0.77 0c-1,0.1 -1.95,0.61 -2.71,1.5 -0.22,0.26 -0.38,0.6 -0.58,0.9l-13.03 20.37c-0.22,0.33 -0.36,0.57 -0.57,0.9 -0.31,0.48 -2.18,3.3 -2.25,3.58z"/>
   <path class="fil1" d="M131.6 122.62c0,1.39 0.03,2.38 0.4,3.7 1.11,3.94 3.58,7.11 7.28,8.88 1.26,0.6 3.39,1.28 5.2,1.28l16.9 0c0.29,0 1.46,-2.08 1.63,-2.31 0.28,-0.41 0.49,-0.78 0.77,-1.2 0.17,-0.26 0.66,-0.99 0.72,-1.25 -5.96,0 -11.93,0 -17.89,0 -2.51,0 -5.05,-0.43 -6.79,-2.15 -0.95,-0.94 -1.38,-1.3 -1.99,-2.52 -0.92,-1.86 -0.98,-2.54 -0.98,-4.6 0,-1.99 1.16,-4.25 2.48,-5.56 0.71,-0.71 1.38,-1.21 2.33,-1.69 0.77,-0.38 2.14,-0.86 3.23,-0.88 5.37,-0.06 10.79,0 16.17,0 0.14,-0.21 0.23,-0.38 0.38,-0.61 0.46,-0.7 2.56,-3.83 2.66,-4.23 -5.69,0 -11.38,0 -17.07,0 -2.36,0 -2.95,-0.16 -5.32,0.43 -5.71,1.42 -10.11,6.9 -10.11,12.7z"/>
   <path class="fil1" d="M166.89 133.69c0,0.87 0.27,1.4 0.67,1.88 0.34,0.4 1,0.91 1.72,0.91l23.88 0c0.23,0 0.36,-0.32 0.48,-0.51l1.16 -1.79c0.26,-0.43 0.49,-0.76 0.78,-1.19l0.79 -1.26 -24.21 0 0 -22.24 -5.25 0 0 24.21z"/>
  </g>
 </g>
</svg>
