<?xml version="1.0" encoding="UTF-8"?>
<!DOCTYPE svg PUBLIC "-//W3C//DTD SVG 1.1//EN" "http://www.w3.org/Graphics/SVG/1.1/DTD/svg11.dtd">
<!-- Creator: CorelDRAW -->
<svg xmlns="http://www.w3.org/2000/svg" xml:space="preserve" width="15mm" height="15mm" version="1.1" style="shape-rendering:geometricPrecision; text-rendering:geometricPrecision; image-rendering:optimizeQuality; fill-rule:evenodd; clip-rule:evenodd"
viewBox="0 0 66.37 66.37"
 xmlns:xlink="http://www.w3.org/1999/xlink"
 xmlns:xodm="http://www.corel.com/coreldraw/odm/2003">
 <defs>
  <style type="text/css">
   <![CDATA[
    .fil0 {fill:none}
    .fil1 {fill:white;fill-rule:nonzero}
   ]]>
  </style>
 </defs>
 <g id="Layer_x0020_1">
  <metadata id="CorelCorpID_0Corel-Layer"/>
  <g id="_2515764019424">
   <circle class="fil0" cx="33.18" cy="33.18" r="33.18"/>
   <path class="fil1" d="M46.5 15.5l-23.31 0c-2.41,0 -4.37,1.96 -4.37,4.37l0 26.64c0,2.41 1.96,4.37 4.37,4.37l23.31 0c0.57,0 1.04,-0.46 1.04,-1.04l0 -6.66 0 -26.64c0,-0.57 -0.46,-1.04 -1.04,-1.04zm-20.96 12.21c0.12,-0.38 0.45,-0.65 0.84,-0.71l4.06 -0.59 1.82 -3.68c0.17,-0.35 0.53,-0.58 0.93,-0.58 0.39,0 0.75,0.22 0.93,0.58l1.82 3.68 4.06 0.59c0.39,0.06 0.72,0.33 0.84,0.71 0.12,0.37 0.02,0.79 -0.26,1.06l-2.94 2.87 0.68 3.99c0.02,0.07 0.03,0.15 0.03,0.23 0,0.57 -0.46,1.04 -1.03,1.04 -0,0 -0,0 -0,0 -0.16,0 -0.33,-0.04 -0.48,-0.12l-3.63 -1.91 -3.63 1.91c-0.15,0.08 -0.32,0.12 -0.48,0.12 -0.22,0 -0.43,-0.07 -0.61,-0.2 -0.32,-0.23 -0.48,-0.62 -0.41,-1.01l0.69 -4.05 -2.94 -2.87c-0.28,-0.28 -0.38,-0.69 -0.26,-1.06zm19.93 21.08l-22.27 0c-1.26,0 -2.29,-1.03 -2.29,-2.29 0,-0.04 0,-0.09 0,-0.13 0.07,-1.2 1.07,-2.16 2.29,-2.16l15.02 0 7.25 0 0 4.59z"/>
  </g>
 </g>
</svg>
