<?xml version="1.0" encoding="UTF-8"?>
<!DOCTYPE svg PUBLIC "-//W3C//DTD SVG 1.1//EN" "http://www.w3.org/Graphics/SVG/1.1/DTD/svg11.dtd">
<!-- Creator: CorelDRAW -->
<svg xmlns="http://www.w3.org/2000/svg" xml:space="preserve" width="15mm" height="15mm" version="1.1" style="shape-rendering:geometricPrecision; text-rendering:geometricPrecision; image-rendering:optimizeQuality; fill-rule:evenodd; clip-rule:evenodd"
viewBox="0 0 419.83 419.83"
 xmlns:xlink="http://www.w3.org/1999/xlink"
 xmlns:xodm="http://www.corel.com/coreldraw/odm/2003">
 <defs>
  <style type="text/css">
   <![CDATA[
    .fil0 {fill:none}
    .fil1 {fill:white;fill-rule:nonzero}
   ]]>
  </style>
 </defs>
 <g id="Layer_x0020_1">
  <metadata id="CorelCorpID_0Corel-Layer"/>
  <circle class="fil0" cx="209.92" cy="209.92" r="209.92"/>
  <path class="fil1" d="M310.51 139.55c0,-13.89 -11.26,-25.15 -25.15,-25.15 -13.89,0 -25.15,11.26 -25.15,25.15 0,13.89 11.26,25.15 25.15,25.15 13.89,0 25.15,-11.26 25.15,-25.15zm-70.42 -20.17c0,-16.67 -13.51,-30.18 -30.18,-30.18 -16.67,0 -30.18,13.51 -30.18,30.18 0,16.67 13.51,30.18 30.18,30.18 16.67,0 30.18,-13.51 30.18,-30.18zm-10.06 211.25c8.3,0 15.09,-6.79 15.09,-15.09l0 -71.32c1.56,0.55 3.27,0.91 5.03,0.91 8.3,0 15.09,-6.79 15.09,-15.09l0 -50.3c0,-11.12 -9,-20.12 -20.12,-20.12l-70.42 0c-11.11,0 -20.12,9 -20.12,20.12l0 50.3c0,8.3 6.79,15.09 15.09,15.09 1.76,0 3.47,-0.35 5.03,-0.9l0 71.32c0,8.3 6.79,15.09 15.09,15.09 8.3,0 15.09,-6.79 15.09,-15.09l0 -50.3c0,-2.77 2.26,-5.03 5.03,-5.03 2.77,0 5.03,2.26 5.03,5.03l0 50.3c0,8.3 6.79,15.09 15.09,15.09l0 0zm-127.76 -90.44c1.06,0 2.06,-0.15 3.02,-0.35l0 55.68c0,7.24 5.88,13.08 13.08,13.08 7.19,0 13.08,-5.84 13.08,-13.08l0 -40.24c0,-1.66 1.36,-3.02 3.02,-3.02 1.66,0 3.02,1.36 3.02,3.02l0 40.24c0,7.24 5.89,13.08 13.08,13.08 7.19,0 13.08,-5.84 13.08,-13.08l0 -41.14c-10.97,-2.71 -19.11,-12.57 -19.11,-24.34l0 -50.3c0,-3.47 0.6,-6.84 1.71,-9.96l-39.94 0c-9.4,0 -17.1,7.7 -17.1,17.1l0 40.24c0,7.24 5.89,13.08 13.08,13.08l0 0zm211.25 -70.42l-39.94 0c1.11,3.12 1.71,6.49 1.71,9.96l0 50.3c0,11.77 -8.15,21.63 -19.11,24.34l0 41.14c0,7.24 5.89,13.08 13.08,13.08 7.19,0 13.08,-5.84 13.08,-13.08l0 -40.24c0,-1.66 1.36,-3.02 3.02,-3.02 1.66,0 3.02,1.36 3.02,3.02l0 40.24c0,7.24 5.89,13.08 13.08,13.08 7.19,0 13.08,-5.84 13.08,-13.08l0 -55.68c0.96,0.2 1.96,0.35 3.02,0.35 7.19,0 13.08,-5.83 13.08,-13.08l0 -40.24c0,-9.4 -7.7,-17.1 -17.1,-17.1zm-153.91 -30.23c0,-13.89 -11.26,-25.15 -25.15,-25.15 -13.89,0 -25.15,11.26 -25.15,25.15 0,13.89 11.26,25.15 25.15,25.15 13.89,0 25.15,-11.26 25.15,-25.15z"/>
 </g>
</svg>
