<?xml version="1.0" encoding="UTF-8"?>
<!DOCTYPE svg PUBLIC "-//W3C//DTD SVG 1.1//EN" "http://www.w3.org/Graphics/SVG/1.1/DTD/svg11.dtd">
<!-- Creator: CorelDRAW -->
<svg xmlns="http://www.w3.org/2000/svg" xml:space="preserve" width="15mm" height="15mm" version="1.1" style="shape-rendering:geometricPrecision; text-rendering:geometricPrecision; image-rendering:optimizeQuality; fill-rule:evenodd; clip-rule:evenodd"
viewBox="0 0 245.72 245.72"
 xmlns:xlink="http://www.w3.org/1999/xlink"
 xmlns:xodm="http://www.corel.com/coreldraw/odm/2003">
 <defs>
  <style type="text/css">
   <![CDATA[
    .fil0 {fill:none}
    .fil1 {fill:white}
   ]]>
  </style>
 </defs>
 <g id="Layer_x0020_1">
  <metadata id="CorelCorpID_0Corel-Layer"/>
  <circle class="fil0" cx="122.86" cy="122.86" r="122.86"/>
  <path class="fil1" d="M89.54 103.94c0.45,-0.09 1.92,-0.04 2.56,-0.05 0.1,-0 0.35,-0.01 0.43,0 0.24,0.04 0.16,0.01 0.29,0.15 0.13,0.16 0.2,22.74 -0,23.23 -0.37,0.14 -2.85,0.1 -3.27,0.02 -0.22,-0.57 -0.09,-10.11 -0.09,-11.64 0,-1.57 -0.14,-11.1 0.09,-11.72zm10.13 13.36l7.57 0c0.01,-2.35 -1.39,-4.09 -3.74,-4.06 -0.58,0.01 -1.17,0.12 -1.64,0.35 -0.23,0.11 -0.41,0.22 -0.59,0.35 -0.14,0.1 -0.39,0.35 -0.51,0.49 -0.47,0.56 -1.06,1.87 -1.09,2.87zm85.52 -0l7.57 0c0.05,-1.61 -0.74,-3.12 -2.09,-3.75 -1.39,-0.65 -3.4,-0.32 -4.39,0.9 -0.52,0.65 -1.05,1.76 -1.09,2.85zm-102.66 2.36c-2.8,-0.37 -6.88,-0.69 -6.91,2.56 -0.01,1.64 0.92,2.32 2.39,2.59 1.51,0.27 3.09,-0.06 4.56,-0.29l-0.04 -4.87zm63.14 -6.28c-3.01,0.52 -3.38,4.06 -3.21,6.59 0.2,2.99 1.52,5.45 4.91,4.81 2.66,-0.49 3.36,-3.53 3.16,-6.54 -0.2,-3.02 -1.49,-5.44 -4.87,-4.86zm-6.89 6.32c-0.24,-5.1 2.24,-8.96 7.04,-9.26 5.22,-0.33 8.13,3.08 8.34,8.04 0.22,5.11 -2.23,8.9 -7.05,9.2 -5.2,0.33 -8.11,-3.04 -8.34,-7.98zm55.92 4.28c0.2,0.28 0.48,1.19 0.63,1.61 0.31,0.9 0.48,0.92 -0.44,1.29 -1.17,0.46 -2.34,0.69 -3.71,0.77 -2.83,0.18 -5,-0.18 -7.13,-1.83 -3.18,-2.46 -3.6,-9.38 -0.5,-13.1 1.45,-1.74 4.18,-2.51 6.57,-2.28 4.16,0.41 5.97,3.59 6.11,7.23 0.11,2.89 -0.11,2.27 -2.24,2.27 -1.61,0 -7.79,-0.09 -8.84,0.01 -0.1,2.4 1.1,4.01 3.02,4.55 3.07,0.87 6.04,-0.6 6.53,-0.53zm-95.08 -4.04c-0.1,1.01 0.31,2.3 0.74,2.97 1.42,2.22 5.05,2.07 7.31,1.46 1.8,-0.48 1.34,-0.99 2.11,1.17 0.34,0.96 0.47,0.93 -0.47,1.33 -3.01,1.28 -8.41,1.08 -10.8,-1.05 -1.58,-1.41 -2.52,-3.31 -2.6,-6.28 -0.17,-5.69 3.14,-9.62 8.61,-9.12 4.19,0.39 6.01,3.55 6.16,7.17 0.02,0.39 0.02,1.79 -0.1,2.11 -0.18,0.44 -1.54,0.24 -2.03,0.24 -2.98,0 -5.96,-0 -8.94,-0zm13.13 5.78c0.01,-0.34 0.69,-2.41 0.88,-2.55 0.27,-0.2 0.87,0.3 1.12,0.45 1.73,1.04 5.02,1.96 6.59,0.84 0.6,-0.43 1.2,-1.43 0.59,-2.39 -0.88,-1.38 -4.84,-1.57 -7.01,-3.17 -2.9,-2.14 -2.07,-6.97 2.01,-8.23 3.31,-1.02 8.11,0.7 8.15,1.45 0.02,0.34 -0.74,2.17 -0.93,2.37 -0.27,0 -1.67,-0.64 -2.15,-0.79 -0.75,-0.24 -1.63,-0.41 -2.47,-0.47 -2.88,-0.2 -3.36,1.81 -2.63,2.68 1.39,1.67 6.08,1.77 7.78,3.99 0.98,1.28 1.17,2.96 0.48,4.71 -1.76,4.46 -9.32,3.57 -12.41,1.12zm-38.74 -11.26c-0.24,-0.23 -0.53,-1.21 -0.67,-1.58 -0.3,-0.78 -0.42,-0.93 0.34,-1.34 2.52,-1.35 8.2,-1.84 10.58,0.31 1.91,1.73 1.71,4.01 1.71,7.12l0 6.64c0,1.12 0.06,0.99 -0.96,1.23 -4.71,1.09 -11.77,1.86 -12.75,-3.29 -0.55,-2.88 0.89,-4.98 2.7,-5.89 2.58,-1.3 4.67,-0.97 7.61,-0.67 0,-2.19 -0.35,-3.53 -3.12,-3.67 -1.35,-0.07 -3.05,0.21 -4.29,0.72 -0.34,0.14 -0.83,0.48 -1.15,0.43zm-5.18 0.02c-0.29,0.01 -5.05,-2.35 -6.94,-0.72 -0.5,0.43 -0.9,1.32 -0.39,2.07 1.07,1.58 5.87,1.74 7.78,3.99 2.39,2.82 0.62,9.33 -7.76,7.69 -1.25,-0.24 -3.48,-1.11 -4.08,-1.83 -0.02,-0.07 0.66,-2.41 0.92,-2.55 0.26,-0.14 1.33,0.67 2.02,0.98 1.4,0.64 3.75,1.2 5.23,0.57 0.67,-0.28 1.34,-0.95 1.25,-1.96 -0.14,-1.43 -2.56,-1.96 -3.99,-2.39 -1.38,-0.41 -3.19,-1.05 -4.11,-2.24 -1,-1.3 -1.14,-3.44 -0.25,-5 0.7,-1.25 1.94,-2.22 3.76,-2.59 2.94,-0.59 7.64,0.79 7.51,1.72 -0.05,0.36 -0.72,2.03 -0.92,2.25zm111.59 12.32c-2.62,1.2 -6.79,1.17 -9.27,-0.23 -2.19,-1.24 -3.63,-3.89 -3.65,-7.45 -0.03,-5.37 3.18,-8.69 8,-8.75 1.54,-0.02 3.58,0.21 4.77,0.79 0.03,0.44 -0.26,1.02 -0.4,1.42 -0.08,0.23 -0.15,0.4 -0.23,0.64 -0.16,0.48 -0.11,0.45 -0.34,0.56 -0.37,0.15 -3.75,-1.22 -6.05,0.2 -2.76,1.71 -3.1,8.38 0.17,10.11 2.62,1.38 5.6,0.02 6.15,0.08 0.19,0.45 0.9,2.12 0.86,2.63zm-20.11 -14.55c0.3,-0.23 0.48,-0.45 0.88,-0.73 1.52,-1.08 3.16,-1.13 4.98,-0.77 0.6,0.12 0.77,0.15 0.55,0.74 -0.2,0.53 -0.55,1.9 -0.89,2.21 -0.47,0.1 -1.47,-0.17 -2.33,-0.01 -3.78,0.69 -3.1,5.57 -3.1,8.9 0,0.57 0.13,4.43 -0.14,4.63 -0.27,0.12 -2.91,0.12 -3.18,-0 -0.27,-0.31 -0.14,-1.48 -0.14,-1.96l0 -13.58c-0,-0.38 -0.07,-0.71 0.13,-0.88 0.27,-0.16 2.67,-0.14 3.09,-0.04 0.22,0.34 0.11,1 0.14,1.49zm-20.39 -5.54c-0.85,0.03 -3.74,-1.26 -4.73,2 -0.18,0.6 -0.36,1.36 -0.43,2.02 0.88,0 3.01,-0.1 3.71,0.06 0.1,0.41 -0.08,1 -0.17,1.46 -0.08,0.45 -0.09,1.12 -0.44,1.33l-3.61 0.04c-0.24,0.66 -0.5,2.75 -0.64,3.55 -0.61,3.43 -1.25,7.61 -1.93,10.85 -0.24,1.15 -0.54,2.24 -0.96,3.24 -1.22,2.94 -3.67,4.06 -6.8,3.69 -0.27,-0.03 -1.53,-0.26 -1.68,-0.5 -0.14,-0.36 0.68,-2.45 0.91,-2.66 0.31,-0 0.83,0.22 1.28,0.26 0.52,0.05 1.07,0.01 1.53,-0.13 2.05,-0.63 2.47,-4.99 2.85,-7.06 0.33,-1.85 0.67,-3.71 1,-5.57 0.32,-1.85 0.76,-3.81 1.01,-5.67l-2.06 0c-0.08,0 -0.28,0 -0.34,-0.01 -0.57,-0.12 -0.16,-1.11 0.03,-2.17 0.16,-0.93 0.09,-0.7 2.86,-0.7 0.49,-3.17 1.43,-5.46 3.74,-6.58 1.28,-0.62 3.03,-0.76 4.55,-0.49 1.13,0.2 1.39,0.12 1.02,1.16 -0.22,0.62 -0.46,1.32 -0.69,1.89zm-93.97 1.79l-2.05 1.36c-0.69,0.5 -1.35,0.98 -1.98,1.49 -3.65,2.97 -6.96,7.38 -8.86,11.93 -0.69,1.65 -1.26,3.34 -1.67,5.19 -0.68,3.03 -0.58,3.35 -0.58,6.38 0,2.39 -0.08,4.29 0.37,6.59 2.43,12.4 12.04,22.03 23.94,24.46 2.02,0.41 4.14,0.64 6.28,0.64 3.27,-0 3.58,-0.32 6.31,-0.65 0.56,2.25 3.1,6.45 4.48,8.29 4.82,6.42 11.38,10.78 19.46,12.61 2.42,0.55 6.48,0.37 9.25,0.37 0.95,0 2.25,0.07 3.16,-0.03 5.16,-0.61 11.76,-3.78 15.51,-6.95 1.03,-0.87 2.46,-2.08 3.29,-3.06 1.75,-2.07 2.43,-2.57 4.19,-5.49 1.08,-1.8 1.25,-2.28 2.05,-3.94l0.18 -0.28 2.45 1.04c8.17,3.09 17.96,2.26 25.24,-2.36 1.43,-0.91 3.8,-2.54 4.95,-3.79 0.29,-0.31 0.58,-0.55 0.87,-0.87l0.84 -0.9c1.02,-1.21 3.18,-3.82 3.64,-5.11 0.77,0.06 1.7,0.29 2.52,0.4 9.29,1.25 18.14,-0.71 26.05,-5.47 1.33,-0.8 3.85,-2.6 5.09,-3.72l2.27 -2.14c0.25,-0.25 0.5,-0.44 0.74,-0.71l1.39 -1.57c0.42,-0.54 0.85,-1.04 1.29,-1.6 2.06,-2.66 4.01,-6.04 5.36,-9.37 2.47,-6.07 3.52,-13.08 2.62,-20.3 -1.71,-13.64 -10,-23.58 -18.15,-28.72 -8.22,-5.18 -18.12,-7.44 -28.3,-5.59 -2.35,0.43 -4.71,1.08 -6.9,1.92 -0.48,0.18 -1.77,0.78 -2.12,0.83 -0.46,-0.61 -1.17,-1.97 -1.92,-2.98 -1.27,-1.72 -1.44,-1.87 -2.75,-3.39 -0.21,-0.24 -0.36,-0.42 -0.58,-0.65 -4.5,-4.58 -10.72,-8.14 -17.67,-9.33 -5.79,-0.99 -12.04,-0.33 -17.05,1.66 -3.74,1.48 -6.36,3.12 -9.25,5.48 -0.23,0.19 -0.43,0.38 -0.67,0.56l-1.91 1.84c-0.32,-0.34 -0.6,-0.73 -0.89,-1.09 -0.17,-0.2 -0.31,-0.39 -0.46,-0.56 -0.9,-0.97 -1.49,-1.7 -2.5,-2.62 -1.34,-1.23 -2.87,-2.55 -4.57,-3.66 -3.41,-2.23 -6.7,-3.83 -11.34,-5.05 -9.54,-2.52 -19.59,-0.4 -26.8,3.84 -6.42,3.77 -11.96,9.65 -15.17,17.61 -3.29,8.15 -3.36,17.62 -0.21,25.93 0.16,0.42 0.5,1.13 0.59,1.52z"/>
 </g>
</svg>
