<?xml version="1.0" encoding="UTF-8"?>
<!DOCTYPE svg PUBLIC "-//W3C//DTD SVG 1.1//EN" "http://www.w3.org/Graphics/SVG/1.1/DTD/svg11.dtd">
<!-- Creator: CorelDRAW -->
<svg xmlns="http://www.w3.org/2000/svg" xml:space="preserve" width="15mm" height="15mm" version="1.1" style="shape-rendering:geometricPrecision; text-rendering:geometricPrecision; image-rendering:optimizeQuality; fill-rule:evenodd; clip-rule:evenodd"
viewBox="0 0 227.51 227.51"
 xmlns:xlink="http://www.w3.org/1999/xlink"
 xmlns:xodm="http://www.corel.com/coreldraw/odm/2003">
 <defs>
  <style type="text/css">
   <![CDATA[
    .fil0 {fill:none}
    .fil1 {fill:white}
   ]]>
  </style>
 </defs>
 <g id="Layer_x0020_1">
  <metadata id="CorelCorpID_0Corel-Layer"/>
  <circle class="fil0" cx="113.75" cy="113.75" r="113.75"/>
  <path class="fil1" d="M73.16 89.99l25.25 0c0.51,0 0.89,-0.46 0.8,-0.96 -1.14,-6.38 -6.72,-11.22 -13.42,-11.22 -6.71,0 -12.28,4.84 -13.42,11.22 -0.09,0.5 0.29,0.96 0.8,0.96l0 0zm-30 83.32l39.29 -0c0.79,0 1.38,-0.71 1.24,-1.49 -1.78,-9.92 -10.45,-17.45 -20.89,-17.45 -10.44,0 -19.11,7.53 -20.89,17.45 -0.14,0.78 0.45,1.49 1.24,1.49zm34.66 -28.27c0.34,-1.28 0.52,-2.62 0.52,-4 0,-2.08 -0.41,-4.07 -1.16,-5.88 1.36,-1.21 3.34,-1.98 5.53,-1.98l13.25 0 0 -13.83 -30.12 0c-4.79,0 -8.7,-3.92 -8.7,-8.71l0 -59.89c0,-4.79 3.92,-8.71 8.7,-8.71l95.83 0c4.79,0 8.7,3.92 8.7,8.71l0 59.89c0,4.79 -3.92,8.71 -8.7,8.71l-30.12 0 0 13.83 13.25 0c2.19,0 4.16,0.77 5.53,1.98 -0.74,1.82 -1.16,3.8 -1.16,5.88 0,1.38 0.18,2.72 0.52,4l-20.92 0c0.34,-1.28 0.52,-2.62 0.52,-4 0,-8.58 -6.96,-15.53 -15.53,-15.53 -8.58,0 -15.53,6.96 -15.53,15.53 0,1.38 0.18,2.72 0.52,4l-20.92 0zm32.43 -85.27c-0.99,0 -1.8,0.81 -1.8,1.8l0 30.87c0,0.99 0.81,1.8 1.8,1.8l40.6 0c0.99,0 1.8,-0.81 1.8,-1.8l0 -30.87c0,-0.99 -0.81,-1.8 -1.8,-1.8l-40.6 0zm6.34 10.5l27.91 0c1.33,0 2.4,-1.08 2.4,-2.4 0,-1.33 -1.08,-2.4 -2.4,-2.4l-27.91 0c-1.33,0 -2.4,1.08 -2.4,2.4 0,1.33 1.08,2.4 2.4,2.4l0 0zm0 18.28l27.91 0c1.33,0 2.4,-1.08 2.4,-2.4 0,-1.33 -1.08,-2.4 -2.4,-2.4l-27.91 0c-1.33,0 -2.4,1.08 -2.4,2.4 0,1.33 1.08,2.4 2.4,2.4l0 0zm0 -9.14l27.91 0c1.33,0 2.4,-1.08 2.4,-2.4 0,-1.33 -1.08,-2.4 -2.4,-2.4l-27.91 0c-1.33,0 -2.4,1.08 -2.4,2.4 0,1.33 1.08,2.4 2.4,2.4l0 0zm-50.97 -30.08l96.26 0c0.66,0 1.21,0.54 1.21,1.21l0 54.15 -98.68 0 0 -54.15c0,-0.66 0.54,-1.21 1.21,-1.21l0 0zm79.44 123.98l39.29 -0c0.79,0 1.38,-0.71 1.24,-1.49 -1.78,-9.92 -10.45,-17.45 -20.89,-17.45 -10.43,0 -19.11,7.53 -20.89,17.45 -0.14,0.78 0.45,1.49 1.24,1.49zm19.65 -43c-5.93,0 -10.73,4.8 -10.73,10.73 0,5.93 4.8,10.73 10.73,10.73 5.93,0 10.73,-4.8 10.73,-10.73 0,-5.93 -4.8,-10.73 -10.73,-10.73zm-70.59 43l39.29 -0c0.79,0 1.38,-0.71 1.24,-1.49 -1.78,-9.92 -10.45,-17.45 -20.89,-17.45 -10.44,0 -19.11,7.53 -20.89,17.45 -0.14,0.78 0.45,1.49 1.25,1.49zm-31.3 -43c-5.93,0 -10.73,4.8 -10.73,10.73 0,5.93 4.8,10.73 10.73,10.73 5.93,0 10.73,-4.8 10.73,-10.73 0,-5.93 -4.8,-10.73 -10.73,-10.73zm50.95 0c-5.93,0 -10.73,4.8 -10.73,10.73 0,5.93 4.8,10.73 10.73,10.73 5.93,0 10.73,-4.8 10.73,-10.73 0,-5.93 -4.8,-10.73 -10.73,-10.73zm-27.97 -67.62c-3.81,0 -6.89,3.09 -6.89,6.9 0,3.81 3.09,6.89 6.89,6.89 3.81,0 6.89,-3.09 6.89,-6.89 0,-3.81 -3.09,-6.9 -6.89,-6.9z"/>
 </g>
</svg>
