<?xml version="1.0" encoding="UTF-8"?>
<!DOCTYPE svg PUBLIC "-//W3C//DTD SVG 1.1//EN" "http://www.w3.org/Graphics/SVG/1.1/DTD/svg11.dtd">
<!-- Creator: CorelDRAW -->
<svg xmlns="http://www.w3.org/2000/svg" xml:space="preserve" width="15mm" height="15mm" version="1.1" style="shape-rendering:geometricPrecision; text-rendering:geometricPrecision; image-rendering:optimizeQuality; fill-rule:evenodd; clip-rule:evenodd"
viewBox="0 0 410.31 410.31"
 xmlns:xlink="http://www.w3.org/1999/xlink"
 xmlns:xodm="http://www.corel.com/coreldraw/odm/2003">
 <defs>
  <style type="text/css">
   <![CDATA[
    .fil0 {fill:none}
    .fil1 {fill:white;fill-rule:nonzero}
   ]]>
  </style>
 </defs>
 <g id="Layer_x0020_1">
  <metadata id="CorelCorpID_0Corel-Layer"/>
  <g id="_2521522425776">
   <circle class="fil0" cx="205.15" cy="205.15" r="205.15"/>
   <path class="fil1" d="M236.03 215.94l0 -34.8 33.73 0 -73.88 -94.06 -81.24 94.06 33.04 0 51.92 73.22c5.86,-17.55 19.3,-31.66 36.42,-38.42zm22.89 9.04c-27.09,0 -49.13,22.04 -49.13,49.13 0,27.09 22.04,49.13 49.13,49.13 27.09,0 49.13,-22.04 49.13,-49.13 0,-27.09 -22.04,-49.13 -49.13,-49.13zm-5.68 71.62l-18.32 -18.32 9.74 -9.74 8.58 8.58 19.93 -19.93 9.74 9.74 -29.67 29.67zm-150.99 -33.42l19.16 0 0 60.06 26.27 0 22.62 0 0 -60.06 19.27 0 -41.85 -59.43 -45.47 59.43zm94.21 13.38l-12.79 0 0 46.68 36.64 0c-13.95,-10.98 -23.12,-27.77 -23.85,-46.68z"/>
  </g>
 </g>
</svg>
